<svg width="500" height="200" viewBox="0 0 500 200" fill="none" xmlns="http://www.w3.org/2000/svg">
<rect width="500" height="200" rx="8" fill="#F5E1C0"/>
<path d="M40.9375 39V24.4545H51.1648V27.6364H44.8864V30.1364H50.5398V33.3182H44.8864V39H40.9375ZM52.4396 39V28.0909H56.2464V30.1648H56.3601C56.5589 29.3977 56.8738 28.8366 57.3047 28.4815C57.7403 28.1264 58.2493 27.9489 58.8317 27.9489C59.0021 27.9489 59.1702 27.9631 59.3359 27.9915C59.5064 28.0152 59.6697 28.0507 59.826 28.098V31.4432C59.6319 31.3769 59.3928 31.3272 59.1087 31.294C58.8246 31.2609 58.5807 31.2443 58.3771 31.2443C57.9936 31.2443 57.648 31.3319 57.3402 31.5071C57.0372 31.6776 56.7981 31.919 56.6229 32.2315C56.4477 32.5393 56.3601 32.9015 56.3601 33.3182V39H52.4396ZM63.6435 39.1705C62.9474 39.1705 62.3319 39.0568 61.7969 38.8295C61.2666 38.5975 60.8499 38.2472 60.5469 37.7784C60.2438 37.3097 60.0923 36.7131 60.0923 35.9886C60.0923 35.392 60.1941 34.883 60.3977 34.4616C60.6013 34.0355 60.8854 33.6875 61.25 33.4176C61.6146 33.1477 62.0384 32.9418 62.5213 32.7997C63.009 32.6577 63.5346 32.5653 64.098 32.5227C64.7088 32.4754 65.1989 32.4186 65.5682 32.3523C65.9422 32.2812 66.2121 32.1842 66.3778 32.0611C66.5436 31.9332 66.6264 31.7652 66.6264 31.5568V31.5284C66.6264 31.2443 66.5175 31.0265 66.2997 30.875C66.0819 30.7235 65.8026 30.6477 65.4616 30.6477C65.0876 30.6477 64.7822 30.7306 64.5455 30.8963C64.3134 31.0573 64.1738 31.3059 64.1264 31.642H60.5185C60.5658 30.9792 60.7765 30.3684 61.1506 29.8097C61.5294 29.2462 62.081 28.7964 62.8054 28.4602C63.5298 28.1193 64.4342 27.9489 65.5185 27.9489C66.2997 27.9489 67.0005 28.0412 67.6207 28.2259C68.241 28.4058 68.7689 28.6591 69.2045 28.9858C69.6402 29.3078 69.9716 29.6866 70.1989 30.1222C70.4309 30.553 70.5469 31.0218 70.5469 31.5284V39H66.8821V37.4659H66.7969C66.5791 37.8731 66.3139 38.2022 66.0014 38.4531C65.6937 38.7041 65.3409 38.8864 64.9432 39C64.5502 39.1136 64.117 39.1705 63.6435 39.1705ZM64.9219 36.6989C65.2202 36.6989 65.4995 36.6373 65.7599 36.5142C66.0251 36.3911 66.2405 36.2135 66.4062 35.9815C66.572 35.7495 66.6548 35.4678 66.6548 35.1364V34.2273C66.5507 34.2699 66.4394 34.3101 66.321 34.348C66.2074 34.3859 66.0843 34.4214 65.9517 34.4545C65.8239 34.4877 65.6866 34.5185 65.5398 34.5469C65.3977 34.5753 65.2486 34.6013 65.0923 34.625C64.7893 34.6723 64.5407 34.7505 64.3466 34.8594C64.1572 34.9635 64.0152 35.0938 63.9205 35.25C63.8305 35.4015 63.7855 35.572 63.7855 35.7614C63.7855 36.0644 63.892 36.2964 64.1051 36.4574C64.3182 36.6184 64.5904 36.6989 64.9219 36.6989ZM72.4201 39V28.0909H76.1417V30.1648H76.2553C76.4826 29.483 76.8709 28.9432 77.4201 28.5455C77.9693 28.1477 78.6228 27.9489 79.3803 27.9489C80.1474 27.9489 80.8079 28.1525 81.3619 28.5597C81.9158 28.9621 82.2496 29.4972 82.3633 30.1648H82.4769C82.6616 29.4972 83.0546 28.9621 83.6559 28.5597C84.2572 28.1525 84.9627 27.9489 85.7724 27.9489C86.8188 27.9489 87.6663 28.285 88.315 28.9574C88.9684 29.6297 89.2951 30.5246 89.2951 31.642V39H85.3746V32.6364C85.3746 32.1581 85.2539 31.7841 85.0124 31.5142C84.771 31.2396 84.4466 31.1023 84.0394 31.1023C83.637 31.1023 83.3174 31.2396 83.0806 31.5142C82.8486 31.7841 82.7326 32.1581 82.7326 32.6364V39H78.9826V32.6364C78.9826 32.1581 78.8619 31.7841 78.6204 31.5142C78.3789 31.2396 78.0546 31.1023 77.6474 31.1023C77.3775 31.1023 77.1455 31.1638 76.9513 31.2869C76.7572 31.41 76.6057 31.5876 76.4968 31.8196C76.3926 32.0469 76.3406 32.3191 76.3406 32.6364V39H72.4201ZM96.456 39.1989C95.2912 39.1989 94.2874 38.9763 93.4446 38.5312C92.6065 38.0814 91.9602 37.4375 91.5057 36.5994C91.0559 35.7566 90.831 34.7481 90.831 33.5739C90.831 32.447 91.0582 31.4621 91.5128 30.6193C91.9673 29.7765 92.6089 29.1207 93.4375 28.652C94.2661 28.1832 95.2438 27.9489 96.3707 27.9489C97.1946 27.9489 97.9403 28.0767 98.608 28.3324C99.2756 28.5881 99.8461 28.9598 100.32 29.4474C100.793 29.9304 101.158 30.5175 101.413 31.2088C101.669 31.9001 101.797 32.679 101.797 33.5455V34.4545H92.0526V32.2955H98.1889C98.1842 31.983 98.1037 31.7083 97.9474 31.4716C97.7959 31.2301 97.59 31.0431 97.3295 30.9105C97.0739 30.7732 96.7827 30.7045 96.456 30.7045C96.1387 30.7045 95.8475 30.7732 95.5824 30.9105C95.3172 31.0431 95.1042 31.2277 94.9432 31.4645C94.7869 31.7012 94.7041 31.9782 94.6946 32.2955V34.625C94.6946 34.9754 94.768 35.2879 94.9148 35.5625C95.0616 35.8371 95.2723 36.0526 95.5469 36.2088C95.8215 36.3651 96.1529 36.4432 96.5412 36.4432C96.8111 36.4432 97.0573 36.4053 97.2798 36.3295C97.5071 36.2538 97.7012 36.1449 97.8622 36.0028C98.0232 35.8561 98.1416 35.6809 98.2173 35.4773H101.797C101.674 36.2348 101.383 36.893 100.923 37.4517C100.464 38.0057 99.8556 38.4366 99.098 38.7443C98.3452 39.0473 97.4645 39.1989 96.456 39.1989ZM105.192 39L102.464 28.0909H106.385L107.635 34.7386H107.72L109.112 28.0909H112.919L114.368 34.6818H114.453L115.646 28.0909H119.567L116.839 39H112.607L111.072 33.1477H110.959L109.425 39H105.192ZM125.82 39.1989C124.637 39.1989 123.623 38.9645 122.781 38.4957C121.938 38.0223 121.291 37.3641 120.842 36.5213C120.392 35.6738 120.167 34.6913 120.167 33.5739C120.167 32.4564 120.392 31.4763 120.842 30.6335C121.291 29.786 121.938 29.1278 122.781 28.6591C123.623 28.1856 124.637 27.9489 125.82 27.9489C127.004 27.9489 128.017 28.1856 128.86 28.6591C129.703 29.1278 130.349 29.786 130.799 30.6335C131.249 31.4763 131.474 32.4564 131.474 33.5739C131.474 34.6913 131.249 35.6738 130.799 36.5213C130.349 37.3641 129.703 38.0223 128.86 38.4957C128.017 38.9645 127.004 39.1989 125.82 39.1989ZM125.849 36.3011C126.18 36.3011 126.467 36.1899 126.708 35.9673C126.95 35.7448 127.137 35.4276 127.269 35.0156C127.402 34.6037 127.468 34.1136 127.468 33.5455C127.468 32.9725 127.402 32.4825 127.269 32.0753C127.137 31.6634 126.95 31.3461 126.708 31.1236C126.467 30.901 126.18 30.7898 125.849 30.7898C125.498 30.7898 125.198 30.901 124.947 31.1236C124.696 31.3461 124.504 31.6634 124.371 32.0753C124.239 32.4825 124.173 32.9725 124.173 33.5455C124.173 34.1136 124.239 34.6037 124.371 35.0156C124.504 35.4276 124.696 35.7448 124.947 35.9673C125.198 36.1899 125.498 36.3011 125.849 36.3011ZM133.065 39V28.0909H136.871V30.1648H136.985C137.184 29.3977 137.499 28.8366 137.93 28.4815C138.365 28.1264 138.874 27.9489 139.457 27.9489C139.627 27.9489 139.795 27.9631 139.961 27.9915C140.131 28.0152 140.295 28.0507 140.451 28.098V31.4432C140.257 31.3769 140.018 31.3272 139.734 31.294C139.45 31.2609 139.206 31.2443 139.002 31.2443C138.619 31.2443 138.273 31.3319 137.965 31.5071C137.662 31.6776 137.423 31.919 137.248 32.2315C137.073 32.5393 136.985 32.9015 136.985 33.3182V39H133.065ZM145.259 36.4148L145.288 31.7557H145.799L148.441 28.0909H152.844L148.413 33.8011H147.305L145.259 36.4148ZM141.737 39V24.4545H145.657V39H141.737ZM148.469 39L145.969 34.6818L148.526 31.8977L152.958 39H148.469ZM163.837 31.642H160.229C160.21 31.4195 160.132 31.2277 159.995 31.0668C159.857 30.9058 159.68 30.7827 159.462 30.6974C159.249 30.6075 159.012 30.5625 158.752 30.5625C158.416 30.5625 158.127 30.6241 157.885 30.7472C157.644 30.8703 157.525 31.0455 157.53 31.2727C157.525 31.4337 157.594 31.5829 157.736 31.7202C157.883 31.8575 158.165 31.964 158.581 32.0398L160.797 32.4375C161.915 32.6411 162.746 32.9844 163.29 33.4673C163.839 33.9455 164.116 34.5871 164.121 35.392C164.116 36.1686 163.884 36.8433 163.425 37.4162C162.971 37.9844 162.348 38.4247 161.557 38.7372C160.771 39.045 159.874 39.1989 158.865 39.1989C157.199 39.1989 155.894 38.858 154.952 38.1761C154.015 37.4943 153.491 36.5947 153.382 35.4773H157.275C157.327 35.8229 157.497 36.0904 157.786 36.2798C158.079 36.4645 158.449 36.5568 158.894 36.5568C159.254 36.5568 159.55 36.4953 159.782 36.3722C160.018 36.2491 160.139 36.0739 160.144 35.8466C160.139 35.6383 160.035 35.4725 159.831 35.3494C159.632 35.2263 159.32 35.1269 158.894 35.0511L156.962 34.7102C155.849 34.5161 155.016 34.1468 154.462 33.6023C153.908 33.0578 153.633 32.357 153.638 31.5C153.633 30.7424 153.832 30.1009 154.235 29.5753C154.642 29.045 155.222 28.6425 155.975 28.3679C156.732 28.0885 157.63 27.9489 158.667 27.9489C160.243 27.9489 161.486 28.2756 162.395 28.929C163.309 29.5824 163.79 30.4867 163.837 31.642Z" fill="#86092C"/>
<path d="M323.938 39V24.4545H330.216C331.295 24.4545 332.24 24.651 333.05 25.044C333.859 25.437 334.489 26.0028 334.939 26.7415C335.389 27.4801 335.614 28.3655 335.614 29.3977C335.614 30.4394 335.382 31.3177 334.918 32.0327C334.458 32.7476 333.812 33.2874 332.979 33.652C332.15 34.0166 331.182 34.1989 330.074 34.1989H326.324V31.1307H329.278C329.742 31.1307 330.138 31.0739 330.464 30.9602C330.796 30.8419 331.049 30.6548 331.224 30.3991C331.404 30.1435 331.494 29.8097 331.494 29.3977C331.494 28.9811 331.404 28.6425 331.224 28.3821C331.049 28.117 330.796 27.9228 330.464 27.7997C330.138 27.6719 329.742 27.608 329.278 27.608H327.886V39H323.938ZM332.46 32.3239L336.097 39H331.807L328.256 32.3239H332.46ZM342.347 39.1989C341.182 39.1989 340.178 38.9763 339.335 38.5312C338.497 38.0814 337.851 37.4375 337.396 36.5994C336.946 35.7566 336.722 34.7481 336.722 33.5739C336.722 32.447 336.949 31.4621 337.403 30.6193C337.858 29.7765 338.5 29.1207 339.328 28.652C340.157 28.1832 341.134 27.9489 342.261 27.9489C343.085 27.9489 343.831 28.0767 344.499 28.3324C345.166 28.5881 345.737 28.9598 346.21 29.4474C346.684 29.9304 347.048 30.5175 347.304 31.2088C347.56 31.9001 347.688 32.679 347.688 33.5455V34.4545H337.943V32.2955H344.08C344.075 31.983 343.994 31.7083 343.838 31.4716C343.687 31.2301 343.481 31.0431 343.22 30.9105C342.964 30.7732 342.673 30.7045 342.347 30.7045C342.029 30.7045 341.738 30.7732 341.473 30.9105C341.208 31.0431 340.995 31.2277 340.834 31.4645C340.678 31.7012 340.595 31.9782 340.585 32.2955V34.625C340.585 34.9754 340.659 35.2879 340.805 35.5625C340.952 35.8371 341.163 36.0526 341.438 36.2088C341.712 36.3651 342.044 36.4432 342.432 36.4432C342.702 36.4432 342.948 36.4053 343.17 36.3295C343.398 36.2538 343.592 36.1449 343.753 36.0028C343.914 35.8561 344.032 35.6809 344.108 35.4773H347.688C347.564 36.2348 347.273 36.893 346.814 37.4517C346.355 38.0057 345.746 38.4366 344.989 38.7443C344.236 39.0473 343.355 39.1989 342.347 39.1989ZM352.327 39.1705C351.631 39.1705 351.016 39.0568 350.48 38.8295C349.95 38.5975 349.533 38.2472 349.23 37.7784C348.927 37.3097 348.776 36.7131 348.776 35.9886C348.776 35.392 348.878 34.883 349.081 34.4616C349.285 34.0355 349.569 33.6875 349.934 33.4176C350.298 33.1477 350.722 32.9418 351.205 32.7997C351.693 32.6577 352.218 32.5653 352.782 32.5227C353.392 32.4754 353.882 32.4186 354.252 32.3523C354.626 32.2812 354.896 32.1842 355.061 32.0611C355.227 31.9332 355.31 31.7652 355.31 31.5568V31.5284C355.31 31.2443 355.201 31.0265 354.983 30.875C354.766 30.7235 354.486 30.6477 354.145 30.6477C353.771 30.6477 353.466 30.7306 353.229 30.8963C352.997 31.0573 352.857 31.3059 352.81 31.642H349.202C349.249 30.9792 349.46 30.3684 349.834 29.8097C350.213 29.2462 350.765 28.7964 351.489 28.4602C352.213 28.1193 353.118 27.9489 354.202 27.9489C354.983 27.9489 355.684 28.0412 356.304 28.2259C356.925 28.4058 357.453 28.6591 357.888 28.9858C358.324 29.3078 358.655 29.6866 358.882 30.1222C359.114 30.553 359.23 31.0218 359.23 31.5284V39H355.566V37.4659H355.48C355.263 37.8731 354.998 38.2022 354.685 38.4531C354.377 38.7041 354.025 38.8864 353.627 39C353.234 39.1136 352.801 39.1705 352.327 39.1705ZM353.605 36.6989C353.904 36.6989 354.183 36.6373 354.444 36.5142C354.709 36.3911 354.924 36.2135 355.09 35.9815C355.256 35.7495 355.338 35.4678 355.338 35.1364V34.2273C355.234 34.2699 355.123 34.3101 355.005 34.348C354.891 34.3859 354.768 34.4214 354.635 34.4545C354.507 34.4877 354.37 34.5185 354.223 34.5469C354.081 34.5753 353.932 34.6013 353.776 34.625C353.473 34.6723 353.224 34.7505 353.03 34.8594C352.841 34.9635 352.699 35.0938 352.604 35.25C352.514 35.4015 352.469 35.572 352.469 35.7614C352.469 36.0644 352.576 36.2964 352.789 36.4574C353.002 36.6184 353.274 36.6989 353.605 36.6989ZM366.359 39.1989C365.176 39.1989 364.162 38.9645 363.32 38.4957C362.477 38.0223 361.83 37.3641 361.381 36.5213C360.931 35.6738 360.706 34.6913 360.706 33.5739C360.706 32.4564 360.931 31.4763 361.381 30.6335C361.83 29.786 362.477 29.1278 363.32 28.6591C364.162 28.1856 365.176 27.9489 366.359 27.9489C367.429 27.9489 368.355 28.143 369.136 28.5312C369.922 28.9148 370.531 29.4593 370.962 30.1648C371.393 30.8655 371.61 31.6894 371.615 32.6364H367.979C367.927 32.0634 367.761 31.6278 367.482 31.3295C367.207 31.0265 366.852 30.875 366.416 30.875C366.075 30.875 365.777 30.9744 365.521 31.1733C365.266 31.3674 365.067 31.6634 364.925 32.0611C364.783 32.4541 364.712 32.9489 364.712 33.5455C364.712 34.142 364.783 34.6392 364.925 35.0369C365.067 35.4299 365.266 35.7259 365.521 35.9247C365.777 36.1188 366.075 36.2159 366.416 36.2159C366.705 36.2159 366.961 36.1496 367.183 36.017C367.406 35.8797 367.586 35.6809 367.723 35.4205C367.865 35.1553 367.95 34.8333 367.979 34.4545H371.615C371.601 35.4157 371.381 36.2538 370.955 36.9688C370.528 37.679 369.925 38.2282 369.143 38.6165C368.367 39.0047 367.439 39.1989 366.359 39.1989ZM379.738 28.0909V30.9318H372.551V28.0909H379.738ZM373.943 25.4773H377.863V35.4915C377.863 35.643 377.889 35.7708 377.941 35.875C377.993 35.9744 378.074 36.0502 378.183 36.1023C378.292 36.1496 378.431 36.1733 378.602 36.1733C378.72 36.1733 378.858 36.1591 379.014 36.1307C379.175 36.1023 379.293 36.0786 379.369 36.0597L379.937 38.8153C379.762 38.8674 379.511 38.9313 379.184 39.0071C378.862 39.0829 378.479 39.1326 378.034 39.1562C377.134 39.2036 376.379 39.1113 375.768 38.8793C375.157 38.6425 374.698 38.2708 374.39 37.7642C374.083 37.2576 373.933 36.6231 373.943 35.8608V25.4773ZM390.294 19.767V43.6875H386.459V19.767H390.294ZM409.941 24.4545V39H406.645L401.39 31.358H401.304V39H397.355V24.4545H400.708L405.878 32.0682H405.992V24.4545H409.941ZM417.093 39.1989C415.928 39.1989 414.924 38.9763 414.081 38.5312C413.243 38.0814 412.597 37.4375 412.142 36.5994C411.693 35.7566 411.468 34.7481 411.468 33.5739C411.468 32.447 411.695 31.4621 412.15 30.6193C412.604 29.7765 413.246 29.1207 414.074 28.652C414.903 28.1832 415.881 27.9489 417.007 27.9489C417.831 27.9489 418.577 28.0767 419.245 28.3324C419.912 28.5881 420.483 28.9598 420.956 29.4474C421.43 29.9304 421.794 30.5175 422.05 31.2088C422.306 31.9001 422.434 32.679 422.434 33.5455V34.4545H412.689V32.2955H418.826C418.821 31.983 418.74 31.7083 418.584 31.4716C418.433 31.2301 418.227 31.0431 417.966 30.9105C417.711 30.7732 417.419 30.7045 417.093 30.7045C416.775 30.7045 416.484 30.7732 416.219 30.9105C415.954 31.0431 415.741 31.2277 415.58 31.4645C415.424 31.7012 415.341 31.9782 415.331 32.2955V34.625C415.331 34.9754 415.405 35.2879 415.551 35.5625C415.698 35.8371 415.909 36.0526 416.184 36.2088C416.458 36.3651 416.79 36.4432 417.178 36.4432C417.448 36.4432 417.694 36.4053 417.917 36.3295C418.144 36.2538 418.338 36.1449 418.499 36.0028C418.66 35.8561 418.778 35.6809 418.854 35.4773H422.434C422.31 36.2348 422.019 36.893 421.56 37.4517C421.101 38.0057 420.492 38.4366 419.735 38.7443C418.982 39.0473 418.101 39.1989 417.093 39.1989ZM427.297 28.0909L428.888 31.4716L430.564 28.0909H434.456L431.53 33.5455L434.598 39H430.734L428.888 35.5341L427.098 39H423.178L426.274 33.5455L423.376 28.0909H427.297ZM442.355 28.0909V30.9318H435.168V28.0909H442.355ZM436.56 25.4773H440.48V35.4915C440.48 35.643 440.507 35.7708 440.559 35.875C440.611 35.9744 440.691 36.0502 440.8 36.1023C440.909 36.1496 441.049 36.1733 441.219 36.1733C441.337 36.1733 441.475 36.1591 441.631 36.1307C441.792 36.1023 441.91 36.0786 441.986 36.0597L442.554 38.8153C442.379 38.8674 442.128 38.9313 441.801 39.0071C441.48 39.0829 441.096 39.1326 440.651 39.1562C439.751 39.2036 438.996 39.1113 438.385 38.8793C437.775 38.6425 437.315 38.2708 437.007 37.7642C436.7 37.2576 436.551 36.6231 436.56 35.8608V25.4773ZM446.086 39.2273C445.537 39.2273 445.066 39.0355 444.673 38.652C444.284 38.2637 444.093 37.7926 444.097 37.2386C444.093 36.6989 444.284 36.2372 444.673 35.8537C445.066 35.4702 445.537 35.2784 446.086 35.2784C446.607 35.2784 447.066 35.4702 447.464 35.8537C447.866 36.2372 448.07 36.6989 448.075 37.2386C448.07 37.608 447.973 37.9441 447.783 38.2472C447.599 38.5455 447.357 38.7846 447.059 38.9645C446.761 39.1397 446.436 39.2273 446.086 39.2273ZM450.205 28.0909H454.126V39.3693C454.126 40.3258 453.924 41.0739 453.522 41.6136C453.124 42.1534 452.566 42.5346 451.846 42.7571C451.126 42.9796 450.286 43.0909 449.325 43.0909C449.183 43.0909 449.052 43.0885 448.934 43.0838C448.811 43.0791 448.676 43.072 448.529 43.0625V40.1648C448.624 40.1742 448.707 40.1813 448.778 40.1861C448.844 40.1908 448.913 40.1932 448.984 40.1932C449.452 40.1932 449.772 40.1198 449.942 39.973C450.118 39.831 450.205 39.6013 450.205 39.2841V28.0909ZM452.165 26.9545C451.635 26.9545 451.181 26.7794 450.802 26.429C450.423 26.0786 450.234 25.6572 450.234 25.1648C450.234 24.6723 450.423 24.2509 450.802 23.9006C451.181 23.5502 451.635 23.375 452.165 23.375C452.701 23.375 453.155 23.5502 453.529 23.9006C453.908 24.2509 454.097 24.6723 454.097 25.1648C454.097 25.6572 453.908 26.0786 453.529 26.429C453.155 26.7794 452.701 26.9545 452.165 26.9545ZM466.095 31.642H462.487C462.468 31.4195 462.39 31.2277 462.252 31.0668C462.115 30.9058 461.938 30.7827 461.72 30.6974C461.507 30.6075 461.27 30.5625 461.01 30.5625C460.673 30.5625 460.385 30.6241 460.143 30.7472C459.902 30.8703 459.783 31.0455 459.788 31.2727C459.783 31.4337 459.852 31.5829 459.994 31.7202C460.141 31.8575 460.422 31.964 460.839 32.0398L463.055 32.4375C464.172 32.6411 465.003 32.9844 465.548 33.4673C466.097 33.9455 466.374 34.5871 466.379 35.392C466.374 36.1686 466.142 36.8433 465.683 37.4162C465.228 37.9844 464.606 38.4247 463.815 38.7372C463.029 39.045 462.132 39.1989 461.123 39.1989C459.457 39.1989 458.152 38.858 457.21 38.1761C456.272 37.4943 455.749 36.5947 455.64 35.4773H459.532C459.584 35.8229 459.755 36.0904 460.044 36.2798C460.337 36.4645 460.707 36.5568 461.152 36.5568C461.511 36.5568 461.807 36.4953 462.039 36.3722C462.276 36.2491 462.397 36.0739 462.402 35.8466C462.397 35.6383 462.293 35.4725 462.089 35.3494C461.89 35.2263 461.578 35.1269 461.152 35.0511L459.22 34.7102C458.107 34.5161 457.274 34.1468 456.72 33.6023C456.166 33.0578 455.891 32.357 455.896 31.5C455.891 30.7424 456.09 30.1009 456.493 29.5753C456.9 29.045 457.48 28.6425 458.233 28.3679C458.99 28.0885 459.887 27.9489 460.924 27.9489C462.501 27.9489 463.744 28.2756 464.653 28.929C465.567 29.5824 466.047 30.4867 466.095 31.642Z" fill="#86092C"/>
<path d="M40.9375 84V69.4545H44.8864V80.8182H50.767V84H40.9375ZM55.4599 84.1705C54.7638 84.1705 54.1483 84.0568 53.6133 83.8295C53.083 83.5975 52.6663 83.2472 52.3633 82.7784C52.0603 82.3097 51.9087 81.7131 51.9087 80.9886C51.9087 80.392 52.0105 79.883 52.2141 79.4616C52.4177 79.0355 52.7018 78.6875 53.0664 78.4176C53.431 78.1477 53.8548 77.9418 54.3377 77.7997C54.8254 77.6577 55.351 77.5653 55.9144 77.5227C56.5252 77.4754 57.0153 77.4186 57.3846 77.3523C57.7586 77.2812 58.0285 77.1842 58.1942 77.0611C58.36 76.9332 58.4428 76.7652 58.4428 76.5568V76.5284C58.4428 76.2443 58.3339 76.0265 58.1161 75.875C57.8983 75.7235 57.619 75.6477 57.2781 75.6477C56.904 75.6477 56.5986 75.7306 56.3619 75.8963C56.1299 76.0573 55.9902 76.3059 55.9428 76.642H52.3349C52.3822 75.9792 52.5929 75.3684 52.967 74.8097C53.3458 74.2462 53.8974 73.7964 54.6218 73.4602C55.3462 73.1193 56.2506 72.9489 57.3349 72.9489C58.1161 72.9489 58.8169 73.0412 59.4371 73.2259C60.0574 73.4058 60.5853 73.6591 61.021 73.9858C61.4566 74.3078 61.788 74.6866 62.0153 75.1222C62.2473 75.553 62.3633 76.0218 62.3633 76.5284V84H58.6985V82.4659H58.6133C58.3955 82.8731 58.1303 83.2022 57.8178 83.4531C57.5101 83.7041 57.1573 83.8864 56.7596 84C56.3666 84.1136 55.9334 84.1705 55.4599 84.1705ZM56.7383 81.6989C57.0366 81.6989 57.3159 81.6373 57.5763 81.5142C57.8415 81.3911 58.0569 81.2135 58.2227 80.9815C58.3884 80.7495 58.4712 80.4678 58.4712 80.1364V79.2273C58.3671 79.2699 58.2558 79.3101 58.1374 79.348C58.0238 79.3859 57.9007 79.4214 57.7681 79.4545C57.6403 79.4877 57.503 79.5185 57.3562 79.5469C57.2141 79.5753 57.065 79.6013 56.9087 79.625C56.6057 79.6723 56.3571 79.7505 56.163 79.8594C55.9736 79.9635 55.8316 80.0938 55.7369 80.25C55.6469 80.4015 55.6019 80.572 55.6019 80.7614C55.6019 81.0644 55.7085 81.2964 55.9215 81.4574C56.1346 81.6184 56.4068 81.6989 56.7383 81.6989ZM68.157 77.8636V84H64.2365V73.0909H67.9581V75.1648H68.0717C68.3085 74.4735 68.7251 73.9313 69.3217 73.5384C69.9231 73.1454 70.6238 72.9489 71.424 72.9489C72.1958 72.9489 72.8658 73.1264 73.4339 73.4815C74.0069 73.8319 74.4496 74.3149 74.7621 74.9304C75.0793 75.5459 75.2356 76.2491 75.2308 77.0398V84H71.3104V77.8636C71.3151 77.3239 71.1778 76.9001 70.8984 76.5923C70.6238 76.2846 70.2403 76.1307 69.7479 76.1307C69.4259 76.1307 69.1442 76.2017 68.9027 76.3438C68.666 76.4811 68.4837 76.6799 68.3558 76.9403C68.228 77.196 68.1617 77.5038 68.157 77.8636ZM82.4219 88.3182C81.3281 88.3182 80.3906 88.1619 79.6094 87.8494C78.8329 87.5417 78.2292 87.1155 77.7983 86.571C77.3722 86.0313 77.133 85.411 77.081 84.7102H80.8594C80.8973 84.9422 80.992 85.1293 81.1435 85.2713C81.295 85.4134 81.4891 85.5152 81.7259 85.5767C81.9673 85.643 82.2372 85.6761 82.5355 85.6761C83.0421 85.6761 83.4612 85.553 83.7926 85.3068C84.1288 85.0606 84.2969 84.6155 84.2969 83.9716V82.125H84.1832C84.0412 82.4943 83.8234 82.8092 83.5298 83.0696C83.2363 83.3253 82.8835 83.5218 82.4716 83.6591C82.0597 83.7917 81.6075 83.858 81.1151 83.858C80.3385 83.858 79.6236 83.678 78.9702 83.3182C78.3215 82.9583 77.8007 82.3878 77.4077 81.6065C77.0194 80.8253 76.8253 79.8049 76.8253 78.5455C76.8253 77.2292 77.0289 76.1591 77.4361 75.3352C77.848 74.5114 78.3783 73.9077 79.027 73.5241C79.6804 73.1406 80.367 72.9489 81.0866 72.9489C81.6264 72.9489 82.0999 73.0436 82.5071 73.233C82.9143 73.4176 83.2552 73.6662 83.5298 73.9787C83.8045 74.2865 84.0128 74.625 84.1548 74.9943H84.2401V73.0909H88.1605V83.9716C88.1605 84.8949 87.9214 85.6785 87.4432 86.3224C86.9697 86.9711 86.3021 87.4659 85.4403 87.8068C84.5786 88.1477 83.5724 88.3182 82.4219 88.3182ZM82.5639 81.0739C82.9238 81.0739 83.2315 80.9744 83.4872 80.7756C83.7476 80.572 83.9465 80.2831 84.0838 79.9091C84.2259 79.5303 84.2969 79.0758 84.2969 78.5455C84.2969 78.0057 84.2259 77.544 84.0838 77.1605C83.9465 76.7723 83.7476 76.4763 83.4872 76.2727C83.2315 76.0644 82.9238 75.9602 82.5639 75.9602C82.2041 75.9602 81.8963 76.0644 81.6406 76.2727C81.3897 76.4763 81.1955 76.7723 81.0582 77.1605C80.9257 77.544 80.8594 78.0057 80.8594 78.5455C80.8594 79.0852 80.9257 79.5445 81.0582 79.9233C81.1955 80.2973 81.3897 80.5838 81.6406 80.7827C81.8963 80.9768 82.2041 81.0739 82.5639 81.0739ZM97.2283 79.2273V73.0909H101.149V84H97.4272V81.9261H97.3136C97.0768 82.6222 96.6625 83.1667 96.0707 83.5597C95.4788 83.9479 94.7757 84.142 93.9613 84.142C93.199 84.142 92.5314 83.9669 91.9585 83.6165C91.3903 83.2661 90.9476 82.7831 90.6303 82.1676C90.3178 81.5521 90.1592 80.8466 90.1545 80.0511V73.0909H94.0749V79.2273C94.0797 79.767 94.217 80.1908 94.4869 80.4986C94.7615 80.8063 95.145 80.9602 95.6374 80.9602C95.9641 80.9602 96.2459 80.8916 96.4826 80.7543C96.7241 80.6122 96.9087 80.4134 97.0366 80.1577C97.1692 79.8973 97.2331 79.5871 97.2283 79.2273ZM106.183 84.1705C105.487 84.1705 104.871 84.0568 104.336 83.8295C103.806 83.5975 103.389 83.2472 103.086 82.7784C102.783 82.3097 102.631 81.7131 102.631 80.9886C102.631 80.392 102.733 79.883 102.937 79.4616C103.14 79.0355 103.424 78.6875 103.789 78.4176C104.154 78.1477 104.577 77.9418 105.06 77.7997C105.548 77.6577 106.074 77.5653 106.637 77.5227C107.248 77.4754 107.738 77.4186 108.107 77.3523C108.481 77.2812 108.751 77.1842 108.917 77.0611C109.083 76.9332 109.165 76.7652 109.165 76.5568V76.5284C109.165 76.2443 109.057 76.0265 108.839 75.875C108.621 75.7235 108.342 75.6477 108.001 75.6477C107.627 75.6477 107.321 75.7306 107.085 75.8963C106.853 76.0573 106.713 76.3059 106.665 76.642H103.058C103.105 75.9792 103.316 75.3684 103.69 74.8097C104.068 74.2462 104.62 73.7964 105.344 73.4602C106.069 73.1193 106.973 72.9489 108.058 72.9489C108.839 72.9489 109.54 73.0412 110.16 73.2259C110.78 73.4058 111.308 73.6591 111.744 73.9858C112.179 74.3078 112.511 74.6866 112.738 75.1222C112.97 75.553 113.086 76.0218 113.086 76.5284V84H109.421V82.4659H109.336C109.118 82.8731 108.853 83.2022 108.54 83.4531C108.233 83.7041 107.88 83.8864 107.482 84C107.089 84.1136 106.656 84.1705 106.183 84.1705ZM107.461 81.6989C107.759 81.6989 108.039 81.6373 108.299 81.5142C108.564 81.3911 108.78 81.2135 108.945 80.9815C109.111 80.7495 109.194 80.4678 109.194 80.1364V79.2273C109.09 79.2699 108.978 79.3101 108.86 79.348C108.746 79.3859 108.623 79.4214 108.491 79.4545C108.363 79.4877 108.226 79.5185 108.079 79.5469C107.937 79.5753 107.788 79.6013 107.631 79.625C107.328 79.6723 107.08 79.7505 106.886 79.8594C106.696 79.9635 106.554 80.0938 106.46 80.25C106.37 80.4015 106.325 80.572 106.325 80.7614C106.325 81.0644 106.431 81.2964 106.644 81.4574C106.857 81.6184 107.129 81.6989 107.461 81.6989ZM120.215 88.3182C119.121 88.3182 118.184 88.1619 117.402 87.8494C116.626 87.5417 116.022 87.1155 115.591 86.571C115.165 86.0313 114.926 85.411 114.874 84.7102H118.652C118.69 84.9422 118.785 85.1293 118.936 85.2713C119.088 85.4134 119.282 85.5152 119.519 85.5767C119.76 85.643 120.03 85.6761 120.328 85.6761C120.835 85.6761 121.254 85.553 121.586 85.3068C121.922 85.0606 122.09 84.6155 122.09 83.9716V82.125H121.976C121.834 82.4943 121.616 82.8092 121.323 83.0696C121.029 83.3253 120.676 83.5218 120.265 83.6591C119.853 83.7917 119.4 83.858 118.908 83.858C118.132 83.858 117.417 83.678 116.763 83.3182C116.114 82.9583 115.594 82.3878 115.201 81.6065C114.812 80.8253 114.618 79.8049 114.618 78.5455C114.618 77.2292 114.822 76.1591 115.229 75.3352C115.641 74.5114 116.171 73.9077 116.82 73.5241C117.473 73.1406 118.16 72.9489 118.88 72.9489C119.419 72.9489 119.893 73.0436 120.3 73.233C120.707 73.4176 121.048 73.6662 121.323 73.9787C121.597 74.2865 121.806 74.625 121.948 74.9943H122.033V73.0909H125.953V83.9716C125.953 84.8949 125.714 85.6785 125.236 86.3224C124.763 86.9711 124.095 87.4659 123.233 87.8068C122.372 88.1477 121.365 88.3182 120.215 88.3182ZM120.357 81.0739C120.717 81.0739 121.025 80.9744 121.28 80.7756C121.541 80.572 121.739 80.2831 121.877 79.9091C122.019 79.5303 122.09 79.0758 122.09 78.5455C122.09 78.0057 122.019 77.544 121.877 77.1605C121.739 76.7723 121.541 76.4763 121.28 76.2727C121.025 76.0644 120.717 75.9602 120.357 75.9602C119.997 75.9602 119.689 76.0644 119.434 76.2727C119.183 76.4763 118.989 76.7723 118.851 77.1605C118.719 77.544 118.652 78.0057 118.652 78.5455C118.652 79.0852 118.719 79.5445 118.851 79.9233C118.989 80.2973 119.183 80.5838 119.434 80.7827C119.689 80.9768 119.997 81.0739 120.357 81.0739ZM133.175 84.1989C132.01 84.1989 131.006 83.9763 130.163 83.5312C129.325 83.0814 128.679 82.4375 128.224 81.5994C127.775 80.7566 127.55 79.7481 127.55 78.5739C127.55 77.447 127.777 76.4621 128.232 75.6193C128.686 74.7765 129.328 74.1207 130.156 73.652C130.985 73.1832 131.963 72.9489 133.089 72.9489C133.913 72.9489 134.659 73.0767 135.327 73.3324C135.994 73.5881 136.565 73.9598 137.038 74.4474C137.512 74.9304 137.876 75.5175 138.132 76.2088C138.388 76.9001 138.516 77.679 138.516 78.5455V79.4545H128.771V77.2955H134.908C134.903 76.983 134.822 76.7083 134.666 76.4716C134.515 76.2301 134.309 76.0431 134.048 75.9105C133.793 75.7732 133.501 75.7045 133.175 75.7045C132.857 75.7045 132.566 75.7732 132.301 75.9105C132.036 76.0431 131.823 76.2277 131.662 76.4645C131.506 76.7012 131.423 76.9782 131.413 77.2955V79.625C131.413 79.9754 131.487 80.2879 131.634 80.5625C131.78 80.8371 131.991 81.0526 132.266 81.2088C132.54 81.3651 132.872 81.4432 133.26 81.4432C133.53 81.4432 133.776 81.4053 133.999 81.3295C134.226 81.2538 134.42 81.1449 134.581 81.0028C134.742 80.8561 134.86 80.6809 134.936 80.4773H138.516C138.393 81.2348 138.101 81.893 137.642 82.4517C137.183 83.0057 136.574 83.4366 135.817 83.7443C135.064 84.0473 134.183 84.1989 133.175 84.1989ZM150.087 76.642H146.479C146.46 76.4195 146.382 76.2277 146.245 76.0668C146.107 75.9058 145.93 75.7827 145.712 75.6974C145.499 75.6075 145.262 75.5625 145.002 75.5625C144.666 75.5625 144.377 75.6241 144.135 75.7472C143.894 75.8703 143.775 76.0455 143.78 76.2727C143.775 76.4337 143.844 76.5829 143.986 76.7202C144.133 76.8575 144.415 76.964 144.831 77.0398L147.047 77.4375C148.165 77.6411 148.996 77.9844 149.54 78.4673C150.089 78.9455 150.366 79.5871 150.371 80.392C150.366 81.1686 150.134 81.8433 149.675 82.4162C149.221 82.9844 148.598 83.4247 147.807 83.7372C147.021 84.045 146.124 84.1989 145.115 84.1989C143.449 84.1989 142.144 83.858 141.202 83.1761C140.265 82.4943 139.741 81.5947 139.632 80.4773H143.525C143.577 80.8229 143.747 81.0904 144.036 81.2798C144.329 81.4645 144.699 81.5568 145.144 81.5568C145.504 81.5568 145.8 81.4953 146.032 81.3722C146.268 81.2491 146.389 81.0739 146.394 80.8466C146.389 80.6383 146.285 80.4725 146.081 80.3494C145.882 80.2263 145.57 80.1269 145.144 80.0511L143.212 79.7102C142.099 79.5161 141.266 79.1468 140.712 78.6023C140.158 78.0578 139.883 77.357 139.888 76.5C139.883 75.7424 140.082 75.1009 140.485 74.5753C140.892 74.045 141.472 73.6425 142.225 73.3679C142.982 73.0885 143.88 72.9489 144.917 72.9489C146.493 72.9489 147.736 73.2756 148.645 73.929C149.559 74.5824 150.04 75.4867 150.087 76.642Z" fill="#86092C"/>
<path d="M247.932 69.4545H251.824V79.4261C251.819 80.3731 251.58 81.2064 251.107 81.9261C250.638 82.6411 249.989 83.1998 249.161 83.6023C248.337 84 247.387 84.1989 246.312 84.1989C245.38 84.1989 244.527 84.0379 243.756 83.7159C242.984 83.3892 242.368 82.8778 241.909 82.1818C241.45 81.4811 241.223 80.572 241.227 79.4545H245.176C245.19 79.8191 245.252 80.1269 245.361 80.3778C245.474 80.6288 245.631 80.8182 245.83 80.946C246.033 81.0691 246.279 81.1307 246.568 81.1307C246.862 81.1307 247.108 81.0668 247.307 80.9389C247.51 80.8111 247.664 80.6217 247.768 80.3707C247.873 80.1151 247.927 79.8002 247.932 79.4261V69.4545ZM256.792 84.1705C256.096 84.1705 255.48 84.0568 254.945 83.8295C254.415 83.5975 253.998 83.2472 253.695 82.7784C253.392 82.3097 253.241 81.7131 253.241 80.9886C253.241 80.392 253.343 79.883 253.546 79.4616C253.75 79.0355 254.034 78.6875 254.398 78.4176C254.763 78.1477 255.187 77.9418 255.67 77.7997C256.157 77.6577 256.683 77.5653 257.246 77.5227C257.857 77.4754 258.347 77.4186 258.717 77.3523C259.091 77.2812 259.361 77.1842 259.526 77.0611C259.692 76.9332 259.775 76.7652 259.775 76.5568V76.5284C259.775 76.2443 259.666 76.0265 259.448 75.875C259.23 75.7235 258.951 75.6477 258.61 75.6477C258.236 75.6477 257.931 75.7306 257.694 75.8963C257.462 76.0573 257.322 76.3059 257.275 76.642H253.667C253.714 75.9792 253.925 75.3684 254.299 74.8097C254.678 74.2462 255.229 73.7964 255.954 73.4602C256.678 73.1193 257.583 72.9489 258.667 72.9489C259.448 72.9489 260.149 73.0412 260.769 73.2259C261.389 73.4058 261.917 73.6591 262.353 73.9858C262.789 74.3078 263.12 74.6866 263.347 75.1222C263.579 75.553 263.695 76.0218 263.695 76.5284V84H260.031V82.4659H259.945C259.728 82.8731 259.462 83.2022 259.15 83.4531C258.842 83.7041 258.489 83.8864 258.092 84C257.699 84.1136 257.265 84.1705 256.792 84.1705ZM258.07 81.6989C258.369 81.6989 258.648 81.6373 258.908 81.5142C259.174 81.3911 259.389 81.2135 259.555 80.9815C259.72 80.7495 259.803 80.4678 259.803 80.1364V79.2273C259.699 79.2699 259.588 79.3101 259.469 79.348C259.356 79.3859 259.233 79.4214 259.1 79.4545C258.972 79.4877 258.835 79.5185 258.688 79.5469C258.546 79.5753 258.397 79.6013 258.241 79.625C257.938 79.6723 257.689 79.7505 257.495 79.8594C257.306 79.9635 257.164 80.0938 257.069 80.25C256.979 80.4015 256.934 80.572 256.934 80.7614C256.934 81.0644 257.04 81.2964 257.254 81.4574C257.467 81.6184 257.739 81.6989 258.07 81.6989ZM276.172 73.0909L272.507 84H267.962L264.297 73.0909H268.417L270.178 80.3068H270.292L272.053 73.0909H276.172ZM280.054 84.1705C279.358 84.1705 278.742 84.0568 278.207 83.8295C277.677 83.5975 277.26 83.2472 276.957 82.7784C276.654 82.3097 276.502 81.7131 276.502 80.9886C276.502 80.392 276.604 79.883 276.808 79.4616C277.011 79.0355 277.296 78.6875 277.66 78.4176C278.025 78.1477 278.449 77.9418 278.931 77.7997C279.419 77.6577 279.945 77.5653 280.508 77.5227C281.119 77.4754 281.609 77.4186 281.978 77.3523C282.352 77.2812 282.622 77.1842 282.788 77.0611C282.954 76.9332 283.037 76.7652 283.037 76.5568V76.5284C283.037 76.2443 282.928 76.0265 282.71 75.875C282.492 75.7235 282.213 75.6477 281.872 75.6477C281.498 75.6477 281.192 75.7306 280.956 75.8963C280.724 76.0573 280.584 76.3059 280.537 76.642H276.929C276.976 75.9792 277.187 75.3684 277.561 74.8097C277.94 74.2462 278.491 73.7964 279.216 73.4602C279.94 73.1193 280.844 72.9489 281.929 72.9489C282.71 72.9489 283.411 73.0412 284.031 73.2259C284.651 73.4058 285.179 73.6591 285.615 73.9858C286.05 74.3078 286.382 74.6866 286.609 75.1222C286.841 75.553 286.957 76.0218 286.957 76.5284V84H283.292V82.4659H283.207C282.989 82.8731 282.724 83.2022 282.412 83.4531C282.104 83.7041 281.751 83.8864 281.353 84C280.96 84.1136 280.527 84.1705 280.054 84.1705ZM281.332 81.6989C281.63 81.6989 281.91 81.6373 282.17 81.5142C282.435 81.3911 282.651 81.2135 282.816 80.9815C282.982 80.7495 283.065 80.4678 283.065 80.1364V79.2273C282.961 79.2699 282.85 79.3101 282.731 79.348C282.618 79.3859 282.494 79.4214 282.362 79.4545C282.234 79.4877 282.097 79.5185 281.95 79.5469C281.808 79.5753 281.659 79.6013 281.502 79.625C281.199 79.6723 280.951 79.7505 280.757 79.8594C280.567 79.9635 280.425 80.0938 280.331 80.25C280.241 80.4015 280.196 80.572 280.196 80.7614C280.196 81.0644 280.302 81.2964 280.515 81.4574C280.728 81.6184 281.001 81.6989 281.332 81.6989ZM296.614 74C296.576 73.5265 296.399 73.1572 296.082 72.892C295.769 72.6269 295.293 72.4943 294.654 72.4943C294.247 72.4943 293.913 72.544 293.653 72.6435C293.397 72.7382 293.208 72.8684 293.085 73.0341C292.961 73.1998 292.897 73.3892 292.893 73.6023C292.883 73.7775 292.914 73.9361 292.985 74.0781C293.061 74.2154 293.179 74.3409 293.34 74.4545C293.501 74.5634 293.707 74.6629 293.958 74.7528C294.209 74.8428 294.507 74.9233 294.853 74.9943L296.046 75.25C296.851 75.4205 297.54 75.6454 298.113 75.9247C298.686 76.2041 299.155 76.5331 299.519 76.9119C299.884 77.286 300.151 77.7074 300.322 78.1761C300.497 78.6449 300.587 79.1562 300.592 79.7102C300.587 80.6667 300.348 81.4763 299.874 82.1392C299.401 82.8021 298.724 83.3063 297.843 83.652C296.967 83.9976 295.914 84.1705 294.683 84.1705C293.418 84.1705 292.315 83.9834 291.373 83.6094C290.435 83.2353 289.706 82.66 289.185 81.8835C288.669 81.1023 288.409 80.1032 288.404 78.8864H292.154C292.178 79.3314 292.289 79.7055 292.488 80.0085C292.687 80.3116 292.966 80.5412 293.326 80.6974C293.691 80.8537 294.124 80.9318 294.626 80.9318C295.047 80.9318 295.4 80.8797 295.684 80.7756C295.968 80.6714 296.183 80.527 296.33 80.3423C296.477 80.1577 296.553 79.947 296.558 79.7102C296.553 79.4877 296.479 79.2936 296.337 79.1278C296.2 78.9574 295.973 78.8059 295.656 78.6733C295.338 78.536 294.91 78.4081 294.37 78.2898L292.921 77.9773C291.633 77.6979 290.618 77.2315 289.874 76.5781C289.136 75.92 288.769 75.0227 288.773 73.8864C288.769 72.9631 289.015 72.1558 289.512 71.4645C290.014 70.7685 290.708 70.2263 291.593 69.8381C292.483 69.4498 293.504 69.2557 294.654 69.2557C295.828 69.2557 296.844 69.4522 297.701 69.8452C298.558 70.2382 299.219 70.7921 299.683 71.5071C300.151 72.2173 300.388 73.0483 300.393 74H296.614ZM307.406 84.1989C306.223 84.1989 305.209 83.9645 304.366 83.4957C303.524 83.0223 302.877 82.3641 302.428 81.5213C301.978 80.6738 301.753 79.6913 301.753 78.5739C301.753 77.4564 301.978 76.4763 302.428 75.6335C302.877 74.786 303.524 74.1278 304.366 73.6591C305.209 73.1856 306.223 72.9489 307.406 72.9489C308.476 72.9489 309.402 73.143 310.183 73.5312C310.969 73.9148 311.578 74.4593 312.009 75.1648C312.439 75.8655 312.657 76.6894 312.662 77.6364H309.026C308.973 77.0634 308.808 76.6278 308.528 76.3295C308.254 76.0265 307.899 75.875 307.463 75.875C307.122 75.875 306.824 75.9744 306.568 76.1733C306.313 76.3674 306.114 76.6634 305.972 77.0611C305.83 77.4541 305.759 77.9489 305.759 78.5455C305.759 79.142 305.83 79.6392 305.972 80.0369C306.114 80.4299 306.313 80.7259 306.568 80.9247C306.824 81.1188 307.122 81.2159 307.463 81.2159C307.752 81.2159 308.008 81.1496 308.23 81.017C308.453 80.8797 308.633 80.6809 308.77 80.4205C308.912 80.1553 308.997 79.8333 309.026 79.4545H312.662C312.648 80.4157 312.428 81.2538 312.001 81.9688C311.575 82.679 310.972 83.2282 310.19 83.6165C309.414 84.0047 308.486 84.1989 307.406 84.1989ZM314.279 84V73.0909H318.086V75.1648H318.2C318.399 74.3977 318.714 73.8366 319.145 73.4815C319.58 73.1264 320.089 72.9489 320.672 72.9489C320.842 72.9489 321.01 72.9631 321.176 72.9915C321.346 73.0152 321.51 73.0507 321.666 73.098V76.4432C321.472 76.3769 321.233 76.3272 320.949 76.294C320.664 76.2609 320.421 76.2443 320.217 76.2443C319.833 76.2443 319.488 76.3319 319.18 76.5071C318.877 76.6776 318.638 76.919 318.463 77.2315C318.288 77.5393 318.2 77.9015 318.2 78.3182V84H314.279ZM322.951 84V73.0909H326.872V84H322.951ZM324.912 71.9545C324.381 71.9545 323.927 71.7794 323.548 71.429C323.169 71.0786 322.98 70.6572 322.98 70.1648C322.98 69.6723 323.169 69.2509 323.548 68.9006C323.927 68.5502 324.381 68.375 324.912 68.375C325.447 68.375 325.901 68.5502 326.275 68.9006C326.654 69.2509 326.843 69.6723 326.843 70.1648C326.843 70.6572 326.654 71.0786 326.275 71.429C325.901 71.7794 325.447 71.9545 324.912 71.9545ZM328.869 88.0909V73.0909H332.761V74.9943H332.847C332.989 74.625 333.197 74.2865 333.472 73.9787C333.746 73.6662 334.087 73.4176 334.494 73.233C334.902 73.0436 335.375 72.9489 335.915 72.9489C336.634 72.9489 337.319 73.1406 337.967 73.5241C338.621 73.9077 339.151 74.5114 339.558 75.3352C339.97 76.1591 340.176 77.2292 340.176 78.5455C340.176 79.8049 339.98 80.849 339.587 81.6776C339.198 82.5062 338.678 83.1241 338.024 83.5312C337.375 83.9384 336.663 84.142 335.886 84.142C335.375 84.142 334.918 84.0592 334.516 83.8935C334.118 83.723 333.777 83.4934 333.493 83.2045C333.214 82.911 332.998 82.5795 332.847 82.2102H332.79V88.0909H328.869ZM332.705 78.5455C332.705 79.0758 332.773 79.535 332.911 79.9233C333.053 80.3068 333.251 80.6051 333.507 80.8182C333.768 81.0265 334.078 81.1307 334.438 81.1307C334.797 81.1307 335.103 81.0289 335.354 80.8253C335.609 80.617 335.804 80.321 335.936 79.9375C336.073 79.5492 336.142 79.0852 336.142 78.5455C336.142 78.0057 336.073 77.544 335.936 77.1605C335.804 76.7723 335.609 76.4763 335.354 76.2727C335.103 76.0644 334.797 75.9602 334.438 75.9602C334.078 75.9602 333.768 76.0644 333.507 76.2727C333.251 76.4763 333.053 76.7723 332.911 77.1605C332.773 77.544 332.705 78.0057 332.705 78.5455ZM348.324 73.0909V75.9318H341.137V73.0909H348.324ZM342.529 70.4773H346.449V80.4915C346.449 80.643 346.475 80.7708 346.527 80.875C346.579 80.9744 346.66 81.0502 346.769 81.1023C346.878 81.1496 347.017 81.1733 347.188 81.1733C347.306 81.1733 347.444 81.1591 347.6 81.1307C347.761 81.1023 347.879 81.0786 347.955 81.0597L348.523 83.8153C348.348 83.8674 348.097 83.9313 347.77 84.0071C347.448 84.0829 347.065 84.1326 346.62 84.1562C345.72 84.2036 344.965 84.1113 344.354 83.8793C343.743 83.6425 343.284 83.2708 342.976 82.7642C342.668 82.2576 342.519 81.6231 342.529 80.8608V70.4773ZM358.88 64.767V88.6875H355.045V64.767H358.88ZM365.544 72.6364V69.4545H378.186V72.6364H373.811V84H369.919V72.6364H365.544ZM380.865 88.0909C380.415 88.0909 379.987 88.0554 379.58 87.9844C379.172 87.9181 378.815 87.8258 378.507 87.7074L379.359 84.9233C379.681 85.0369 379.975 85.1103 380.24 85.1435C380.51 85.1766 380.74 85.1577 380.929 85.0866C381.123 85.0156 381.263 84.8807 381.348 84.6818L381.433 84.483L377.598 73.0909H381.689L383.45 80.6477H383.564L385.354 73.0909H389.473L385.496 84.9091C385.297 85.5104 385.008 86.0502 384.629 86.5284C384.255 87.0114 383.763 87.3925 383.152 87.6719C382.541 87.9512 381.779 88.0909 380.865 88.0909ZM390.588 88.0909V73.0909H394.48V74.9943H394.565C394.707 74.625 394.916 74.2865 395.19 73.9787C395.465 73.6662 395.806 73.4176 396.213 73.233C396.62 73.0436 397.094 72.9489 397.634 72.9489C398.353 72.9489 399.037 73.1406 399.686 73.5241C400.339 73.9077 400.87 74.5114 401.277 75.3352C401.689 76.1591 401.895 77.2292 401.895 78.5455C401.895 79.8049 401.698 80.849 401.305 81.6776C400.917 82.5062 400.396 83.1241 399.743 83.5312C399.094 83.9384 398.382 84.142 397.605 84.142C397.094 84.142 396.637 84.0592 396.234 83.8935C395.837 83.723 395.496 83.4934 395.212 83.2045C394.932 82.911 394.717 82.5795 394.565 82.2102H394.509V88.0909H390.588ZM394.423 78.5455C394.423 79.0758 394.492 79.535 394.629 79.9233C394.771 80.3068 394.97 80.6051 395.226 80.8182C395.486 81.0265 395.796 81.1307 396.156 81.1307C396.516 81.1307 396.821 81.0289 397.072 80.8253C397.328 80.617 397.522 80.321 397.655 79.9375C397.792 79.5492 397.861 79.0852 397.861 78.5455C397.861 78.0057 397.792 77.544 397.655 77.1605C397.522 76.7723 397.328 76.4763 397.072 76.2727C396.821 76.0644 396.516 75.9602 396.156 75.9602C395.796 75.9602 395.486 76.0644 395.226 76.2727C394.97 76.4763 394.771 76.7723 394.629 77.1605C394.492 77.544 394.423 78.0057 394.423 78.5455ZM408.765 84.1989C407.6 84.1989 406.596 83.9763 405.753 83.5312C404.915 83.0814 404.269 82.4375 403.814 81.5994C403.364 80.7566 403.14 79.7481 403.14 78.5739C403.14 77.447 403.367 76.4621 403.821 75.6193C404.276 74.7765 404.917 74.1207 405.746 73.652C406.575 73.1832 407.552 72.9489 408.679 72.9489C409.503 72.9489 410.249 73.0767 410.917 73.3324C411.584 73.5881 412.155 73.9598 412.628 74.4474C413.102 74.9304 413.466 75.5175 413.722 76.2088C413.978 76.9001 414.105 77.679 414.105 78.5455V79.4545H404.361V77.2955H410.498C410.493 76.983 410.412 76.7083 410.256 76.4716C410.105 76.2301 409.899 76.0431 409.638 75.9105C409.382 75.7732 409.091 75.7045 408.765 75.7045C408.447 75.7045 408.156 75.7732 407.891 75.9105C407.626 76.0431 407.413 76.2277 407.252 76.4645C407.096 76.7012 407.013 76.9782 407.003 77.2955V79.625C407.003 79.9754 407.077 80.2879 407.223 80.5625C407.37 80.8371 407.581 81.0526 407.855 81.2088C408.13 81.3651 408.462 81.4432 408.85 81.4432C409.12 81.4432 409.366 81.4053 409.588 81.3295C409.816 81.2538 410.01 81.1449 410.171 81.0028C410.332 80.8561 410.45 80.6809 410.526 80.4773H414.105C413.982 81.2348 413.691 81.893 413.232 82.4517C412.773 83.0057 412.164 83.4366 411.407 83.7443C410.654 84.0473 409.773 84.1989 408.765 84.1989ZM423.489 74C423.451 73.5265 423.274 73.1572 422.957 72.892C422.644 72.6269 422.168 72.4943 421.529 72.4943C421.122 72.4943 420.788 72.544 420.528 72.6435C420.272 72.7382 420.083 72.8684 419.96 73.0341C419.836 73.1998 419.772 73.3892 419.768 73.6023C419.758 73.7775 419.789 73.9361 419.86 74.0781C419.936 74.2154 420.054 74.3409 420.215 74.4545C420.376 74.5634 420.582 74.6629 420.833 74.7528C421.084 74.8428 421.382 74.9233 421.728 74.9943L422.921 75.25C423.726 75.4205 424.415 75.6454 424.988 75.9247C425.561 76.2041 426.03 76.5331 426.394 76.9119C426.759 77.286 427.026 77.7074 427.197 78.1761C427.372 78.6449 427.462 79.1562 427.467 79.7102C427.462 80.6667 427.223 81.4763 426.749 82.1392C426.276 82.8021 425.599 83.3063 424.718 83.652C423.842 83.9976 422.789 84.1705 421.558 84.1705C420.293 84.1705 419.19 83.9834 418.248 83.6094C417.31 83.2353 416.581 82.66 416.06 81.8835C415.544 81.1023 415.284 80.1032 415.279 78.8864H419.029C419.053 79.3314 419.164 79.7055 419.363 80.0085C419.562 80.3116 419.841 80.5412 420.201 80.6974C420.566 80.8537 420.999 80.9318 421.501 80.9318C421.922 80.9318 422.275 80.8797 422.559 80.7756C422.843 80.6714 423.058 80.527 423.205 80.3423C423.352 80.1577 423.428 79.947 423.433 79.7102C423.428 79.4877 423.354 79.2936 423.212 79.1278C423.075 78.9574 422.848 78.8059 422.531 78.6733C422.213 78.536 421.785 78.4081 421.245 78.2898L419.796 77.9773C418.508 77.6979 417.493 77.2315 416.749 76.5781C416.011 75.92 415.644 75.0227 415.648 73.8864C415.644 72.9631 415.89 72.1558 416.387 71.4645C416.889 70.7685 417.583 70.2263 418.468 69.8381C419.358 69.4498 420.379 69.2557 421.529 69.2557C422.703 69.2557 423.719 69.4522 424.576 69.8452C425.433 70.2382 426.094 70.7921 426.558 71.5071C427.026 72.2173 427.263 73.0483 427.268 74H423.489ZM434.281 84.1989C433.098 84.1989 432.084 83.9645 431.241 83.4957C430.399 83.0223 429.752 82.3641 429.303 81.5213C428.853 80.6738 428.628 79.6913 428.628 78.5739C428.628 77.4564 428.853 76.4763 429.303 75.6335C429.752 74.786 430.399 74.1278 431.241 73.6591C432.084 73.1856 433.098 72.9489 434.281 72.9489C435.351 72.9489 436.277 73.143 437.058 73.5312C437.844 73.9148 438.453 74.4593 438.884 75.1648C439.314 75.8655 439.532 76.6894 439.537 77.6364H435.901C435.848 77.0634 435.683 76.6278 435.403 76.3295C435.129 76.0265 434.774 75.875 434.338 75.875C433.997 75.875 433.699 75.9744 433.443 76.1733C433.188 76.3674 432.989 76.6634 432.847 77.0611C432.705 77.4541 432.634 77.9489 432.634 78.5455C432.634 79.142 432.705 79.6392 432.847 80.0369C432.989 80.4299 433.188 80.7259 433.443 80.9247C433.699 81.1188 433.997 81.2159 434.338 81.2159C434.627 81.2159 434.883 81.1496 435.105 81.017C435.328 80.8797 435.508 80.6809 435.645 80.4205C435.787 80.1553 435.872 79.8333 435.901 79.4545H439.537C439.523 80.4157 439.303 81.2538 438.876 81.9688C438.45 82.679 437.847 83.2282 437.065 83.6165C436.289 84.0047 435.361 84.1989 434.281 84.1989ZM441.154 84V73.0909H444.961V75.1648H445.075C445.274 74.3977 445.589 73.8366 446.02 73.4815C446.455 73.1264 446.964 72.9489 447.547 72.9489C447.717 72.9489 447.885 72.9631 448.051 72.9915C448.221 73.0152 448.385 73.0507 448.541 73.098V76.4432C448.347 76.3769 448.108 76.3272 447.824 76.294C447.539 76.2609 447.296 76.2443 447.092 76.2443C446.708 76.2443 446.363 76.3319 446.055 76.5071C445.752 76.6776 445.513 76.919 445.338 77.2315C445.163 77.5393 445.075 77.9015 445.075 78.3182V84H441.154ZM449.826 84V73.0909H453.747V84H449.826ZM451.787 71.9545C451.256 71.9545 450.802 71.7794 450.423 71.429C450.044 71.0786 449.855 70.6572 449.855 70.1648C449.855 69.6723 450.044 69.2509 450.423 68.9006C450.802 68.5502 451.256 68.375 451.787 68.375C452.322 68.375 452.776 68.5502 453.15 68.9006C453.529 69.2509 453.718 69.6723 453.718 70.1648C453.718 70.6572 453.529 71.0786 453.15 71.429C452.776 71.7794 452.322 71.9545 451.787 71.9545ZM455.744 88.0909V73.0909H459.636V74.9943H459.722C459.864 74.625 460.072 74.2865 460.347 73.9787C460.621 73.6662 460.962 73.4176 461.369 73.233C461.777 73.0436 462.25 72.9489 462.79 72.9489C463.509 72.9489 464.194 73.1406 464.842 73.5241C465.496 73.9077 466.026 74.5114 466.433 75.3352C466.845 76.1591 467.051 77.2292 467.051 78.5455C467.051 79.8049 466.855 80.849 466.462 81.6776C466.073 82.5062 465.553 83.1241 464.899 83.5312C464.25 83.9384 463.538 84.142 462.761 84.142C462.25 84.142 461.793 84.0592 461.391 83.8935C460.993 83.723 460.652 83.4934 460.368 83.2045C460.089 82.911 459.873 82.5795 459.722 82.2102H459.665V88.0909H455.744ZM459.58 78.5455C459.58 79.0758 459.648 79.535 459.786 79.9233C459.928 80.3068 460.126 80.6051 460.382 80.8182C460.643 81.0265 460.953 81.1307 461.312 81.1307C461.672 81.1307 461.978 81.0289 462.229 80.8253C462.484 80.617 462.679 80.321 462.811 79.9375C462.948 79.5492 463.017 79.0852 463.017 78.5455C463.017 78.0057 462.948 77.544 462.811 77.1605C462.679 76.7723 462.484 76.4763 462.229 76.2727C461.978 76.0644 461.672 75.9602 461.312 75.9602C460.953 75.9602 460.643 76.0644 460.382 76.2727C460.126 76.4763 459.928 76.7723 459.786 77.1605C459.648 77.544 459.58 78.0057 459.58 78.5455ZM475.199 73.0909V75.9318H468.012V73.0909H475.199ZM469.404 70.4773H473.324V80.4915C473.324 80.643 473.35 80.7708 473.402 80.875C473.454 80.9744 473.535 81.0502 473.644 81.1023C473.753 81.1496 473.892 81.1733 474.063 81.1733C474.181 81.1733 474.319 81.1591 474.475 81.1307C474.636 81.1023 474.754 81.0786 474.83 81.0597L475.398 83.8153C475.223 83.8674 474.972 83.9313 474.645 84.0071C474.323 84.0829 473.94 84.1326 473.495 84.1562C472.595 84.2036 471.84 84.1113 471.229 83.8793C470.618 83.6425 470.159 83.2708 469.851 82.7642C469.543 82.2576 469.394 81.6231 469.404 80.8608V70.4773Z" fill="#86092C"/>
<path d="M40.9375 175V160.455H44.8864V166.136H50.1136V160.455H54.0625V175H50.1136V169.318H44.8864V175H40.9375ZM61.25 175.199C60.0663 175.199 59.053 174.964 58.2102 174.496C57.3674 174.022 56.7211 173.364 56.2713 172.521C55.8215 171.674 55.5966 170.691 55.5966 169.574C55.5966 168.456 55.8215 167.476 56.2713 166.634C56.7211 165.786 57.3674 165.128 58.2102 164.659C59.053 164.186 60.0663 163.949 61.25 163.949C62.4337 163.949 63.447 164.186 64.2898 164.659C65.1326 165.128 65.7789 165.786 66.2287 166.634C66.6785 167.476 66.9034 168.456 66.9034 169.574C66.9034 170.691 66.6785 171.674 66.2287 172.521C65.7789 173.364 65.1326 174.022 64.2898 174.496C63.447 174.964 62.4337 175.199 61.25 175.199ZM61.2784 172.301C61.6098 172.301 61.8963 172.19 62.1378 171.967C62.3793 171.745 62.5663 171.428 62.6989 171.016C62.8314 170.604 62.8977 170.114 62.8977 169.545C62.8977 168.973 62.8314 168.482 62.6989 168.075C62.5663 167.663 62.3793 167.346 62.1378 167.124C61.8963 166.901 61.6098 166.79 61.2784 166.79C60.928 166.79 60.6274 166.901 60.3764 167.124C60.1255 167.346 59.9337 167.663 59.8011 168.075C59.6686 168.482 59.6023 168.973 59.6023 169.545C59.6023 170.114 59.6686 170.604 59.8011 171.016C59.9337 171.428 60.1255 171.745 60.3764 171.967C60.6274 172.19 60.928 172.301 61.2784 172.301ZM68.4375 175V160.455H72.358V165.994H72.4148C72.5568 165.625 72.7652 165.286 73.0398 164.979C73.3144 164.666 73.6553 164.418 74.0625 164.233C74.4697 164.044 74.9432 163.949 75.483 163.949C76.2027 163.949 76.8868 164.141 77.5355 164.524C78.1889 164.908 78.7192 165.511 79.1264 166.335C79.5384 167.159 79.7443 168.229 79.7443 169.545C79.7443 170.805 79.5478 171.849 79.1548 172.678C78.7666 173.506 78.2457 174.124 77.5923 174.531C76.9437 174.938 76.2311 175.142 75.4545 175.142C74.9432 175.142 74.4863 175.059 74.0838 174.893C73.6861 174.723 73.3452 174.493 73.0611 174.205C72.7817 173.911 72.5663 173.58 72.4148 173.21H72.3295V175H68.4375ZM72.2727 169.545C72.2727 170.076 72.3414 170.535 72.4787 170.923C72.6207 171.307 72.8196 171.605 73.0753 171.818C73.3357 172.027 73.6458 172.131 74.0057 172.131C74.3655 172.131 74.6709 172.029 74.9219 171.825C75.1776 171.617 75.3717 171.321 75.5043 170.938C75.6416 170.549 75.7102 170.085 75.7102 169.545C75.7102 169.006 75.6416 168.544 75.5043 168.161C75.3717 167.772 75.1776 167.476 74.9219 167.273C74.6709 167.064 74.3655 166.96 74.0057 166.96C73.6458 166.96 73.3357 167.064 73.0753 167.273C72.8196 167.476 72.6207 167.772 72.4787 168.161C72.3414 168.544 72.2727 169.006 72.2727 169.545ZM81.3281 175V160.455H85.2486V165.994H85.3054C85.4474 165.625 85.6558 165.286 85.9304 164.979C86.205 164.666 86.5459 164.418 86.9531 164.233C87.3603 164.044 87.8338 163.949 88.3736 163.949C89.0933 163.949 89.7775 164.141 90.4261 164.524C91.0795 164.908 91.6098 165.511 92.017 166.335C92.429 167.159 92.6349 168.229 92.6349 169.545C92.6349 170.805 92.4384 171.849 92.0455 172.678C91.6572 173.506 91.1364 174.124 90.483 174.531C89.8343 174.938 89.1217 175.142 88.3452 175.142C87.8338 175.142 87.3769 175.059 86.9744 174.893C86.5767 174.723 86.2358 174.493 85.9517 174.205C85.6723 173.911 85.4569 173.58 85.3054 173.21H85.2202V175H81.3281ZM85.1634 169.545C85.1634 170.076 85.232 170.535 85.3693 170.923C85.5114 171.307 85.7102 171.605 85.9659 171.818C86.2263 172.027 86.5365 172.131 86.8963 172.131C87.2562 172.131 87.5616 172.029 87.8125 171.825C88.0682 171.617 88.2623 171.321 88.3949 170.938C88.5322 170.549 88.6009 170.085 88.6009 169.545C88.6009 169.006 88.5322 168.544 88.3949 168.161C88.2623 167.772 88.0682 167.476 87.8125 167.273C87.5616 167.064 87.2562 166.96 86.8963 166.96C86.5365 166.96 86.2263 167.064 85.9659 167.273C85.7102 167.476 85.5114 167.772 85.3693 168.161C85.232 168.544 85.1634 169.006 85.1634 169.545ZM94.2756 175V164.091H98.196V175H94.2756ZM96.2358 162.955C95.7055 162.955 95.2509 162.779 94.8722 162.429C94.4934 162.079 94.304 161.657 94.304 161.165C94.304 160.672 94.4934 160.251 94.8722 159.901C95.2509 159.55 95.7055 159.375 96.2358 159.375C96.7708 159.375 97.2254 159.55 97.5994 159.901C97.9782 160.251 98.1676 160.672 98.1676 161.165C98.1676 161.657 97.9782 162.079 97.5994 162.429C97.2254 162.779 96.7708 162.955 96.2358 162.955ZM105.421 175.199C104.256 175.199 103.252 174.976 102.409 174.531C101.571 174.081 100.925 173.437 100.471 172.599C100.021 171.757 99.7958 170.748 99.7958 169.574C99.7958 168.447 100.023 167.462 100.478 166.619C100.932 165.777 101.574 165.121 102.402 164.652C103.231 164.183 104.209 163.949 105.336 163.949C106.159 163.949 106.905 164.077 107.573 164.332C108.24 164.588 108.811 164.96 109.284 165.447C109.758 165.93 110.123 166.518 110.378 167.209C110.634 167.9 110.762 168.679 110.762 169.545V170.455H101.017V168.295H107.154C107.149 167.983 107.069 167.708 106.912 167.472C106.761 167.23 106.555 167.043 106.294 166.911C106.039 166.773 105.748 166.705 105.421 166.705C105.104 166.705 104.812 166.773 104.547 166.911C104.282 167.043 104.069 167.228 103.908 167.464C103.752 167.701 103.669 167.978 103.659 168.295V170.625C103.659 170.975 103.733 171.288 103.88 171.562C104.026 171.837 104.237 172.053 104.512 172.209C104.786 172.365 105.118 172.443 105.506 172.443C105.776 172.443 106.022 172.405 106.245 172.33C106.472 172.254 106.666 172.145 106.827 172.003C106.988 171.856 107.106 171.681 107.182 171.477H110.762C110.639 172.235 110.347 172.893 109.888 173.452C109.429 174.006 108.82 174.437 108.063 174.744C107.31 175.047 106.429 175.199 105.421 175.199ZM122.333 167.642H118.725C118.706 167.42 118.628 167.228 118.491 167.067C118.353 166.906 118.176 166.783 117.958 166.697C117.745 166.607 117.508 166.562 117.248 166.562C116.912 166.562 116.623 166.624 116.381 166.747C116.14 166.87 116.022 167.045 116.026 167.273C116.022 167.434 116.09 167.583 116.232 167.72C116.379 167.857 116.661 167.964 117.077 168.04L119.293 168.438C120.411 168.641 121.242 168.984 121.786 169.467C122.335 169.946 122.612 170.587 122.617 171.392C122.612 172.169 122.38 172.843 121.921 173.416C121.467 173.984 120.844 174.425 120.053 174.737C119.267 175.045 118.37 175.199 117.362 175.199C115.695 175.199 114.39 174.858 113.448 174.176C112.511 173.494 111.987 172.595 111.879 171.477H115.771C115.823 171.823 115.993 172.09 116.282 172.28C116.576 172.464 116.945 172.557 117.39 172.557C117.75 172.557 118.046 172.495 118.278 172.372C118.514 172.249 118.635 172.074 118.64 171.847C118.635 171.638 118.531 171.473 118.327 171.349C118.129 171.226 117.816 171.127 117.39 171.051L115.458 170.71C114.345 170.516 113.512 170.147 112.958 169.602C112.404 169.058 112.129 168.357 112.134 167.5C112.129 166.742 112.328 166.101 112.731 165.575C113.138 165.045 113.718 164.643 114.471 164.368C115.228 164.089 116.126 163.949 117.163 163.949C118.739 163.949 119.982 164.276 120.891 164.929C121.805 165.582 122.286 166.487 122.333 167.642Z" fill="#86092C"/>
<path d="M298.534 175H292.938V160.455H298.477C299.973 160.455 301.266 160.746 302.355 161.328C303.449 161.906 304.292 162.739 304.884 163.828C305.48 164.912 305.778 166.212 305.778 167.727C305.778 169.242 305.482 170.545 304.891 171.634C304.299 172.718 303.461 173.551 302.376 174.134C301.292 174.711 300.011 175 298.534 175ZM296.886 171.648H298.392C299.112 171.648 299.725 171.532 300.232 171.3C300.743 171.068 301.131 170.668 301.396 170.099C301.666 169.531 301.801 168.741 301.801 167.727C301.801 166.714 301.664 165.923 301.389 165.355C301.119 164.787 300.722 164.387 300.196 164.155C299.675 163.923 299.036 163.807 298.278 163.807H296.886V171.648ZM307.662 175V164.091H311.469V166.165H311.583C311.782 165.398 312.096 164.837 312.527 164.482C312.963 164.126 313.472 163.949 314.054 163.949C314.225 163.949 314.393 163.963 314.559 163.991C314.729 164.015 314.892 164.051 315.049 164.098V167.443C314.855 167.377 314.615 167.327 314.331 167.294C314.047 167.261 313.803 167.244 313.6 167.244C313.216 167.244 312.871 167.332 312.563 167.507C312.26 167.678 312.021 167.919 311.846 168.232C311.67 168.539 311.583 168.902 311.583 169.318V175H307.662ZM318.866 175.17C318.17 175.17 317.555 175.057 317.02 174.83C316.489 174.598 316.073 174.247 315.77 173.778C315.467 173.31 315.315 172.713 315.315 171.989C315.315 171.392 315.417 170.883 315.62 170.462C315.824 170.036 316.108 169.688 316.473 169.418C316.837 169.148 317.261 168.942 317.744 168.8C318.232 168.658 318.757 168.565 319.321 168.523C319.931 168.475 320.422 168.419 320.791 168.352C321.165 168.281 321.435 168.184 321.6 168.061C321.766 167.933 321.849 167.765 321.849 167.557V167.528C321.849 167.244 321.74 167.027 321.522 166.875C321.305 166.723 321.025 166.648 320.684 166.648C320.31 166.648 320.005 166.731 319.768 166.896C319.536 167.057 319.396 167.306 319.349 167.642H315.741C315.788 166.979 315.999 166.368 316.373 165.81C316.752 165.246 317.304 164.796 318.028 164.46C318.752 164.119 319.657 163.949 320.741 163.949C321.522 163.949 322.223 164.041 322.843 164.226C323.464 164.406 323.992 164.659 324.427 164.986C324.863 165.308 325.194 165.687 325.422 166.122C325.654 166.553 325.77 167.022 325.77 167.528V175H322.105V173.466H322.02C321.802 173.873 321.537 174.202 321.224 174.453C320.916 174.704 320.564 174.886 320.166 175C319.773 175.114 319.34 175.17 318.866 175.17ZM320.145 172.699C320.443 172.699 320.722 172.637 320.983 172.514C321.248 172.391 321.463 172.214 321.629 171.982C321.795 171.75 321.877 171.468 321.877 171.136V170.227C321.773 170.27 321.662 170.31 321.544 170.348C321.43 170.386 321.307 170.421 321.174 170.455C321.047 170.488 320.909 170.518 320.762 170.547C320.62 170.575 320.471 170.601 320.315 170.625C320.012 170.672 319.763 170.75 319.569 170.859C319.38 170.964 319.238 171.094 319.143 171.25C319.053 171.402 319.008 171.572 319.008 171.761C319.008 172.064 319.115 172.296 319.328 172.457C319.541 172.618 319.813 172.699 320.145 172.699ZM329.575 175L326.847 164.091H330.768L332.018 170.739H332.103L333.495 164.091H337.302L338.751 170.682H338.836L340.029 164.091H343.95L341.222 175H336.989L335.455 169.148H335.342L333.808 175H329.575ZM345.143 175V164.091H349.063V175H345.143ZM347.103 162.955C346.573 162.955 346.118 162.779 345.739 162.429C345.361 162.079 345.171 161.657 345.171 161.165C345.171 160.672 345.361 160.251 345.739 159.901C346.118 159.55 346.573 159.375 347.103 159.375C347.638 159.375 348.093 159.55 348.467 159.901C348.845 160.251 349.035 160.672 349.035 161.165C349.035 161.657 348.845 162.079 348.467 162.429C348.093 162.779 347.638 162.955 347.103 162.955ZM354.981 168.864V175H351.061V164.091H354.782V166.165H354.896C355.133 165.473 355.549 164.931 356.146 164.538C356.747 164.145 357.448 163.949 358.248 163.949C359.02 163.949 359.69 164.126 360.258 164.482C360.831 164.832 361.274 165.315 361.586 165.93C361.904 166.546 362.06 167.249 362.055 168.04V175H358.135V168.864C358.139 168.324 358.002 167.9 357.723 167.592C357.448 167.285 357.065 167.131 356.572 167.131C356.25 167.131 355.968 167.202 355.727 167.344C355.49 167.481 355.308 167.68 355.18 167.94C355.052 168.196 354.986 168.504 354.981 168.864ZM369.246 179.318C368.152 179.318 367.215 179.162 366.434 178.849C365.657 178.542 365.053 178.116 364.623 177.571C364.196 177.031 363.957 176.411 363.905 175.71H367.684C367.721 175.942 367.816 176.129 367.968 176.271C368.119 176.413 368.313 176.515 368.55 176.577C368.792 176.643 369.061 176.676 369.36 176.676C369.866 176.676 370.285 176.553 370.617 176.307C370.953 176.061 371.121 175.616 371.121 174.972V173.125H371.007C370.865 173.494 370.648 173.809 370.354 174.07C370.06 174.325 369.708 174.522 369.296 174.659C368.884 174.792 368.432 174.858 367.939 174.858C367.163 174.858 366.448 174.678 365.794 174.318C365.146 173.958 364.625 173.388 364.232 172.607C363.844 171.825 363.65 170.805 363.65 169.545C363.65 168.229 363.853 167.159 364.26 166.335C364.672 165.511 365.203 164.908 365.851 164.524C366.505 164.141 367.191 163.949 367.911 163.949C368.451 163.949 368.924 164.044 369.331 164.233C369.739 164.418 370.079 164.666 370.354 164.979C370.629 165.286 370.837 165.625 370.979 165.994H371.064V164.091H374.985V174.972C374.985 175.895 374.746 176.679 374.267 177.322C373.794 177.971 373.126 178.466 372.265 178.807C371.403 179.148 370.397 179.318 369.246 179.318ZM369.388 172.074C369.748 172.074 370.056 171.974 370.311 171.776C370.572 171.572 370.771 171.283 370.908 170.909C371.05 170.53 371.121 170.076 371.121 169.545C371.121 169.006 371.05 168.544 370.908 168.161C370.771 167.772 370.572 167.476 370.311 167.273C370.056 167.064 369.748 166.96 369.388 166.96C369.028 166.96 368.721 167.064 368.465 167.273C368.214 167.476 368.02 167.772 367.882 168.161C367.75 168.544 367.684 169.006 367.684 169.545C367.684 170.085 367.75 170.545 367.882 170.923C368.02 171.297 368.214 171.584 368.465 171.783C368.721 171.977 369.028 172.074 369.388 172.074ZM385.935 155.767V179.688H382.099V155.767H385.935ZM402.442 165.256C402.381 165.005 402.283 164.785 402.151 164.595C402.018 164.401 401.853 164.238 401.654 164.105C401.46 163.968 401.232 163.866 400.972 163.8C400.716 163.729 400.435 163.693 400.127 163.693C399.464 163.693 398.898 163.852 398.429 164.169C397.965 164.486 397.61 164.943 397.364 165.54C397.123 166.136 397.002 166.856 397.002 167.699C397.002 168.551 397.118 169.28 397.35 169.886C397.582 170.492 397.927 170.956 398.387 171.278C398.846 171.6 399.417 171.761 400.098 171.761C400.7 171.761 401.199 171.674 401.597 171.499C401.999 171.323 402.3 171.075 402.499 170.753C402.698 170.431 402.797 170.052 402.797 169.616L403.479 169.688H400.155V166.875H406.604V168.892C406.604 170.218 406.322 171.352 405.759 172.294C405.2 173.232 404.428 173.951 403.444 174.453C402.463 174.95 401.339 175.199 400.07 175.199C398.654 175.199 397.411 174.898 396.341 174.297C395.271 173.696 394.435 172.839 393.834 171.726C393.238 170.613 392.939 169.29 392.939 167.756C392.939 166.553 393.122 165.488 393.486 164.56C393.855 163.632 394.367 162.848 395.02 162.209C395.674 161.565 396.429 161.08 397.286 160.753C398.143 160.421 399.061 160.256 400.042 160.256C400.903 160.256 401.703 160.379 402.442 160.625C403.185 160.866 403.841 161.212 404.409 161.662C404.982 162.107 405.444 162.635 405.794 163.246C406.145 163.857 406.358 164.527 406.434 165.256H402.442ZM411.542 175.17C410.846 175.17 410.23 175.057 409.695 174.83C409.165 174.598 408.748 174.247 408.445 173.778C408.142 173.31 407.991 172.713 407.991 171.989C407.991 171.392 408.093 170.883 408.296 170.462C408.5 170.036 408.784 169.688 409.148 169.418C409.513 169.148 409.937 168.942 410.42 168.8C410.907 168.658 411.433 168.565 411.996 168.523C412.607 168.475 413.097 168.419 413.467 168.352C413.841 168.281 414.111 168.184 414.276 168.061C414.442 167.933 414.525 167.765 414.525 167.557V167.528C414.525 167.244 414.416 167.027 414.198 166.875C413.98 166.723 413.701 166.648 413.36 166.648C412.986 166.648 412.681 166.731 412.444 166.896C412.212 167.057 412.072 167.306 412.025 167.642H408.417C408.464 166.979 408.675 166.368 409.049 165.81C409.428 165.246 409.979 164.796 410.704 164.46C411.428 164.119 412.333 163.949 413.417 163.949C414.198 163.949 414.899 164.041 415.519 164.226C416.139 164.406 416.667 164.659 417.103 164.986C417.539 165.308 417.87 165.687 418.097 166.122C418.329 166.553 418.445 167.022 418.445 167.528V175H414.781V173.466H414.695C414.478 173.873 414.212 174.202 413.9 174.453C413.592 174.704 413.239 174.886 412.842 175C412.449 175.114 412.015 175.17 411.542 175.17ZM412.82 172.699C413.119 172.699 413.398 172.637 413.658 172.514C413.924 172.391 414.139 172.214 414.305 171.982C414.47 171.75 414.553 171.468 414.553 171.136V170.227C414.449 170.27 414.338 170.31 414.219 170.348C414.106 170.386 413.983 170.421 413.85 170.455C413.722 170.488 413.585 170.518 413.438 170.547C413.296 170.575 413.147 170.601 412.991 170.625C412.688 170.672 412.439 170.75 412.245 170.859C412.056 170.964 411.914 171.094 411.819 171.25C411.729 171.402 411.684 171.572 411.684 171.761C411.684 172.064 411.79 172.296 412.004 172.457C412.217 172.618 412.489 172.699 412.82 172.699ZM420.319 175V164.091H424.04V166.165H424.154C424.381 165.483 424.769 164.943 425.319 164.545C425.868 164.148 426.521 163.949 427.279 163.949C428.046 163.949 428.706 164.152 429.26 164.56C429.814 164.962 430.148 165.497 430.262 166.165H430.375C430.56 165.497 430.953 164.962 431.554 164.56C432.156 164.152 432.861 163.949 433.671 163.949C434.717 163.949 435.565 164.285 436.213 164.957C436.867 165.63 437.194 166.525 437.194 167.642V175H433.273V168.636C433.273 168.158 433.152 167.784 432.911 167.514C432.669 167.24 432.345 167.102 431.938 167.102C431.535 167.102 431.216 167.24 430.979 167.514C430.747 167.784 430.631 168.158 430.631 168.636V175H426.881V168.636C426.881 168.158 426.76 167.784 426.519 167.514C426.277 167.24 425.953 167.102 425.546 167.102C425.276 167.102 425.044 167.164 424.85 167.287C424.656 167.41 424.504 167.588 424.395 167.82C424.291 168.047 424.239 168.319 424.239 168.636V175H420.319ZM439.127 175V164.091H443.048V175H439.127ZM441.087 162.955C440.557 162.955 440.103 162.779 439.724 162.429C439.345 162.079 439.156 161.657 439.156 161.165C439.156 160.672 439.345 160.251 439.724 159.901C440.103 159.55 440.557 159.375 441.087 159.375C441.622 159.375 442.077 159.55 442.451 159.901C442.83 160.251 443.019 160.672 443.019 161.165C443.019 161.657 442.83 162.079 442.451 162.429C442.077 162.779 441.622 162.955 441.087 162.955ZM448.966 168.864V175H445.045V164.091H448.767V166.165H448.88C449.117 165.473 449.534 164.931 450.13 164.538C450.732 164.145 451.432 163.949 452.233 163.949C453.004 163.949 453.674 164.126 454.243 164.482C454.815 164.832 455.258 165.315 455.571 165.93C455.888 166.546 456.044 167.249 456.039 168.04V175H452.119V168.864C452.124 168.324 451.986 167.9 451.707 167.592C451.432 167.285 451.049 167.131 450.556 167.131C450.234 167.131 449.953 167.202 449.711 167.344C449.475 167.481 449.292 167.68 449.164 167.94C449.037 168.196 448.97 168.504 448.966 168.864ZM463.23 179.318C462.137 179.318 461.199 179.162 460.418 178.849C459.641 178.542 459.038 178.116 458.607 177.571C458.181 177.031 457.942 176.411 457.89 175.71H461.668C461.706 175.942 461.801 176.129 461.952 176.271C462.104 176.413 462.298 176.515 462.534 176.577C462.776 176.643 463.046 176.676 463.344 176.676C463.851 176.676 464.27 176.553 464.601 176.307C464.937 176.061 465.105 175.616 465.105 174.972V173.125H464.992C464.85 173.494 464.632 173.809 464.338 174.07C464.045 174.325 463.692 174.522 463.28 174.659C462.868 174.792 462.416 174.858 461.924 174.858C461.147 174.858 460.432 174.678 459.779 174.318C459.13 173.958 458.609 173.388 458.216 172.607C457.828 171.825 457.634 170.805 457.634 169.545C457.634 168.229 457.837 167.159 458.245 166.335C458.657 165.511 459.187 164.908 459.836 164.524C460.489 164.141 461.176 163.949 461.895 163.949C462.435 163.949 462.908 164.044 463.316 164.233C463.723 164.418 464.064 164.666 464.338 164.979C464.613 165.286 464.821 165.625 464.963 165.994H465.049V164.091H468.969V174.972C468.969 175.895 468.73 176.679 468.252 177.322C467.778 177.971 467.111 178.466 466.249 178.807C465.387 179.148 464.381 179.318 463.23 179.318ZM463.373 172.074C463.732 172.074 464.04 171.974 464.296 171.776C464.556 171.572 464.755 171.283 464.892 170.909C465.034 170.53 465.105 170.076 465.105 169.545C465.105 169.006 465.034 168.544 464.892 168.161C464.755 167.772 464.556 167.476 464.296 167.273C464.04 167.064 463.732 166.96 463.373 166.96C463.013 166.96 462.705 167.064 462.449 167.273C462.198 167.476 462.004 167.772 461.867 168.161C461.734 168.544 461.668 169.006 461.668 169.545C461.668 170.085 461.734 170.545 461.867 170.923C462.004 171.297 462.198 171.584 462.449 171.783C462.705 171.977 463.013 172.074 463.373 172.074Z" fill="#86092C"/>
<path d="M40.9375 129V114.455H44.8864V125.818H50.767V129H40.9375ZM52.4201 129V118.091H56.3406V129H52.4201ZM54.3803 116.955C53.85 116.955 53.3955 116.779 53.0167 116.429C52.6379 116.079 52.4485 115.657 52.4485 115.165C52.4485 114.672 52.6379 114.251 53.0167 113.901C53.3955 113.55 53.85 113.375 54.3803 113.375C54.9154 113.375 55.3699 113.55 55.744 113.901C56.1228 114.251 56.3121 114.672 56.3121 115.165C56.3121 115.657 56.1228 116.079 55.744 116.429C55.3699 116.779 54.9154 116.955 54.3803 116.955ZM62.2585 122.864V129H58.3381V118.091H62.0597V120.165H62.1733C62.41 119.473 62.8267 118.931 63.4233 118.538C64.0246 118.145 64.7254 117.949 65.5256 117.949C66.2973 117.949 66.9673 118.126 67.5355 118.482C68.1084 118.832 68.5511 119.315 68.8636 119.93C69.1809 120.546 69.3371 121.249 69.3324 122.04V129H65.4119V122.864C65.4167 122.324 65.2794 121.9 65 121.592C64.7254 121.285 64.3419 121.131 63.8494 121.131C63.5275 121.131 63.2457 121.202 63.0043 121.344C62.7675 121.481 62.5852 121.68 62.4574 121.94C62.3295 122.196 62.2633 122.504 62.2585 122.864ZM74.7905 126.415L74.8189 121.756H75.3303L77.9723 118.091H82.3757L77.9439 123.801H76.8359L74.7905 126.415ZM71.2678 129V114.455H75.1882V129H71.2678ZM78.0007 129L75.5007 124.682L78.0575 121.898L82.4893 129H78.0007ZM88.1747 129.199C87.0099 129.199 86.0062 128.976 85.1634 128.531C84.3253 128.081 83.679 127.437 83.2244 126.599C82.7746 125.757 82.5497 124.748 82.5497 123.574C82.5497 122.447 82.777 121.462 83.2315 120.619C83.6861 119.777 84.3277 119.121 85.1562 118.652C85.9848 118.183 86.9626 117.949 88.0895 117.949C88.9134 117.949 89.6591 118.077 90.3267 118.332C90.9943 118.588 91.5649 118.96 92.0384 119.447C92.5118 119.93 92.8764 120.518 93.1321 121.209C93.3878 121.9 93.5156 122.679 93.5156 123.545V124.455H83.7713V122.295H89.9077C89.9029 121.983 89.8224 121.708 89.6662 121.472C89.5147 121.23 89.3087 121.043 89.0483 120.911C88.7926 120.773 88.5014 120.705 88.1747 120.705C87.8575 120.705 87.5663 120.773 87.3011 120.911C87.036 121.043 86.8229 121.228 86.6619 121.464C86.5057 121.701 86.4228 121.978 86.4134 122.295V124.625C86.4134 124.975 86.4867 125.288 86.6335 125.562C86.7803 125.837 86.991 126.053 87.2656 126.209C87.5402 126.365 87.8717 126.443 88.2599 126.443C88.5298 126.443 88.776 126.405 88.9986 126.33C89.2259 126.254 89.42 126.145 89.581 126.003C89.742 125.856 89.8603 125.681 89.9361 125.477H93.5156C93.3925 126.235 93.1013 126.893 92.642 127.452C92.1828 128.006 91.5743 128.437 90.8168 128.744C90.0639 129.047 89.1832 129.199 88.1747 129.199ZM99.0643 129.142C98.2878 129.142 97.5728 128.938 96.9194 128.531C96.2707 128.124 95.7499 127.506 95.3569 126.678C94.9686 125.849 94.7745 124.805 94.7745 123.545C94.7745 122.229 94.9781 121.159 95.3853 120.335C95.7972 119.511 96.3275 118.908 96.9762 118.524C97.6296 118.141 98.3162 117.949 99.0359 117.949C99.5756 117.949 100.049 118.044 100.456 118.233C100.864 118.418 101.204 118.666 101.479 118.979C101.754 119.286 101.962 119.625 102.104 119.994H102.161V114.455H106.081V129H102.189V127.21H102.104C101.953 127.58 101.735 127.911 101.451 128.205C101.171 128.493 100.83 128.723 100.428 128.893C100.03 129.059 99.5756 129.142 99.0643 129.142ZM100.513 126.131C100.873 126.131 101.181 126.027 101.436 125.818C101.697 125.605 101.896 125.307 102.033 124.923C102.175 124.535 102.246 124.076 102.246 123.545C102.246 123.006 102.175 122.544 102.033 122.161C101.896 121.772 101.697 121.476 101.436 121.273C101.181 121.064 100.873 120.96 100.513 120.96C100.153 120.96 99.8455 121.064 99.5898 121.273C99.3389 121.476 99.1448 121.772 99.0075 122.161C98.8749 122.544 98.8086 123.006 98.8086 123.545C98.8086 124.085 98.8749 124.549 99.0075 124.938C99.1448 125.321 99.3389 125.617 99.5898 125.825C99.8455 126.029 100.153 126.131 100.513 126.131ZM108.006 129V118.091H111.926V129H108.006ZM109.966 116.955C109.436 116.955 108.981 116.779 108.603 116.429C108.224 116.079 108.034 115.657 108.034 115.165C108.034 114.672 108.224 114.251 108.603 113.901C108.981 113.55 109.436 113.375 109.966 113.375C110.501 113.375 110.956 113.55 111.33 113.901C111.709 114.251 111.898 114.672 111.898 115.165C111.898 115.657 111.709 116.079 111.33 116.429C110.956 116.779 110.501 116.955 109.966 116.955ZM117.844 122.864V129H113.924V118.091H117.646V120.165H117.759C117.996 119.473 118.413 118.931 119.009 118.538C119.611 118.145 120.311 117.949 121.112 117.949C121.883 117.949 122.553 118.126 123.121 118.482C123.694 118.832 124.137 119.315 124.45 119.93C124.767 120.546 124.923 121.249 124.918 122.04V129H120.998V122.864C121.003 122.324 120.865 121.9 120.586 121.592C120.311 121.285 119.928 121.131 119.435 121.131C119.113 121.131 118.832 121.202 118.59 121.344C118.353 121.481 118.171 121.68 118.043 121.94C117.915 122.196 117.849 122.504 117.844 122.864Z" fill="#86092C"/>
<path d="M399.028 121.727C399.028 123.347 398.714 124.713 398.084 125.825C397.454 126.933 396.604 127.774 395.534 128.347C394.464 128.915 393.271 129.199 391.955 129.199C390.629 129.199 389.431 128.912 388.361 128.339C387.295 127.762 386.448 126.919 385.818 125.811C385.193 124.698 384.881 123.337 384.881 121.727C384.881 120.108 385.193 118.744 385.818 117.636C386.448 116.524 387.295 115.683 388.361 115.115C389.431 114.542 390.629 114.256 391.955 114.256C393.271 114.256 394.464 114.542 395.534 115.115C396.604 115.683 397.454 116.524 398.084 117.636C398.714 118.744 399.028 120.108 399.028 121.727ZM394.966 121.727C394.966 120.856 394.85 120.122 394.618 119.526C394.391 118.924 394.052 118.47 393.602 118.162C393.157 117.849 392.608 117.693 391.955 117.693C391.301 117.693 390.75 117.849 390.3 118.162C389.855 118.47 389.516 118.924 389.284 119.526C389.057 120.122 388.943 120.856 388.943 121.727C388.943 122.598 389.057 123.335 389.284 123.936C389.516 124.533 389.855 124.987 390.3 125.3C390.75 125.607 391.301 125.761 391.955 125.761C392.608 125.761 393.157 125.607 393.602 125.3C394.052 124.987 394.391 124.533 394.618 123.936C394.85 123.335 394.966 122.598 394.966 121.727ZM406.168 129.199C404.984 129.199 403.971 128.964 403.128 128.496C402.285 128.022 401.639 127.364 401.189 126.521C400.739 125.674 400.515 124.691 400.515 123.574C400.515 122.456 400.739 121.476 401.189 120.634C401.639 119.786 402.285 119.128 403.128 118.659C403.971 118.186 404.984 117.949 406.168 117.949C407.238 117.949 408.164 118.143 408.945 118.531C409.731 118.915 410.339 119.459 410.77 120.165C411.201 120.866 411.419 121.689 411.424 122.636H407.787C407.735 122.063 407.569 121.628 407.29 121.33C407.016 121.027 406.66 120.875 406.225 120.875C405.884 120.875 405.586 120.974 405.33 121.173C405.074 121.367 404.875 121.663 404.733 122.061C404.591 122.454 404.52 122.949 404.52 123.545C404.52 124.142 404.591 124.639 404.733 125.037C404.875 125.43 405.074 125.726 405.33 125.925C405.586 126.119 405.884 126.216 406.225 126.216C406.514 126.216 406.769 126.15 406.992 126.017C407.214 125.88 407.394 125.681 407.532 125.42C407.674 125.155 407.759 124.833 407.787 124.455H411.424C411.409 125.416 411.189 126.254 410.763 126.969C410.337 127.679 409.733 128.228 408.952 128.616C408.176 129.005 407.248 129.199 406.168 129.199ZM419.547 118.091V120.932H412.359V118.091H419.547ZM413.751 115.477H417.672V125.491C417.672 125.643 417.698 125.771 417.75 125.875C417.802 125.974 417.883 126.05 417.991 126.102C418.1 126.15 418.24 126.173 418.411 126.173C418.529 126.173 418.666 126.159 418.822 126.131C418.983 126.102 419.102 126.079 419.178 126.06L419.746 128.815C419.571 128.867 419.32 128.931 418.993 129.007C418.671 129.083 418.287 129.133 417.842 129.156C416.943 129.204 416.188 129.111 415.577 128.879C414.966 128.643 414.507 128.271 414.199 127.764C413.891 127.258 413.742 126.623 413.751 125.861V115.477ZM426.257 129.199C425.092 129.199 424.088 128.976 423.245 128.531C422.407 128.081 421.761 127.437 421.306 126.599C420.857 125.757 420.632 124.748 420.632 123.574C420.632 122.447 420.859 121.462 421.314 120.619C421.768 119.777 422.41 119.121 423.238 118.652C424.067 118.183 425.045 117.949 426.172 117.949C426.995 117.949 427.741 118.077 428.409 118.332C429.076 118.588 429.647 118.96 430.12 119.447C430.594 119.93 430.958 120.518 431.214 121.209C431.47 121.9 431.598 122.679 431.598 123.545V124.455H421.853V122.295H427.99C427.985 121.983 427.904 121.708 427.748 121.472C427.597 121.23 427.391 121.043 427.13 120.911C426.875 120.773 426.583 120.705 426.257 120.705C425.94 120.705 425.648 120.773 425.383 120.911C425.118 121.043 424.905 121.228 424.744 121.464C424.588 121.701 424.505 121.978 424.495 122.295V124.625C424.495 124.975 424.569 125.288 424.716 125.562C424.862 125.837 425.073 126.053 425.348 126.209C425.622 126.365 425.954 126.443 426.342 126.443C426.612 126.443 426.858 126.405 427.081 126.33C427.308 126.254 427.502 126.145 427.663 126.003C427.824 125.856 427.942 125.681 428.018 125.477H431.598C431.475 126.235 431.183 126.893 430.724 127.452C430.265 128.006 429.656 128.437 428.899 128.744C428.146 129.047 427.265 129.199 426.257 129.199ZM437.118 122.864V129H433.197V118.091H436.919V120.165H437.033C437.269 119.473 437.686 118.931 438.283 118.538C438.884 118.145 439.585 117.949 440.385 117.949C441.157 117.949 441.827 118.126 442.395 118.482C442.968 118.832 443.411 119.315 443.723 119.93C444.04 120.546 444.196 121.249 444.192 122.04V129H440.271V122.864C440.276 122.324 440.139 121.9 439.859 121.592C439.585 121.285 439.201 121.131 438.709 121.131C438.387 121.131 438.105 121.202 437.864 121.344C437.627 121.481 437.445 121.68 437.317 121.94C437.189 122.196 437.123 122.504 437.118 122.864ZM454.288 114.455L456.674 118.688H456.788L459.202 114.455H463.606L459.259 121.727L463.776 129H459.259L456.788 124.682H456.674L454.202 129H449.714L454.174 121.727L449.856 114.455H454.288Z" fill="#86092C"/>
</svg>
