<svg width="1200" height="400" viewBox="0 0 1200 400" fill="none" xmlns="http://www.w3.org/2000/svg">
<rect width="1200" height="400" rx="8" fill="#F5E1C0"/>
<path d="M41.875 59V29.9091H62.3295V36.2727H49.7727V41.2727H61.0795V47.6364H49.7727V59H41.875ZM64.8793 59V37.1818H72.4929V41.3295H72.7202C73.1179 39.7955 73.7476 38.6733 74.6094 37.9631C75.4806 37.2528 76.4986 36.8977 77.6634 36.8977C78.0043 36.8977 78.3404 36.9261 78.6719 36.983C79.0128 37.0303 79.3395 37.1013 79.652 37.196V43.8864C79.2637 43.7538 78.7855 43.6544 78.2173 43.5881C77.6491 43.5218 77.1615 43.4886 76.7543 43.4886C75.9872 43.4886 75.2959 43.6638 74.6804 44.0142C74.0743 44.3551 73.5961 44.8381 73.2457 45.4631C72.8954 46.0786 72.7202 46.803 72.7202 47.6364V59H64.8793ZM87.2869 59.3409C85.8949 59.3409 84.6638 59.1136 83.5938 58.6591C82.5331 58.1951 81.6998 57.4943 81.0938 56.5568C80.4877 55.6193 80.1847 54.4261 80.1847 52.9773C80.1847 51.7841 80.3883 50.7661 80.7955 49.9233C81.2027 49.071 81.7708 48.375 82.5 47.8352C83.2292 47.2955 84.0767 46.8835 85.0426 46.5994C86.018 46.3153 87.0691 46.1307 88.196 46.0455C89.4176 45.9508 90.3977 45.8371 91.1364 45.7045C91.8845 45.5625 92.4242 45.3684 92.7557 45.1222C93.0871 44.8665 93.2528 44.5303 93.2528 44.1136V44.0568C93.2528 43.4886 93.035 43.053 92.5994 42.75C92.1638 42.447 91.6051 42.2955 90.9233 42.2955C90.1752 42.2955 89.5644 42.4612 89.0909 42.7926C88.6269 43.1146 88.3475 43.6117 88.2528 44.2841H81.0369C81.1316 42.9583 81.553 41.7367 82.3011 40.6193C83.0587 39.4924 84.1619 38.5928 85.6108 37.9205C87.0597 37.2386 88.8684 36.8977 91.0369 36.8977C92.5994 36.8977 94.0009 37.0824 95.2415 37.4517C96.482 37.8116 97.5379 38.3182 98.4091 38.9716C99.2803 39.6155 99.9432 40.3731 100.398 41.2443C100.862 42.1061 101.094 43.0436 101.094 44.0568V59H93.7642V55.9318H93.5938C93.1581 56.7462 92.6278 57.4044 92.0028 57.9062C91.3873 58.4081 90.6818 58.7727 89.8864 59C89.1004 59.2273 88.2339 59.3409 87.2869 59.3409ZM89.8438 54.3977C90.4403 54.3977 90.9991 54.2746 91.5199 54.0284C92.0502 53.7822 92.4811 53.4271 92.8125 52.9631C93.1439 52.4991 93.3097 51.9356 93.3097 51.2727V49.4545C93.1013 49.5398 92.8788 49.6203 92.642 49.696C92.4148 49.7718 92.1686 49.8428 91.9034 49.9091C91.6477 49.9754 91.3731 50.0369 91.0795 50.0938C90.7955 50.1506 90.4972 50.2027 90.1847 50.25C89.5786 50.3447 89.0814 50.5009 88.6932 50.7188C88.3144 50.9271 88.0303 51.1875 87.8409 51.5C87.661 51.803 87.571 52.1439 87.571 52.5227C87.571 53.1288 87.7841 53.5928 88.2102 53.9148C88.6364 54.2367 89.1809 54.3977 89.8438 54.3977ZM104.84 59V37.1818H112.283V41.3295H112.511C112.965 39.9659 113.742 38.8864 114.84 38.0909C115.939 37.2955 117.246 36.8977 118.761 36.8977C120.295 36.8977 121.616 37.3049 122.724 38.1193C123.832 38.9242 124.499 39.9943 124.727 41.3295H124.954C125.323 39.9943 126.109 38.9242 127.312 38.1193C128.514 37.3049 129.925 36.8977 131.545 36.8977C133.638 36.8977 135.333 37.5701 136.63 38.9148C137.937 40.2595 138.59 42.0492 138.59 44.2841V59H130.749V46.2727C130.749 45.3163 130.508 44.5682 130.025 44.0284C129.542 43.4792 128.893 43.2045 128.079 43.2045C127.274 43.2045 126.635 43.4792 126.161 44.0284C125.697 44.5682 125.465 45.3163 125.465 46.2727V59H117.965V46.2727C117.965 45.3163 117.724 44.5682 117.241 44.0284C116.758 43.4792 116.109 43.2045 115.295 43.2045C114.755 43.2045 114.291 43.3277 113.903 43.5739C113.514 43.8201 113.211 44.1752 112.994 44.6392C112.785 45.0937 112.681 45.6383 112.681 46.2727V59H104.84ZM152.912 59.3977C150.582 59.3977 148.575 58.9527 146.889 58.0625C145.213 57.1629 143.92 55.875 143.011 54.1989C142.112 52.5133 141.662 50.4962 141.662 48.1477C141.662 45.8939 142.116 43.9242 143.026 42.2386C143.935 40.553 145.218 39.2415 146.875 38.304C148.532 37.3665 150.488 36.8977 152.741 36.8977C154.389 36.8977 155.881 37.1534 157.216 37.6648C158.551 38.1761 159.692 38.9195 160.639 39.8949C161.586 40.8608 162.315 42.035 162.827 43.4176C163.338 44.8002 163.594 46.358 163.594 48.0909V49.9091H144.105V45.5909H156.378C156.368 44.9659 156.207 44.4167 155.895 43.9432C155.592 43.4602 155.18 43.0862 154.659 42.821C154.148 42.5464 153.565 42.4091 152.912 42.4091C152.277 42.4091 151.695 42.5464 151.165 42.821C150.634 43.0862 150.208 43.4555 149.886 43.929C149.574 44.4025 149.408 44.9564 149.389 45.5909V50.25C149.389 50.9508 149.536 51.5758 149.83 52.125C150.123 52.6742 150.545 53.1051 151.094 53.4176C151.643 53.7301 152.306 53.8864 153.082 53.8864C153.622 53.8864 154.115 53.8106 154.56 53.6591C155.014 53.5076 155.402 53.2898 155.724 53.0057C156.046 52.7121 156.283 52.3617 156.435 51.9545H163.594C163.348 53.4697 162.765 54.786 161.847 55.9034C160.928 57.0114 159.711 57.8731 158.196 58.4886C156.69 59.0947 154.929 59.3977 152.912 59.3977ZM170.384 59L164.929 37.1818H172.77L175.27 50.4773H175.44L178.224 37.1818H185.838L188.736 50.3636H188.906L191.293 37.1818H199.134L193.679 59H185.213L182.145 47.2955H181.918L178.849 59H170.384ZM211.641 59.3977C209.273 59.3977 207.247 58.929 205.561 57.9915C203.875 57.0445 202.583 55.7282 201.683 54.0426C200.784 52.3475 200.334 50.3826 200.334 48.1477C200.334 45.9129 200.784 43.9527 201.683 42.267C202.583 40.572 203.875 39.2557 205.561 38.3182C207.247 37.3712 209.273 36.8977 211.641 36.8977C214.008 36.8977 216.035 37.3712 217.72 38.3182C219.406 39.2557 220.698 40.572 221.598 42.267C222.498 43.9527 222.947 45.9129 222.947 48.1477C222.947 50.3826 222.498 52.3475 221.598 54.0426C220.698 55.7282 219.406 57.0445 217.72 57.9915C216.035 58.929 214.008 59.3977 211.641 59.3977ZM211.697 53.6023C212.36 53.6023 212.933 53.3797 213.416 52.9347C213.899 52.4896 214.273 51.8551 214.538 51.0312C214.804 50.2074 214.936 49.2273 214.936 48.0909C214.936 46.9451 214.804 45.965 214.538 45.1506C214.273 44.3267 213.899 43.6922 213.416 43.2472C212.933 42.8021 212.36 42.5795 211.697 42.5795C210.997 42.5795 210.395 42.8021 209.893 43.2472C209.392 43.6922 209.008 44.3267 208.743 45.1506C208.478 45.965 208.345 46.9451 208.345 48.0909C208.345 49.2273 208.478 50.2074 208.743 51.0312C209.008 51.8551 209.392 52.4896 209.893 52.9347C210.395 53.3797 210.997 53.6023 211.697 53.6023ZM226.129 59V37.1818H233.743V41.3295H233.97C234.368 39.7955 234.998 38.6733 235.859 37.9631C236.731 37.2528 237.749 36.8977 238.913 36.8977C239.254 36.8977 239.59 36.9261 239.922 36.983C240.263 37.0303 240.589 37.1013 240.902 37.196V43.8864C240.514 43.7538 240.036 43.6544 239.467 43.5881C238.899 43.5218 238.411 43.4886 238.004 43.4886C237.237 43.4886 236.546 43.6638 235.93 44.0142C235.324 44.3551 234.846 44.8381 234.496 45.4631C234.145 46.0786 233.97 46.803 233.97 47.6364V59H226.129ZM250.518 53.8295L250.575 44.5114H251.598L256.882 37.1818H265.689L256.825 48.6023H254.609L250.518 53.8295ZM243.473 59V29.9091H251.314V59H243.473ZM256.939 59L251.939 50.3636L257.053 44.7955L265.916 59H256.939ZM287.674 44.2841H280.458C280.42 43.839 280.264 43.4555 279.989 43.1335C279.715 42.8116 279.36 42.5653 278.924 42.3949C278.498 42.215 278.024 42.125 277.504 42.125C276.831 42.125 276.254 42.2481 275.771 42.4943C275.288 42.7405 275.051 43.0909 275.06 43.5455C275.051 43.8674 275.188 44.1657 275.472 44.4403C275.766 44.715 276.329 44.928 277.163 45.0795L281.594 45.875C283.829 46.2822 285.491 46.9687 286.58 47.9347C287.679 48.8911 288.233 50.1742 288.242 51.7841C288.233 53.3371 287.769 54.6866 286.85 55.8324C285.941 56.9687 284.696 57.8494 283.114 58.4744C281.542 59.09 279.748 59.3977 277.731 59.3977C274.397 59.3977 271.789 58.7159 269.904 57.3523C268.029 55.9886 266.983 54.1894 266.765 51.9545H274.549C274.653 52.6458 274.994 53.1809 275.572 53.5597C276.159 53.929 276.897 54.1136 277.788 54.1136C278.507 54.1136 279.099 53.9905 279.563 53.7443C280.037 53.4981 280.278 53.1477 280.288 52.6932C280.278 52.2765 280.07 51.9451 279.663 51.6989C279.265 51.4527 278.64 51.2538 277.788 51.1023L273.924 50.4205C271.699 50.0322 270.032 49.2936 268.924 48.2045C267.816 47.1155 267.267 45.714 267.276 44C267.267 42.4848 267.665 41.2017 268.469 40.1506C269.284 39.09 270.444 38.285 271.95 37.7358C273.465 37.1771 275.259 36.8977 277.333 36.8977C280.487 36.8977 282.972 37.5511 284.79 38.858C286.618 40.1648 287.579 41.9735 287.674 44.2841Z" fill="#86092C"/>
<path d="M873.875 59V29.9091H886.432C888.591 29.9091 890.48 30.3021 892.099 31.0881C893.719 31.8741 894.978 33.0057 895.878 34.483C896.777 35.9602 897.227 37.7311 897.227 39.7955C897.227 41.8788 896.763 43.6354 895.835 45.0653C894.917 46.4953 893.624 47.5748 891.957 48.304C890.3 49.0331 888.364 49.3977 886.148 49.3977H878.648V43.2614H884.557C885.485 43.2614 886.276 43.1477 886.929 42.9205C887.592 42.6837 888.098 42.3097 888.449 41.7983C888.809 41.2869 888.989 40.6193 888.989 39.7955C888.989 38.9621 888.809 38.285 888.449 37.7642C888.098 37.2339 887.592 36.8456 886.929 36.5994C886.276 36.3437 885.485 36.2159 884.557 36.2159H881.773V59H873.875ZM890.92 45.6477L898.193 59H889.614L882.511 45.6477H890.92ZM910.693 59.3977C908.364 59.3977 906.356 58.9527 904.67 58.0625C902.994 57.1629 901.702 55.875 900.793 54.1989C899.893 52.5133 899.443 50.4962 899.443 48.1477C899.443 45.8939 899.898 43.9242 900.807 42.2386C901.716 40.553 902.999 39.2415 904.656 38.304C906.313 37.3665 908.269 36.8977 910.523 36.8977C912.17 36.8977 913.662 37.1534 914.997 37.6648C916.332 38.1761 917.473 38.9195 918.42 39.8949C919.367 40.8608 920.097 42.035 920.608 43.4176C921.119 44.8002 921.375 46.358 921.375 48.0909V49.9091H901.886V45.5909H914.159C914.15 44.9659 913.989 44.4167 913.676 43.9432C913.373 43.4602 912.961 43.0862 912.44 42.821C911.929 42.5464 911.347 42.4091 910.693 42.4091C910.059 42.4091 909.476 42.5464 908.946 42.821C908.416 43.0862 907.99 43.4555 907.668 43.929C907.355 44.4025 907.189 44.9564 907.17 45.5909V50.25C907.17 50.9508 907.317 51.5758 907.611 52.125C907.904 52.6742 908.326 53.1051 908.875 53.4176C909.424 53.7301 910.087 53.8864 910.864 53.8864C911.403 53.8864 911.896 53.8106 912.341 53.6591C912.795 53.5076 913.184 53.2898 913.506 53.0057C913.828 52.7121 914.064 52.3617 914.216 51.9545H921.375C921.129 53.4697 920.546 54.786 919.628 55.9034C918.709 57.0114 917.492 57.8731 915.977 58.4886C914.472 59.0947 912.71 59.3977 910.693 59.3977ZM930.654 59.3409C929.262 59.3409 928.031 59.1136 926.961 58.6591C925.9 58.1951 925.067 57.4943 924.461 56.5568C923.855 55.6193 923.552 54.4261 923.552 52.9773C923.552 51.7841 923.755 50.7661 924.163 49.9233C924.57 49.071 925.138 48.375 925.867 47.8352C926.596 47.2955 927.444 46.8835 928.41 46.5994C929.385 46.3153 930.436 46.1307 931.563 46.0455C932.785 45.9508 933.765 45.8371 934.504 45.7045C935.252 45.5625 935.791 45.3684 936.123 45.1222C936.454 44.8665 936.62 44.5303 936.62 44.1136V44.0568C936.62 43.4886 936.402 43.053 935.967 42.75C935.531 42.447 934.972 42.2955 934.29 42.2955C933.542 42.2955 932.932 42.4612 932.458 42.7926C931.994 43.1146 931.715 43.6117 931.62 44.2841H924.404C924.499 42.9583 924.92 41.7367 925.668 40.6193C926.426 39.4924 927.529 38.5928 928.978 37.9205C930.427 37.2386 932.236 36.8977 934.404 36.8977C935.967 36.8977 937.368 37.0824 938.609 37.4517C939.849 37.8116 940.905 38.3182 941.776 38.9716C942.647 39.6155 943.31 40.3731 943.765 41.2443C944.229 42.1061 944.461 43.0436 944.461 44.0568V59H937.131V55.9318H936.961C936.525 56.7462 935.995 57.4044 935.37 57.9062C934.754 58.4081 934.049 58.7727 933.254 59C932.468 59.2273 931.601 59.3409 930.654 59.3409ZM933.211 54.3977C933.808 54.3977 934.366 54.2746 934.887 54.0284C935.417 53.7822 935.848 53.4271 936.18 52.9631C936.511 52.4991 936.677 51.9356 936.677 51.2727V49.4545C936.469 49.5398 936.246 49.6203 936.009 49.696C935.782 49.7718 935.536 49.8428 935.271 49.9091C935.015 49.9754 934.74 50.0369 934.447 50.0938C934.163 50.1506 933.864 50.2027 933.552 50.25C932.946 50.3447 932.449 50.5009 932.06 50.7188C931.682 50.9271 931.397 51.1875 931.208 51.5C931.028 51.803 930.938 52.1439 930.938 52.5227C930.938 53.1288 931.151 53.5928 931.577 53.9148C932.004 54.2367 932.548 54.3977 933.211 54.3977ZM958.719 59.3977C956.351 59.3977 954.325 58.929 952.639 57.9915C950.954 57.0445 949.661 55.7282 948.761 54.0426C947.862 52.3475 947.412 50.3826 947.412 48.1477C947.412 45.9129 947.862 43.9527 948.761 42.267C949.661 40.572 950.954 39.2557 952.639 38.3182C954.325 37.3712 956.351 36.8977 958.719 36.8977C960.859 36.8977 962.71 37.286 964.273 38.0625C965.845 38.8295 967.062 39.9186 967.923 41.3295C968.785 42.7311 969.221 44.3788 969.23 46.2727H961.957C961.853 45.1269 961.522 44.2557 960.963 43.6591C960.414 43.053 959.704 42.75 958.832 42.75C958.151 42.75 957.554 42.9489 957.043 43.3466C956.531 43.7348 956.134 44.3267 955.849 45.1222C955.565 45.9081 955.423 46.8977 955.423 48.0909C955.423 49.2841 955.565 50.2784 955.849 51.0739C956.134 51.8598 956.531 52.4517 957.043 52.8494C957.554 53.2377 958.151 53.4318 958.832 53.4318C959.41 53.4318 959.921 53.2992 960.366 53.0341C960.812 52.7595 961.171 52.3617 961.446 51.8409C961.73 51.3106 961.901 50.6667 961.957 49.9091H969.23C969.202 51.8314 968.761 53.5076 967.909 54.9375C967.057 56.358 965.849 57.4564 964.287 58.233C962.734 59.0095 960.878 59.3977 958.719 59.3977ZM985.477 37.1818V42.8636H971.102V37.1818H985.477ZM973.886 31.9545H981.727V51.983C981.727 52.286 981.779 52.5417 981.883 52.75C981.987 52.9489 982.148 53.1004 982.366 53.2045C982.584 53.2992 982.863 53.3466 983.204 53.3466C983.441 53.3466 983.715 53.3182 984.028 53.2614C984.35 53.2045 984.586 53.1572 984.738 53.1193L985.874 58.6307C985.524 58.7348 985.022 58.8627 984.369 59.0142C983.725 59.1657 982.958 59.2652 982.067 59.3125C980.268 59.4072 978.758 59.2225 977.536 58.7585C976.315 58.285 975.396 57.5417 974.781 56.5284C974.165 55.5152 973.867 54.2462 973.886 52.7216V31.9545ZM1006.59 20.5341V68.375H998.918V20.5341H1006.59ZM1045.88 29.9091V59H1039.29L1028.78 43.7159H1028.61V59H1020.71V29.9091H1027.42L1037.76 45.1364H1037.98V29.9091H1045.88ZM1060.19 59.3977C1057.86 59.3977 1055.85 58.9527 1054.16 58.0625C1052.49 57.1629 1051.19 55.875 1050.28 54.1989C1049.39 52.5133 1048.94 50.4962 1048.94 48.1477C1048.94 45.8939 1049.39 43.9242 1050.3 42.2386C1051.21 40.553 1052.49 39.2415 1054.15 38.304C1055.81 37.3665 1057.76 36.8977 1060.01 36.8977C1061.66 36.8977 1063.15 37.1534 1064.49 37.6648C1065.82 38.1761 1066.97 38.9195 1067.91 39.8949C1068.86 40.8608 1069.59 42.035 1070.1 43.4176C1070.61 44.8002 1070.87 46.358 1070.87 48.0909V49.9091H1051.38V45.5909H1063.65C1063.64 44.9659 1063.48 44.4167 1063.17 43.9432C1062.87 43.4602 1062.45 43.0862 1061.93 42.821C1061.42 42.5464 1060.84 42.4091 1060.19 42.4091C1059.55 42.4091 1058.97 42.5464 1058.44 42.821C1057.91 43.0862 1057.48 43.4555 1057.16 43.929C1056.85 44.4025 1056.68 44.9564 1056.66 45.5909V50.25C1056.66 50.9508 1056.81 51.5758 1057.1 52.125C1057.4 52.6742 1057.82 53.1051 1058.37 53.4176C1058.92 53.7301 1059.58 53.8864 1060.36 53.8864C1060.9 53.8864 1061.39 53.8106 1061.83 53.6591C1062.29 53.5076 1062.68 53.2898 1063 53.0057C1063.32 52.7121 1063.56 52.3617 1063.71 51.9545H1070.87C1070.62 53.4697 1070.04 54.786 1069.12 55.9034C1068.2 57.0114 1066.98 57.8731 1065.47 58.4886C1063.96 59.0947 1062.2 59.3977 1060.19 59.3977ZM1080.59 37.1818L1083.78 43.9432L1087.13 37.1818H1094.91L1089.06 48.0909L1095.2 59H1087.47L1083.78 52.0682L1080.2 59H1072.36L1078.55 48.0909L1072.75 37.1818H1080.59ZM1110.71 37.1818V42.8636H1096.34V37.1818H1110.71ZM1099.12 31.9545H1106.96V51.983C1106.96 52.286 1107.01 52.5417 1107.12 52.75C1107.22 52.9489 1107.38 53.1004 1107.6 53.2045C1107.82 53.2992 1108.1 53.3466 1108.44 53.3466C1108.67 53.3466 1108.95 53.3182 1109.26 53.2614C1109.58 53.2045 1109.82 53.1572 1109.97 53.1193L1111.11 58.6307C1110.76 58.7348 1110.26 58.8627 1109.6 59.0142C1108.96 59.1657 1108.19 59.2652 1107.3 59.3125C1105.5 59.4072 1103.99 59.2225 1102.77 58.7585C1101.55 58.285 1100.63 57.5417 1100.01 56.5284C1099.4 55.5152 1099.1 54.2462 1099.12 52.7216V31.9545ZM1118.17 59.4545C1117.07 59.4545 1116.13 59.071 1115.35 58.304C1114.57 57.5275 1114.19 56.5852 1114.19 55.4773C1114.19 54.3977 1114.57 53.4744 1115.35 52.7074C1116.13 51.9403 1117.07 51.5568 1118.17 51.5568C1119.21 51.5568 1120.13 51.9403 1120.93 52.7074C1121.73 53.4744 1122.14 54.3977 1122.15 55.4773C1122.14 56.2159 1121.95 56.8883 1121.57 57.4943C1121.2 58.0909 1120.71 58.5691 1120.12 58.929C1119.52 59.2794 1118.87 59.4545 1118.17 59.4545ZM1126.41 37.1818H1134.25V59.7386C1134.25 61.6515 1133.85 63.1477 1133.04 64.2273C1132.25 65.3068 1131.13 66.0691 1129.69 66.5142C1128.25 66.9593 1126.57 67.1818 1124.65 67.1818C1124.37 67.1818 1124.1 67.1771 1123.87 67.1676C1123.62 67.1581 1123.35 67.1439 1123.06 67.125V61.3295C1123.25 61.3485 1123.41 61.3627 1123.56 61.3722C1123.69 61.3816 1123.83 61.3864 1123.97 61.3864C1124.9 61.3864 1125.54 61.2396 1125.88 60.946C1126.24 60.6619 1126.41 60.2027 1126.41 59.5682V37.1818ZM1130.33 34.9091C1129.27 34.9091 1128.36 34.5587 1127.6 33.858C1126.85 33.1572 1126.47 32.3144 1126.47 31.3295C1126.47 30.3447 1126.85 29.5019 1127.6 28.8011C1128.36 28.1004 1129.27 27.75 1130.33 27.75C1131.4 27.75 1132.31 28.1004 1133.06 28.8011C1133.82 29.5019 1134.19 30.3447 1134.19 31.3295C1134.19 32.3144 1133.82 33.1572 1133.06 33.858C1132.31 34.5587 1131.4 34.9091 1130.33 34.9091ZM1158.19 44.2841H1150.97C1150.94 43.839 1150.78 43.4555 1150.5 43.1335C1150.23 42.8116 1149.88 42.5653 1149.44 42.3949C1149.01 42.215 1148.54 42.125 1148.02 42.125C1147.35 42.125 1146.77 42.2481 1146.29 42.4943C1145.8 42.7405 1145.57 43.0909 1145.58 43.5455C1145.57 43.8674 1145.7 44.1657 1145.99 44.4403C1146.28 44.715 1146.84 44.928 1147.68 45.0795L1152.11 45.875C1154.34 46.2822 1156.01 46.9687 1157.1 47.9347C1158.19 48.8911 1158.75 50.1742 1158.76 51.7841C1158.75 53.3371 1158.28 54.6866 1157.37 55.8324C1156.46 56.9687 1155.21 57.8494 1153.63 58.4744C1152.06 59.09 1150.26 59.3977 1148.25 59.3977C1144.91 59.3977 1142.3 58.7159 1140.42 57.3523C1138.54 55.9886 1137.5 54.1894 1137.28 51.9545H1145.06C1145.17 52.6458 1145.51 53.1809 1146.09 53.5597C1146.67 53.929 1147.41 54.1136 1148.3 54.1136C1149.02 54.1136 1149.61 53.9905 1150.08 53.7443C1150.55 53.4981 1150.79 53.1477 1150.8 52.6932C1150.79 52.2765 1150.59 51.9451 1150.18 51.6989C1149.78 51.4527 1149.16 51.2538 1148.3 51.1023L1144.44 50.4205C1142.21 50.0322 1140.55 49.2936 1139.44 48.2045C1138.33 47.1155 1137.78 45.714 1137.79 44C1137.78 42.4848 1138.18 41.2017 1138.99 40.1506C1139.8 39.09 1140.96 38.285 1142.47 37.7358C1143.98 37.1771 1145.77 36.8977 1147.85 36.8977C1151 36.8977 1153.49 37.5511 1155.31 38.858C1157.13 40.1648 1158.09 41.9735 1158.19 44.2841Z" fill="#86092C"/>
<path d="M41.875 157V127.909H49.7727V150.636H61.5341V157H41.875ZM70.9197 157.341C69.5277 157.341 68.2966 157.114 67.2266 156.659C66.166 156.195 65.3326 155.494 64.7266 154.557C64.1205 153.619 63.8175 152.426 63.8175 150.977C63.8175 149.784 64.0211 148.766 64.4283 147.923C64.8355 147.071 65.4036 146.375 66.1328 145.835C66.862 145.295 67.7095 144.884 68.6754 144.599C69.6508 144.315 70.7019 144.131 71.8288 144.045C73.0504 143.951 74.0305 143.837 74.7692 143.705C75.5173 143.562 76.0571 143.368 76.3885 143.122C76.7199 142.866 76.8857 142.53 76.8857 142.114V142.057C76.8857 141.489 76.6679 141.053 76.2322 140.75C75.7966 140.447 75.2379 140.295 74.5561 140.295C73.808 140.295 73.1972 140.461 72.7237 140.793C72.2597 141.115 71.9804 141.612 71.8857 142.284H64.6697C64.7644 140.958 65.1858 139.737 65.9339 138.619C66.6915 137.492 67.7947 136.593 69.2436 135.92C70.6925 135.239 72.5012 134.898 74.6697 134.898C76.2322 134.898 77.6338 135.082 78.8743 135.452C80.1148 135.812 81.1707 136.318 82.0419 136.972C82.9131 137.616 83.576 138.373 84.0305 139.244C84.4946 140.106 84.7266 141.044 84.7266 142.057V157H77.397V153.932H77.2266C76.791 154.746 76.2607 155.404 75.6357 155.906C75.0201 156.408 74.3146 156.773 73.5192 157C72.7332 157.227 71.8667 157.341 70.9197 157.341ZM73.4766 152.398C74.0732 152.398 74.6319 152.275 75.1527 152.028C75.683 151.782 76.1139 151.427 76.4453 150.963C76.7768 150.499 76.9425 149.936 76.9425 149.273V147.455C76.7341 147.54 76.5116 147.62 76.2749 147.696C76.0476 147.772 75.8014 147.843 75.5362 147.909C75.2805 147.975 75.0059 148.037 74.7124 148.094C74.4283 148.151 74.13 148.203 73.8175 148.25C73.2114 148.345 72.7143 148.501 72.326 148.719C71.9472 148.927 71.6631 149.188 71.4737 149.5C71.2938 149.803 71.2038 150.144 71.2038 150.523C71.2038 151.129 71.4169 151.593 71.843 151.915C72.2692 152.237 72.8137 152.398 73.4766 152.398ZM96.3139 144.727V157H88.473V135.182H95.9162V139.33H96.1435C96.617 137.947 97.4503 136.863 98.6435 136.077C99.8461 135.291 101.248 134.898 102.848 134.898C104.392 134.898 105.732 135.253 106.868 135.963C108.014 136.664 108.899 137.63 109.524 138.861C110.159 140.092 110.471 141.498 110.462 143.08V157H102.621V144.727C102.63 143.648 102.356 142.8 101.797 142.185C101.248 141.569 100.481 141.261 99.4957 141.261C98.8518 141.261 98.2884 141.403 97.8054 141.688C97.3319 141.962 96.9673 142.36 96.7116 142.881C96.456 143.392 96.3234 144.008 96.3139 144.727ZM124.844 165.636C122.656 165.636 120.781 165.324 119.219 164.699C117.666 164.083 116.458 163.231 115.597 162.142C114.744 161.063 114.266 159.822 114.162 158.42H121.719C121.795 158.884 121.984 159.259 122.287 159.543C122.59 159.827 122.978 160.03 123.452 160.153C123.935 160.286 124.474 160.352 125.071 160.352C126.084 160.352 126.922 160.106 127.585 159.614C128.258 159.121 128.594 158.231 128.594 156.943V153.25H128.366C128.082 153.989 127.647 154.618 127.06 155.139C126.473 155.651 125.767 156.044 124.943 156.318C124.119 156.583 123.215 156.716 122.23 156.716C120.677 156.716 119.247 156.356 117.94 155.636C116.643 154.917 115.601 153.776 114.815 152.213C114.039 150.651 113.651 148.61 113.651 146.091C113.651 143.458 114.058 141.318 114.872 139.67C115.696 138.023 116.757 136.815 118.054 136.048C119.361 135.281 120.734 134.898 122.173 134.898C123.253 134.898 124.2 135.087 125.014 135.466C125.829 135.835 126.51 136.332 127.06 136.957C127.609 137.573 128.026 138.25 128.31 138.989H128.48V135.182H136.321V156.943C136.321 158.79 135.843 160.357 134.886 161.645C133.939 162.942 132.604 163.932 130.881 164.614C129.157 165.295 127.145 165.636 124.844 165.636ZM125.128 151.148C125.848 151.148 126.463 150.949 126.974 150.551C127.495 150.144 127.893 149.566 128.168 148.818C128.452 148.061 128.594 147.152 128.594 146.091C128.594 145.011 128.452 144.088 128.168 143.321C127.893 142.545 127.495 141.953 126.974 141.545C126.463 141.129 125.848 140.92 125.128 140.92C124.408 140.92 123.793 141.129 123.281 141.545C122.779 141.953 122.391 142.545 122.116 143.321C121.851 144.088 121.719 145.011 121.719 146.091C121.719 147.17 121.851 148.089 122.116 148.847C122.391 149.595 122.779 150.168 123.281 150.565C123.793 150.954 124.408 151.148 125.128 151.148ZM154.457 147.455V135.182H162.298V157H154.854V152.852H154.627C154.154 154.244 153.325 155.333 152.141 156.119C150.958 156.896 149.551 157.284 147.923 157.284C146.398 157.284 145.063 156.934 143.917 156.233C142.781 155.532 141.895 154.566 141.261 153.335C140.636 152.104 140.318 150.693 140.309 149.102V135.182H148.15V147.455C148.159 148.534 148.434 149.382 148.974 149.997C149.523 150.613 150.29 150.92 151.275 150.92C151.928 150.92 152.492 150.783 152.965 150.509C153.448 150.224 153.817 149.827 154.073 149.315C154.338 148.795 154.466 148.174 154.457 147.455ZM172.365 157.341C170.973 157.341 169.742 157.114 168.672 156.659C167.611 156.195 166.778 155.494 166.172 154.557C165.566 153.619 165.263 152.426 165.263 150.977C165.263 149.784 165.466 148.766 165.874 147.923C166.281 147.071 166.849 146.375 167.578 145.835C168.307 145.295 169.155 144.884 170.121 144.599C171.096 144.315 172.147 144.131 173.274 144.045C174.496 143.951 175.476 143.837 176.214 143.705C176.963 143.562 177.502 143.368 177.834 143.122C178.165 142.866 178.331 142.53 178.331 142.114V142.057C178.331 141.489 178.113 141.053 177.678 140.75C177.242 140.447 176.683 140.295 176.001 140.295C175.253 140.295 174.643 140.461 174.169 140.793C173.705 141.115 173.426 141.612 173.331 142.284H166.115C166.21 140.958 166.631 139.737 167.379 138.619C168.137 137.492 169.24 136.593 170.689 135.92C172.138 135.239 173.946 134.898 176.115 134.898C177.678 134.898 179.079 135.082 180.32 135.452C181.56 135.812 182.616 136.318 183.487 136.972C184.358 137.616 185.021 138.373 185.476 139.244C185.94 140.106 186.172 141.044 186.172 142.057V157H178.842V153.932H178.672C178.236 154.746 177.706 155.404 177.081 155.906C176.465 156.408 175.76 156.773 174.964 157C174.179 157.227 173.312 157.341 172.365 157.341ZM174.922 152.398C175.518 152.398 176.077 152.275 176.598 152.028C177.128 151.782 177.559 151.427 177.891 150.963C178.222 150.499 178.388 149.936 178.388 149.273V147.455C178.179 147.54 177.957 147.62 177.72 147.696C177.493 147.772 177.247 147.843 176.982 147.909C176.726 147.975 176.451 148.037 176.158 148.094C175.874 148.151 175.575 148.203 175.263 148.25C174.657 148.345 174.16 148.501 173.771 148.719C173.393 148.927 173.108 149.188 172.919 149.5C172.739 149.803 172.649 150.144 172.649 150.523C172.649 151.129 172.862 151.593 173.288 151.915C173.714 152.237 174.259 152.398 174.922 152.398ZM200.43 165.636C198.242 165.636 196.367 165.324 194.805 164.699C193.252 164.083 192.044 163.231 191.183 162.142C190.33 161.063 189.852 159.822 189.748 158.42H197.305C197.38 158.884 197.57 159.259 197.873 159.543C198.176 159.827 198.564 160.03 199.038 160.153C199.521 160.286 200.06 160.352 200.657 160.352C201.67 160.352 202.508 160.106 203.171 159.614C203.844 159.121 204.18 158.231 204.18 156.943V153.25H203.952C203.668 153.989 203.233 154.618 202.646 155.139C202.058 155.651 201.353 156.044 200.529 156.318C199.705 156.583 198.801 156.716 197.816 156.716C196.263 156.716 194.833 156.356 193.526 155.636C192.229 154.917 191.187 153.776 190.401 152.213C189.625 150.651 189.237 148.61 189.237 146.091C189.237 143.458 189.644 141.318 190.458 139.67C191.282 138.023 192.343 136.815 193.64 136.048C194.947 135.281 196.32 134.898 197.759 134.898C198.839 134.898 199.786 135.087 200.6 135.466C201.415 135.835 202.096 136.332 202.646 136.957C203.195 137.573 203.612 138.25 203.896 138.989H204.066V135.182H211.907V156.943C211.907 158.79 211.429 160.357 210.472 161.645C209.525 162.942 208.19 163.932 206.467 164.614C204.743 165.295 202.731 165.636 200.43 165.636ZM200.714 151.148C201.433 151.148 202.049 150.949 202.56 150.551C203.081 150.144 203.479 149.566 203.754 148.818C204.038 148.061 204.18 147.152 204.18 146.091C204.18 145.011 204.038 144.088 203.754 143.321C203.479 142.545 203.081 141.953 202.56 141.545C202.049 141.129 201.433 140.92 200.714 140.92C199.994 140.92 199.379 141.129 198.867 141.545C198.365 141.953 197.977 142.545 197.702 143.321C197.437 144.088 197.305 145.011 197.305 146.091C197.305 147.17 197.437 148.089 197.702 148.847C197.977 149.595 198.365 150.168 198.867 150.565C199.379 150.954 199.994 151.148 200.714 151.148ZM226.349 157.398C224.02 157.398 222.012 156.953 220.327 156.062C218.651 155.163 217.358 153.875 216.449 152.199C215.549 150.513 215.099 148.496 215.099 146.148C215.099 143.894 215.554 141.924 216.463 140.239C217.372 138.553 218.655 137.241 220.312 136.304C221.97 135.366 223.925 134.898 226.179 134.898C227.827 134.898 229.318 135.153 230.653 135.665C231.989 136.176 233.13 136.92 234.077 137.895C235.024 138.861 235.753 140.035 236.264 141.418C236.776 142.8 237.031 144.358 237.031 146.091V147.909H217.543V143.591H229.815C229.806 142.966 229.645 142.417 229.332 141.943C229.029 141.46 228.617 141.086 228.097 140.821C227.585 140.546 227.003 140.409 226.349 140.409C225.715 140.409 225.133 140.546 224.602 140.821C224.072 141.086 223.646 141.455 223.324 141.929C223.011 142.402 222.846 142.956 222.827 143.591V148.25C222.827 148.951 222.973 149.576 223.267 150.125C223.561 150.674 223.982 151.105 224.531 151.418C225.08 151.73 225.743 151.886 226.52 151.886C227.06 151.886 227.552 151.811 227.997 151.659C228.452 151.508 228.84 151.29 229.162 151.006C229.484 150.712 229.721 150.362 229.872 149.955H237.031C236.785 151.47 236.203 152.786 235.284 153.903C234.366 155.011 233.149 155.873 231.634 156.489C230.128 157.095 228.366 157.398 226.349 157.398ZM260.174 142.284H252.958C252.92 141.839 252.764 141.455 252.489 141.134C252.215 140.812 251.86 140.565 251.424 140.395C250.998 140.215 250.524 140.125 250.004 140.125C249.331 140.125 248.754 140.248 248.271 140.494C247.788 140.741 247.551 141.091 247.56 141.545C247.551 141.867 247.688 142.166 247.972 142.44C248.266 142.715 248.829 142.928 249.663 143.08L254.094 143.875C256.329 144.282 257.991 144.969 259.08 145.935C260.179 146.891 260.733 148.174 260.742 149.784C260.733 151.337 260.269 152.687 259.35 153.832C258.441 154.969 257.196 155.849 255.614 156.474C254.042 157.09 252.248 157.398 250.231 157.398C246.897 157.398 244.289 156.716 242.404 155.352C240.529 153.989 239.483 152.189 239.265 149.955H247.049C247.153 150.646 247.494 151.181 248.072 151.56C248.659 151.929 249.397 152.114 250.288 152.114C251.007 152.114 251.599 151.991 252.063 151.744C252.537 151.498 252.778 151.148 252.788 150.693C252.778 150.277 252.57 149.945 252.163 149.699C251.765 149.453 251.14 149.254 250.288 149.102L246.424 148.42C244.199 148.032 242.532 147.294 241.424 146.205C240.316 145.116 239.767 143.714 239.776 142C239.767 140.485 240.165 139.202 240.969 138.151C241.784 137.09 242.944 136.285 244.45 135.736C245.965 135.177 247.759 134.898 249.833 134.898C252.987 134.898 255.472 135.551 257.29 136.858C259.118 138.165 260.079 139.973 260.174 142.284Z" fill="#86092C"/>
<path d="M703.864 127.909H711.648V147.852C711.638 149.746 711.16 151.413 710.213 152.852C709.276 154.282 707.978 155.4 706.321 156.205C704.673 157 702.775 157.398 700.625 157.398C698.759 157.398 697.055 157.076 695.511 156.432C693.968 155.778 692.737 154.756 691.818 153.364C690.9 151.962 690.445 150.144 690.455 147.909H698.352C698.381 148.638 698.504 149.254 698.722 149.756C698.949 150.258 699.261 150.636 699.659 150.892C700.066 151.138 700.559 151.261 701.136 151.261C701.723 151.261 702.216 151.134 702.614 150.878C703.021 150.622 703.329 150.243 703.537 149.741C703.745 149.23 703.854 148.6 703.864 147.852V127.909ZM721.584 157.341C720.192 157.341 718.961 157.114 717.891 156.659C716.83 156.195 715.997 155.494 715.391 154.557C714.785 153.619 714.482 152.426 714.482 150.977C714.482 149.784 714.685 148.766 715.092 147.923C715.5 147.071 716.068 146.375 716.797 145.835C717.526 145.295 718.374 144.884 719.339 144.599C720.315 144.315 721.366 144.131 722.493 144.045C723.714 143.951 724.695 143.837 725.433 143.705C726.181 143.562 726.721 143.368 727.053 143.122C727.384 142.866 727.55 142.53 727.55 142.114V142.057C727.55 141.489 727.332 141.053 726.896 140.75C726.461 140.447 725.902 140.295 725.22 140.295C724.472 140.295 723.861 140.461 723.388 140.793C722.924 141.115 722.644 141.612 722.55 142.284H715.334C715.429 140.958 715.85 139.737 716.598 138.619C717.356 137.492 718.459 136.593 719.908 135.92C721.357 135.239 723.165 134.898 725.334 134.898C726.896 134.898 728.298 135.082 729.538 135.452C730.779 135.812 731.835 136.318 732.706 136.972C733.577 137.616 734.24 138.373 734.695 139.244C735.159 140.106 735.391 141.044 735.391 142.057V157H728.061V153.932H727.891C727.455 154.746 726.925 155.404 726.3 155.906C725.684 156.408 724.979 156.773 724.183 157C723.397 157.227 722.531 157.341 721.584 157.341ZM724.141 152.398C724.737 152.398 725.296 152.275 725.817 152.028C726.347 151.782 726.778 151.427 727.109 150.963C727.441 150.499 727.607 149.936 727.607 149.273V147.455C727.398 147.54 727.176 147.62 726.939 147.696C726.712 147.772 726.465 147.843 726.2 147.909C725.945 147.975 725.67 148.037 725.376 148.094C725.092 148.151 724.794 148.203 724.482 148.25C723.875 148.345 723.378 148.501 722.99 148.719C722.611 148.927 722.327 149.188 722.138 149.5C721.958 149.803 721.868 150.144 721.868 150.523C721.868 151.129 722.081 151.593 722.507 151.915C722.933 152.237 723.478 152.398 724.141 152.398ZM760.344 135.182L753.015 157H743.924L736.594 135.182H744.833L748.356 149.614H748.583L752.106 135.182H760.344ZM768.107 157.341C766.715 157.341 765.484 157.114 764.414 156.659C763.353 156.195 762.52 155.494 761.914 154.557C761.308 153.619 761.005 152.426 761.005 150.977C761.005 149.784 761.209 148.766 761.616 147.923C762.023 147.071 762.591 146.375 763.32 145.835C764.049 145.295 764.897 144.884 765.863 144.599C766.838 144.315 767.889 144.131 769.016 144.045C770.238 143.951 771.218 143.837 771.957 143.705C772.705 143.562 773.245 143.368 773.576 143.122C773.907 142.866 774.073 142.53 774.073 142.114V142.057C774.073 141.489 773.855 141.053 773.42 140.75C772.984 140.447 772.425 140.295 771.744 140.295C770.996 140.295 770.385 140.461 769.911 140.793C769.447 141.115 769.168 141.612 769.073 142.284H761.857C761.952 140.958 762.373 139.737 763.121 138.619C763.879 137.492 764.982 136.593 766.431 135.92C767.88 135.239 769.689 134.898 771.857 134.898C773.42 134.898 774.821 135.082 776.062 135.452C777.302 135.812 778.358 136.318 779.229 136.972C780.101 137.616 780.763 138.373 781.218 139.244C781.682 140.106 781.914 141.044 781.914 142.057V157H774.585V153.932H774.414C773.978 154.746 773.448 155.404 772.823 155.906C772.208 156.408 771.502 156.773 770.707 157C769.921 157.227 769.054 157.341 768.107 157.341ZM770.664 152.398C771.261 152.398 771.819 152.275 772.34 152.028C772.871 151.782 773.301 151.427 773.633 150.963C773.964 150.499 774.13 149.936 774.13 149.273V147.455C773.922 147.54 773.699 147.62 773.462 147.696C773.235 147.772 772.989 147.843 772.724 147.909C772.468 147.975 772.193 148.037 771.9 148.094C771.616 148.151 771.317 148.203 771.005 148.25C770.399 148.345 769.902 148.501 769.513 148.719C769.135 148.927 768.851 149.188 768.661 149.5C768.481 149.803 768.391 150.144 768.391 150.523C768.391 151.129 768.604 151.593 769.031 151.915C769.457 152.237 770.001 152.398 770.664 152.398ZM801.229 137C801.153 136.053 800.798 135.314 800.163 134.784C799.538 134.254 798.587 133.989 797.308 133.989C796.494 133.989 795.826 134.088 795.305 134.287C794.794 134.476 794.415 134.737 794.169 135.068C793.923 135.4 793.795 135.778 793.786 136.205C793.767 136.555 793.828 136.872 793.97 137.156C794.122 137.431 794.358 137.682 794.68 137.909C795.002 138.127 795.414 138.326 795.916 138.506C796.418 138.686 797.015 138.847 797.706 138.989L800.092 139.5C801.702 139.841 803.08 140.291 804.226 140.849C805.372 141.408 806.309 142.066 807.038 142.824C807.768 143.572 808.303 144.415 808.643 145.352C808.994 146.29 809.174 147.312 809.183 148.42C809.174 150.333 808.696 151.953 807.749 153.278C806.802 154.604 805.447 155.613 803.686 156.304C801.934 156.995 799.827 157.341 797.365 157.341C794.837 157.341 792.63 156.967 790.746 156.219C788.871 155.471 787.412 154.32 786.371 152.767C785.339 151.205 784.818 149.206 784.808 146.773H792.308C792.356 147.663 792.578 148.411 792.976 149.017C793.374 149.623 793.932 150.082 794.652 150.395C795.381 150.707 796.248 150.864 797.251 150.864C798.094 150.864 798.8 150.759 799.368 150.551C799.936 150.343 800.367 150.054 800.661 149.685C800.954 149.315 801.106 148.894 801.115 148.42C801.106 147.975 800.959 147.587 800.675 147.256C800.4 146.915 799.946 146.612 799.311 146.347C798.677 146.072 797.82 145.816 796.74 145.58L793.842 144.955C791.267 144.396 789.235 143.463 787.749 142.156C786.271 140.84 785.537 139.045 785.547 136.773C785.537 134.926 786.03 133.312 787.024 131.929C788.028 130.537 789.415 129.453 791.186 128.676C792.966 127.9 795.007 127.511 797.308 127.511C799.657 127.511 801.688 127.904 803.402 128.69C805.116 129.476 806.437 130.584 807.365 132.014C808.303 133.435 808.776 135.097 808.786 137H801.229ZM822.812 157.398C820.445 157.398 818.419 156.929 816.733 155.991C815.047 155.045 813.755 153.728 812.855 152.043C811.955 150.348 811.506 148.383 811.506 146.148C811.506 143.913 811.955 141.953 812.855 140.267C813.755 138.572 815.047 137.256 816.733 136.318C818.419 135.371 820.445 134.898 822.812 134.898C824.953 134.898 826.804 135.286 828.366 136.062C829.938 136.83 831.155 137.919 832.017 139.33C832.879 140.731 833.314 142.379 833.324 144.273H826.051C825.947 143.127 825.616 142.256 825.057 141.659C824.508 141.053 823.797 140.75 822.926 140.75C822.244 140.75 821.648 140.949 821.136 141.347C820.625 141.735 820.227 142.327 819.943 143.122C819.659 143.908 819.517 144.898 819.517 146.091C819.517 147.284 819.659 148.278 819.943 149.074C820.227 149.86 820.625 150.452 821.136 150.849C821.648 151.238 822.244 151.432 822.926 151.432C823.504 151.432 824.015 151.299 824.46 151.034C824.905 150.759 825.265 150.362 825.54 149.841C825.824 149.311 825.994 148.667 826.051 147.909H833.324C833.295 149.831 832.855 151.508 832.003 152.938C831.151 154.358 829.943 155.456 828.381 156.233C826.828 157.009 824.972 157.398 822.812 157.398ZM836.559 157V135.182H844.173V139.33H844.4C844.798 137.795 845.427 136.673 846.289 135.963C847.16 135.253 848.178 134.898 849.343 134.898C849.684 134.898 850.02 134.926 850.352 134.983C850.692 135.03 851.019 135.101 851.332 135.196V141.886C850.943 141.754 850.465 141.654 849.897 141.588C849.329 141.522 848.841 141.489 848.434 141.489C847.667 141.489 846.976 141.664 846.36 142.014C845.754 142.355 845.276 142.838 844.925 143.463C844.575 144.079 844.4 144.803 844.4 145.636V157H836.559ZM853.903 157V135.182H861.744V157H853.903ZM857.823 132.909C856.763 132.909 855.853 132.559 855.096 131.858C854.338 131.157 853.96 130.314 853.96 129.33C853.96 128.345 854.338 127.502 855.096 126.801C855.853 126.1 856.763 125.75 857.823 125.75C858.893 125.75 859.802 126.1 860.55 126.801C861.308 127.502 861.687 128.345 861.687 129.33C861.687 130.314 861.308 131.157 860.55 131.858C859.802 132.559 858.893 132.909 857.823 132.909ZM865.739 165.182V135.182H873.523V138.989H873.693C873.977 138.25 874.394 137.573 874.943 136.957C875.492 136.332 876.174 135.835 876.989 135.466C877.803 135.087 878.75 134.898 879.83 134.898C881.269 134.898 882.637 135.281 883.935 136.048C885.241 136.815 886.302 138.023 887.116 139.67C887.94 141.318 888.352 143.458 888.352 146.091C888.352 148.61 887.959 150.698 887.173 152.355C886.397 154.012 885.355 155.248 884.048 156.062C882.751 156.877 881.326 157.284 879.773 157.284C878.75 157.284 877.836 157.118 877.031 156.787C876.236 156.446 875.554 155.987 874.986 155.409C874.427 154.822 873.996 154.159 873.693 153.42H873.58V165.182H865.739ZM873.409 146.091C873.409 147.152 873.546 148.07 873.821 148.847C874.105 149.614 874.503 150.21 875.014 150.636C875.535 151.053 876.155 151.261 876.875 151.261C877.595 151.261 878.205 151.058 878.707 150.651C879.219 150.234 879.607 149.642 879.872 148.875C880.147 148.098 880.284 147.17 880.284 146.091C880.284 145.011 880.147 144.088 879.872 143.321C879.607 142.545 879.219 141.953 878.707 141.545C878.205 141.129 877.595 140.92 876.875 140.92C876.155 140.92 875.535 141.129 875.014 141.545C874.503 141.953 874.105 142.545 873.821 143.321C873.546 144.088 873.409 145.011 873.409 146.091ZM904.648 135.182V140.864H890.273V135.182H904.648ZM893.058 129.955H900.898V149.983C900.898 150.286 900.951 150.542 901.055 150.75C901.159 150.949 901.32 151.1 901.538 151.205C901.755 151.299 902.035 151.347 902.376 151.347C902.612 151.347 902.887 151.318 903.2 151.261C903.522 151.205 903.758 151.157 903.91 151.119L905.046 156.631C904.696 156.735 904.194 156.863 903.54 157.014C902.897 157.166 902.129 157.265 901.239 157.312C899.44 157.407 897.93 157.223 896.708 156.759C895.487 156.285 894.568 155.542 893.952 154.528C893.337 153.515 893.039 152.246 893.058 150.722V129.955ZM925.76 118.534V166.375H918.089V118.534H925.76ZM939.087 134.273V127.909H964.371V134.273H955.621V157H947.837V134.273H939.087ZM969.73 165.182C968.83 165.182 967.973 165.111 967.159 164.969C966.345 164.836 965.63 164.652 965.014 164.415L966.719 158.847C967.363 159.074 967.95 159.221 968.48 159.287C969.02 159.353 969.479 159.315 969.858 159.173C970.246 159.031 970.526 158.761 970.696 158.364L970.866 157.966L963.196 135.182H971.378L974.901 150.295H975.128L978.707 135.182H986.946L978.991 158.818C978.594 160.021 978.016 161.1 977.259 162.057C976.51 163.023 975.526 163.785 974.304 164.344C973.082 164.902 971.558 165.182 969.73 165.182ZM989.176 165.182V135.182H996.96V138.989H997.131C997.415 138.25 997.831 137.573 998.381 136.957C998.93 136.332 999.612 135.835 1000.43 135.466C1001.24 135.087 1002.19 134.898 1003.27 134.898C1004.71 134.898 1006.07 135.281 1007.37 136.048C1008.68 136.815 1009.74 138.023 1010.55 139.67C1011.38 141.318 1011.79 143.458 1011.79 146.091C1011.79 148.61 1011.4 150.698 1010.61 152.355C1009.83 154.012 1008.79 155.248 1007.49 156.062C1006.19 156.877 1004.76 157.284 1003.21 157.284C1002.19 157.284 1001.27 157.118 1000.47 156.787C999.673 156.446 998.991 155.987 998.423 155.409C997.865 154.822 997.434 154.159 997.131 153.42H997.017V165.182H989.176ZM996.847 146.091C996.847 147.152 996.984 148.07 997.259 148.847C997.543 149.614 997.94 150.21 998.452 150.636C998.973 151.053 999.593 151.261 1000.31 151.261C1001.03 151.261 1001.64 151.058 1002.14 150.651C1002.66 150.234 1003.04 149.642 1003.31 148.875C1003.58 148.098 1003.72 147.17 1003.72 146.091C1003.72 145.011 1003.58 144.088 1003.31 143.321C1003.04 142.545 1002.66 141.953 1002.14 141.545C1001.64 141.129 1001.03 140.92 1000.31 140.92C999.593 140.92 998.973 141.129 998.452 141.545C997.94 141.953 997.543 142.545 997.259 143.321C996.984 144.088 996.847 145.011 996.847 146.091ZM1025.53 157.398C1023.2 157.398 1021.19 156.953 1019.51 156.062C1017.83 155.163 1016.54 153.875 1015.63 152.199C1014.73 150.513 1014.28 148.496 1014.28 146.148C1014.28 143.894 1014.73 141.924 1015.64 140.239C1016.55 138.553 1017.83 137.241 1019.49 136.304C1021.15 135.366 1023.1 134.898 1025.36 134.898C1027.01 134.898 1028.5 135.153 1029.83 135.665C1031.17 136.176 1032.31 136.92 1033.26 137.895C1034.2 138.861 1034.93 140.035 1035.44 141.418C1035.96 142.8 1036.21 144.358 1036.21 146.091V147.909H1016.72V143.591H1029C1028.99 142.966 1028.82 142.417 1028.51 141.943C1028.21 141.46 1027.8 141.086 1027.28 140.821C1026.76 140.546 1026.18 140.409 1025.53 140.409C1024.89 140.409 1024.31 140.546 1023.78 140.821C1023.25 141.086 1022.83 141.455 1022.5 141.929C1022.19 142.402 1022.03 142.956 1022.01 143.591V148.25C1022.01 148.951 1022.15 149.576 1022.45 150.125C1022.74 150.674 1023.16 151.105 1023.71 151.418C1024.26 151.73 1024.92 151.886 1025.7 151.886C1026.24 151.886 1026.73 151.811 1027.18 151.659C1027.63 151.508 1028.02 151.29 1028.34 151.006C1028.66 150.712 1028.9 150.362 1029.05 149.955H1036.21C1035.96 151.47 1035.38 152.786 1034.46 153.903C1033.55 155.011 1032.33 155.873 1030.81 156.489C1029.31 157.095 1027.55 157.398 1025.53 157.398ZM1054.98 137C1054.9 136.053 1054.55 135.314 1053.91 134.784C1053.29 134.254 1052.34 133.989 1051.06 133.989C1050.24 133.989 1049.58 134.088 1049.06 134.287C1048.54 134.476 1048.17 134.737 1047.92 135.068C1047.67 135.4 1047.54 135.778 1047.54 136.205C1047.52 136.555 1047.58 136.872 1047.72 137.156C1047.87 137.431 1048.11 137.682 1048.43 137.909C1048.75 138.127 1049.16 138.326 1049.67 138.506C1050.17 138.686 1050.76 138.847 1051.46 138.989L1053.84 139.5C1055.45 139.841 1056.83 140.291 1057.98 140.849C1059.12 141.408 1060.06 142.066 1060.79 142.824C1061.52 143.572 1062.05 144.415 1062.39 145.352C1062.74 146.29 1062.92 147.312 1062.93 148.42C1062.92 150.333 1062.45 151.953 1061.5 153.278C1060.55 154.604 1059.2 155.613 1057.44 156.304C1055.68 156.995 1053.58 157.341 1051.12 157.341C1048.59 157.341 1046.38 156.967 1044.5 156.219C1042.62 155.471 1041.16 154.32 1040.12 152.767C1039.09 151.205 1038.57 149.206 1038.56 146.773H1046.06C1046.11 147.663 1046.33 148.411 1046.73 149.017C1047.12 149.623 1047.68 150.082 1048.4 150.395C1049.13 150.707 1050 150.864 1051 150.864C1051.84 150.864 1052.55 150.759 1053.12 150.551C1053.69 150.343 1054.12 150.054 1054.41 149.685C1054.7 149.315 1054.86 148.894 1054.87 148.42C1054.86 147.975 1054.71 147.587 1054.42 147.256C1054.15 146.915 1053.7 146.612 1053.06 146.347C1052.43 146.072 1051.57 145.816 1050.49 145.58L1047.59 144.955C1045.02 144.396 1042.99 143.463 1041.5 142.156C1040.02 140.84 1039.29 139.045 1039.3 136.773C1039.29 134.926 1039.78 133.312 1040.77 131.929C1041.78 130.537 1043.17 129.453 1044.94 128.676C1046.72 127.9 1048.76 127.511 1051.06 127.511C1053.41 127.511 1055.44 127.904 1057.15 128.69C1058.87 129.476 1060.19 130.584 1061.12 132.014C1062.05 133.435 1062.53 135.097 1062.54 137H1054.98ZM1076.56 157.398C1074.2 157.398 1072.17 156.929 1070.48 155.991C1068.8 155.045 1067.5 153.728 1066.61 152.043C1065.71 150.348 1065.26 148.383 1065.26 146.148C1065.26 143.913 1065.71 141.953 1066.61 140.267C1067.5 138.572 1068.8 137.256 1070.48 136.318C1072.17 135.371 1074.2 134.898 1076.56 134.898C1078.7 134.898 1080.55 135.286 1082.12 136.062C1083.69 136.83 1084.91 137.919 1085.77 139.33C1086.63 140.731 1087.06 142.379 1087.07 144.273H1079.8C1079.7 143.127 1079.37 142.256 1078.81 141.659C1078.26 141.053 1077.55 140.75 1076.68 140.75C1075.99 140.75 1075.4 140.949 1074.89 141.347C1074.38 141.735 1073.98 142.327 1073.69 143.122C1073.41 143.908 1073.27 144.898 1073.27 146.091C1073.27 147.284 1073.41 148.278 1073.69 149.074C1073.98 149.86 1074.38 150.452 1074.89 150.849C1075.4 151.238 1075.99 151.432 1076.68 151.432C1077.25 151.432 1077.77 151.299 1078.21 151.034C1078.66 150.759 1079.02 150.362 1079.29 149.841C1079.57 149.311 1079.74 148.667 1079.8 147.909H1087.07C1087.05 149.831 1086.61 151.508 1085.75 152.938C1084.9 154.358 1083.69 155.456 1082.13 156.233C1080.58 157.009 1078.72 157.398 1076.56 157.398ZM1090.31 157V135.182H1097.92V139.33H1098.15C1098.55 137.795 1099.18 136.673 1100.04 135.963C1100.91 135.253 1101.93 134.898 1103.09 134.898C1103.43 134.898 1103.77 134.926 1104.1 134.983C1104.44 135.03 1104.77 135.101 1105.08 135.196V141.886C1104.69 141.754 1104.22 141.654 1103.65 141.588C1103.08 141.522 1102.59 141.489 1102.18 141.489C1101.42 141.489 1100.73 141.664 1100.11 142.014C1099.5 142.355 1099.03 142.838 1098.68 143.463C1098.33 144.079 1098.15 144.803 1098.15 145.636V157H1090.31ZM1107.65 157V135.182H1115.49V157H1107.65ZM1111.57 132.909C1110.51 132.909 1109.6 132.559 1108.85 131.858C1108.09 131.157 1107.71 130.314 1107.71 129.33C1107.71 128.345 1108.09 127.502 1108.85 126.801C1109.6 126.1 1110.51 125.75 1111.57 125.75C1112.64 125.75 1113.55 126.1 1114.3 126.801C1115.06 127.502 1115.44 128.345 1115.44 129.33C1115.44 130.314 1115.06 131.157 1114.3 131.858C1113.55 132.559 1112.64 132.909 1111.57 132.909ZM1119.49 165.182V135.182H1127.27V138.989H1127.44C1127.73 138.25 1128.14 137.573 1128.69 136.957C1129.24 136.332 1129.92 135.835 1130.74 135.466C1131.55 135.087 1132.5 134.898 1133.58 134.898C1135.02 134.898 1136.39 135.281 1137.68 136.048C1138.99 136.815 1140.05 138.023 1140.87 139.67C1141.69 141.318 1142.1 143.458 1142.1 146.091C1142.1 148.61 1141.71 150.698 1140.92 152.355C1140.15 154.012 1139.11 155.248 1137.8 156.062C1136.5 156.877 1135.08 157.284 1133.52 157.284C1132.5 157.284 1131.59 157.118 1130.78 156.787C1129.99 156.446 1129.3 155.987 1128.74 155.409C1128.18 154.822 1127.75 154.159 1127.44 153.42H1127.33V165.182H1119.49ZM1127.16 146.091C1127.16 147.152 1127.3 148.07 1127.57 148.847C1127.86 149.614 1128.25 150.21 1128.76 150.636C1129.29 151.053 1129.91 151.261 1130.62 151.261C1131.34 151.261 1131.96 151.058 1132.46 150.651C1132.97 150.234 1133.36 149.642 1133.62 148.875C1133.9 148.098 1134.03 147.17 1134.03 146.091C1134.03 145.011 1133.9 144.088 1133.62 143.321C1133.36 142.545 1132.97 141.953 1132.46 141.545C1131.96 141.129 1131.34 140.92 1130.62 140.92C1129.91 140.92 1129.29 141.129 1128.76 141.545C1128.25 141.953 1127.86 142.545 1127.57 143.321C1127.3 144.088 1127.16 145.011 1127.16 146.091ZM1158.4 135.182V140.864H1144.02V135.182H1158.4ZM1146.81 129.955H1154.65V149.983C1154.65 150.286 1154.7 150.542 1154.8 150.75C1154.91 150.949 1155.07 151.1 1155.29 151.205C1155.51 151.299 1155.78 151.347 1156.13 151.347C1156.36 151.347 1156.64 151.318 1156.95 151.261C1157.27 151.205 1157.51 151.157 1157.66 151.119L1158.8 156.631C1158.45 156.735 1157.94 156.863 1157.29 157.014C1156.65 157.166 1155.88 157.265 1154.99 157.312C1153.19 157.407 1151.68 157.223 1150.46 156.759C1149.24 156.285 1148.32 155.542 1147.7 154.528C1147.09 153.515 1146.79 152.246 1146.81 150.722V129.955Z" fill="#86092C"/>
<path d="M41.875 351V321.909H49.7727V333.273H60.2273V321.909H68.125V351H60.2273V339.636H49.7727V351H41.875ZM82.5 351.398C80.1326 351.398 78.1061 350.929 76.4205 349.991C74.7348 349.045 73.4422 347.728 72.5426 346.043C71.643 344.348 71.1932 342.383 71.1932 340.148C71.1932 337.913 71.643 335.953 72.5426 334.267C73.4422 332.572 74.7348 331.256 76.4205 330.318C78.1061 329.371 80.1326 328.898 82.5 328.898C84.8674 328.898 86.8939 329.371 88.5795 330.318C90.2652 331.256 91.5578 332.572 92.4574 334.267C93.357 335.953 93.8068 337.913 93.8068 340.148C93.8068 342.383 93.357 344.348 92.4574 346.043C91.5578 347.728 90.2652 349.045 88.5795 349.991C86.8939 350.929 84.8674 351.398 82.5 351.398ZM82.5568 345.602C83.2197 345.602 83.7926 345.38 84.2756 344.935C84.7585 344.49 85.1326 343.855 85.3977 343.031C85.6629 342.207 85.7955 341.227 85.7955 340.091C85.7955 338.945 85.6629 337.965 85.3977 337.151C85.1326 336.327 84.7585 335.692 84.2756 335.247C83.7926 334.802 83.2197 334.58 82.5568 334.58C81.8561 334.58 81.2547 334.802 80.7528 335.247C80.2509 335.692 79.8674 336.327 79.6023 337.151C79.3371 337.965 79.2045 338.945 79.2045 340.091C79.2045 341.227 79.3371 342.207 79.6023 343.031C79.8674 343.855 80.2509 344.49 80.7528 344.935C81.2547 345.38 81.8561 345.602 82.5568 345.602ZM96.875 351V321.909H104.716V332.989H104.83C105.114 332.25 105.53 331.573 106.08 330.957C106.629 330.332 107.311 329.835 108.125 329.466C108.939 329.087 109.886 328.898 110.966 328.898C112.405 328.898 113.774 329.281 115.071 330.048C116.378 330.815 117.438 332.023 118.253 333.67C119.077 335.318 119.489 337.458 119.489 340.091C119.489 342.61 119.096 344.698 118.31 346.355C117.533 348.012 116.491 349.248 115.185 350.062C113.887 350.877 112.462 351.284 110.909 351.284C109.886 351.284 108.973 351.118 108.168 350.787C107.372 350.446 106.69 349.987 106.122 349.409C105.563 348.822 105.133 348.159 104.83 347.42H104.659V351H96.875ZM104.545 340.091C104.545 341.152 104.683 342.07 104.957 342.847C105.241 343.614 105.639 344.21 106.151 344.636C106.671 345.053 107.292 345.261 108.011 345.261C108.731 345.261 109.342 345.058 109.844 344.651C110.355 344.234 110.743 343.642 111.009 342.875C111.283 342.098 111.42 341.17 111.42 340.091C111.42 339.011 111.283 338.088 111.009 337.321C110.743 336.545 110.355 335.953 109.844 335.545C109.342 335.129 108.731 334.92 108.011 334.92C107.292 334.92 106.671 335.129 106.151 335.545C105.639 335.953 105.241 336.545 104.957 337.321C104.683 338.088 104.545 339.011 104.545 340.091ZM122.656 351V321.909H130.497V332.989H130.611C130.895 332.25 131.312 331.573 131.861 330.957C132.41 330.332 133.092 329.835 133.906 329.466C134.721 329.087 135.668 328.898 136.747 328.898C138.187 328.898 139.555 329.281 140.852 330.048C142.159 330.815 143.22 332.023 144.034 333.67C144.858 335.318 145.27 337.458 145.27 340.091C145.27 342.61 144.877 344.698 144.091 346.355C143.314 348.012 142.273 349.248 140.966 350.062C139.669 350.877 138.243 351.284 136.69 351.284C135.668 351.284 134.754 351.118 133.949 350.787C133.153 350.446 132.472 349.987 131.903 349.409C131.345 348.822 130.914 348.159 130.611 347.42H130.44V351H122.656ZM130.327 340.091C130.327 341.152 130.464 342.07 130.739 342.847C131.023 343.614 131.42 344.21 131.932 344.636C132.453 345.053 133.073 345.261 133.793 345.261C134.512 345.261 135.123 345.058 135.625 344.651C136.136 344.234 136.525 343.642 136.79 342.875C137.064 342.098 137.202 341.17 137.202 340.091C137.202 339.011 137.064 338.088 136.79 337.321C136.525 336.545 136.136 335.953 135.625 335.545C135.123 335.129 134.512 334.92 133.793 334.92C133.073 334.92 132.453 335.129 131.932 335.545C131.42 335.953 131.023 336.545 130.739 337.321C130.464 338.088 130.327 339.011 130.327 340.091ZM148.551 351V329.182H156.392V351H148.551ZM152.472 326.909C151.411 326.909 150.502 326.559 149.744 325.858C148.987 325.157 148.608 324.314 148.608 323.33C148.608 322.345 148.987 321.502 149.744 320.801C150.502 320.1 151.411 319.75 152.472 319.75C153.542 319.75 154.451 320.1 155.199 320.801C155.956 321.502 156.335 322.345 156.335 323.33C156.335 324.314 155.956 325.157 155.199 325.858C154.451 326.559 153.542 326.909 152.472 326.909ZM170.842 351.398C168.512 351.398 166.504 350.953 164.819 350.062C163.143 349.163 161.85 347.875 160.941 346.199C160.041 344.513 159.592 342.496 159.592 340.148C159.592 337.894 160.046 335.924 160.955 334.239C161.864 332.553 163.147 331.241 164.805 330.304C166.462 329.366 168.417 328.898 170.671 328.898C172.319 328.898 173.81 329.153 175.146 329.665C176.481 330.176 177.622 330.92 178.569 331.895C179.516 332.861 180.245 334.035 180.756 335.418C181.268 336.8 181.523 338.358 181.523 340.091V341.909H162.035V337.591H174.308C174.298 336.966 174.137 336.417 173.825 335.943C173.522 335.46 173.11 335.086 172.589 334.821C172.077 334.546 171.495 334.409 170.842 334.409C170.207 334.409 169.625 334.546 169.094 334.821C168.564 335.086 168.138 335.455 167.816 335.929C167.504 336.402 167.338 336.956 167.319 337.591V342.25C167.319 342.951 167.466 343.576 167.759 344.125C168.053 344.674 168.474 345.105 169.023 345.418C169.573 345.73 170.236 345.886 171.012 345.886C171.552 345.886 172.044 345.811 172.489 345.659C172.944 345.508 173.332 345.29 173.654 345.006C173.976 344.712 174.213 344.362 174.364 343.955H181.523C181.277 345.47 180.695 346.786 179.776 347.903C178.858 349.011 177.641 349.873 176.126 350.489C174.62 351.095 172.859 351.398 170.842 351.398ZM204.666 336.284H197.45C197.412 335.839 197.256 335.455 196.982 335.134C196.707 334.812 196.352 334.565 195.916 334.395C195.49 334.215 195.017 334.125 194.496 334.125C193.823 334.125 193.246 334.248 192.763 334.494C192.28 334.741 192.043 335.091 192.053 335.545C192.043 335.867 192.18 336.166 192.464 336.44C192.758 336.715 193.321 336.928 194.155 337.08L198.587 337.875C200.821 338.282 202.483 338.969 203.572 339.935C204.671 340.891 205.225 342.174 205.234 343.784C205.225 345.337 204.761 346.687 203.842 347.832C202.933 348.969 201.688 349.849 200.107 350.474C198.535 351.09 196.74 351.398 194.723 351.398C191.39 351.398 188.781 350.716 186.896 349.352C185.021 347.989 183.975 346.189 183.757 343.955H191.541C191.645 344.646 191.986 345.181 192.564 345.56C193.151 345.929 193.89 346.114 194.78 346.114C195.5 346.114 196.091 345.991 196.555 345.744C197.029 345.498 197.27 345.148 197.28 344.693C197.27 344.277 197.062 343.945 196.655 343.699C196.257 343.453 195.632 343.254 194.78 343.102L190.916 342.42C188.691 342.032 187.024 341.294 185.916 340.205C184.808 339.116 184.259 337.714 184.268 336C184.259 334.485 184.657 333.202 185.462 332.151C186.276 331.09 187.436 330.285 188.942 329.736C190.457 329.177 192.251 328.898 194.325 328.898C197.479 328.898 199.964 329.551 201.783 330.858C203.61 332.165 204.571 333.973 204.666 336.284Z" fill="#86092C"/>
<path d="M817.068 351H805.875V321.909H816.955C819.947 321.909 822.532 322.491 824.71 323.656C826.898 324.812 828.583 326.478 829.767 328.656C830.96 330.825 831.557 333.424 831.557 336.455C831.557 339.485 830.965 342.089 829.781 344.267C828.598 346.436 826.921 348.102 824.753 349.267C822.584 350.422 820.023 351 817.068 351ZM813.773 344.295H816.784C818.223 344.295 819.45 344.063 820.463 343.599C821.486 343.135 822.262 342.335 822.793 341.199C823.332 340.062 823.602 338.481 823.602 336.455C823.602 334.428 823.328 332.847 822.778 331.71C822.239 330.574 821.443 329.774 820.392 329.31C819.35 328.846 818.072 328.614 816.557 328.614H813.773V344.295ZM835.325 351V329.182H842.938V333.33H843.165C843.563 331.795 844.193 330.673 845.055 329.963C845.926 329.253 846.944 328.898 848.109 328.898C848.45 328.898 848.786 328.926 849.117 328.983C849.458 329.03 849.785 329.101 850.097 329.196V335.886C849.709 335.754 849.231 335.654 848.663 335.588C848.094 335.522 847.607 335.489 847.2 335.489C846.433 335.489 845.741 335.664 845.126 336.014C844.52 336.355 844.041 336.838 843.691 337.463C843.341 338.079 843.165 338.803 843.165 339.636V351H835.325ZM857.732 351.341C856.34 351.341 855.109 351.114 854.039 350.659C852.978 350.195 852.145 349.494 851.539 348.557C850.933 347.619 850.63 346.426 850.63 344.977C850.63 343.784 850.834 342.766 851.241 341.923C851.648 341.071 852.216 340.375 852.945 339.835C853.674 339.295 854.522 338.884 855.488 338.599C856.463 338.315 857.514 338.131 858.641 338.045C859.863 337.951 860.843 337.837 861.582 337.705C862.33 337.562 862.87 337.368 863.201 337.122C863.532 336.866 863.698 336.53 863.698 336.114V336.057C863.698 335.489 863.48 335.053 863.045 334.75C862.609 334.447 862.05 334.295 861.369 334.295C860.621 334.295 860.01 334.461 859.536 334.793C859.072 335.115 858.793 335.612 858.698 336.284H851.482C851.577 334.958 851.998 333.737 852.746 332.619C853.504 331.492 854.607 330.593 856.056 329.92C857.505 329.239 859.314 328.898 861.482 328.898C863.045 328.898 864.446 329.082 865.687 329.452C866.927 329.812 867.983 330.318 868.854 330.972C869.726 331.616 870.388 332.373 870.843 333.244C871.307 334.106 871.539 335.044 871.539 336.057V351H864.21V347.932H864.039C863.603 348.746 863.073 349.404 862.448 349.906C861.833 350.408 861.127 350.773 860.332 351C859.546 351.227 858.679 351.341 857.732 351.341ZM860.289 346.398C860.886 346.398 861.444 346.275 861.965 346.028C862.496 345.782 862.926 345.427 863.258 344.963C863.589 344.499 863.755 343.936 863.755 343.273V341.455C863.547 341.54 863.324 341.62 863.087 341.696C862.86 341.772 862.614 341.843 862.349 341.909C862.093 341.975 861.818 342.037 861.525 342.094C861.241 342.151 860.942 342.203 860.63 342.25C860.024 342.345 859.527 342.501 859.138 342.719C858.76 342.927 858.476 343.188 858.286 343.5C858.106 343.803 858.016 344.144 858.016 344.523C858.016 345.129 858.229 345.593 858.656 345.915C859.082 346.237 859.626 346.398 860.289 346.398ZM879.149 351L873.695 329.182H881.536L884.036 342.477H884.206L886.99 329.182H894.604L897.501 342.364H897.672L900.058 329.182H907.899L902.445 351H893.979L890.911 339.295H890.683L887.615 351H879.149ZM910.286 351V329.182H918.126V351H910.286ZM914.206 326.909C913.145 326.909 912.236 326.559 911.479 325.858C910.721 325.157 910.342 324.314 910.342 323.33C910.342 322.345 910.721 321.502 911.479 320.801C912.236 320.1 913.145 319.75 914.206 319.75C915.276 319.75 916.185 320.1 916.933 320.801C917.691 321.502 918.07 322.345 918.07 323.33C918.07 324.314 917.691 325.157 916.933 325.858C916.185 326.559 915.276 326.909 914.206 326.909ZM929.962 338.727V351H922.121V329.182H929.565V333.33H929.792C930.265 331.947 931.099 330.863 932.292 330.077C933.495 329.291 934.896 328.898 936.496 328.898C938.04 328.898 939.38 329.253 940.516 329.963C941.662 330.664 942.548 331.63 943.173 332.861C943.807 334.092 944.12 335.498 944.11 337.08V351H936.269V338.727C936.279 337.648 936.004 336.8 935.445 336.185C934.896 335.569 934.129 335.261 933.144 335.261C932.5 335.261 931.937 335.403 931.454 335.688C930.98 335.962 930.616 336.36 930.36 336.881C930.104 337.392 929.972 338.008 929.962 338.727ZM958.492 359.636C956.305 359.636 954.43 359.324 952.867 358.699C951.314 358.083 950.107 357.231 949.245 356.142C948.393 355.063 947.915 353.822 947.81 352.42H955.367C955.443 352.884 955.632 353.259 955.935 353.543C956.238 353.827 956.627 354.03 957.1 354.153C957.583 354.286 958.123 354.352 958.719 354.352C959.733 354.352 960.571 354.106 961.234 353.614C961.906 353.121 962.242 352.231 962.242 350.943V347.25H962.015C961.731 347.989 961.295 348.618 960.708 349.139C960.121 349.651 959.415 350.044 958.592 350.318C957.768 350.583 956.863 350.716 955.879 350.716C954.326 350.716 952.896 350.356 951.589 349.636C950.291 348.917 949.25 347.776 948.464 346.213C947.687 344.651 947.299 342.61 947.299 340.091C947.299 337.458 947.706 335.318 948.521 333.67C949.344 332.023 950.405 330.815 951.702 330.048C953.009 329.281 954.382 328.898 955.822 328.898C956.901 328.898 957.848 329.087 958.663 329.466C959.477 329.835 960.159 330.332 960.708 330.957C961.257 331.573 961.674 332.25 961.958 332.989H962.129V329.182H969.969V350.943C969.969 352.79 969.491 354.357 968.535 355.645C967.588 356.942 966.253 357.932 964.529 358.614C962.806 359.295 960.793 359.636 958.492 359.636ZM958.776 345.148C959.496 345.148 960.112 344.949 960.623 344.551C961.144 344.144 961.541 343.566 961.816 342.818C962.1 342.061 962.242 341.152 962.242 340.091C962.242 339.011 962.1 338.088 961.816 337.321C961.541 336.545 961.144 335.953 960.623 335.545C960.112 335.129 959.496 334.92 958.776 334.92C958.057 334.92 957.441 335.129 956.93 335.545C956.428 335.953 956.04 336.545 955.765 337.321C955.5 338.088 955.367 339.011 955.367 340.091C955.367 341.17 955.5 342.089 955.765 342.847C956.04 343.595 956.428 344.168 956.93 344.565C957.441 344.954 958.057 345.148 958.776 345.148ZM991.869 312.534V360.375H984.199V312.534H991.869ZM1024.88 331.511C1024.76 331.009 1024.57 330.569 1024.3 330.19C1024.04 329.802 1023.71 329.475 1023.31 329.21C1022.92 328.936 1022.46 328.732 1021.94 328.599C1021.43 328.457 1020.87 328.386 1020.25 328.386C1018.93 328.386 1017.8 328.704 1016.86 329.338C1015.93 329.973 1015.22 330.886 1014.73 332.08C1014.25 333.273 1014 334.712 1014 336.398C1014 338.102 1014.24 339.561 1014.7 340.773C1015.16 341.985 1015.85 342.913 1016.77 343.557C1017.69 344.201 1018.83 344.523 1020.2 344.523C1021.4 344.523 1022.4 344.348 1023.19 343.997C1024 343.647 1024.6 343.15 1025 342.506C1025.4 341.862 1025.59 341.104 1025.59 340.233L1026.96 340.375H1020.31V334.75H1033.21V338.784C1033.21 341.436 1032.64 343.704 1031.52 345.588C1030.4 347.463 1028.86 348.902 1026.89 349.906C1024.93 350.901 1022.68 351.398 1020.14 351.398C1017.31 351.398 1014.82 350.796 1012.68 349.594C1010.54 348.391 1008.87 346.677 1007.67 344.452C1006.48 342.226 1005.88 339.58 1005.88 336.511C1005.88 334.106 1006.24 331.975 1006.97 330.119C1007.71 328.263 1008.73 326.696 1010.04 325.418C1011.35 324.13 1012.86 323.159 1014.57 322.506C1016.29 321.843 1018.12 321.511 1020.08 321.511C1021.81 321.511 1023.41 321.758 1024.88 322.25C1026.37 322.733 1027.68 323.424 1028.82 324.324C1029.96 325.214 1030.89 326.27 1031.59 327.491C1032.29 328.713 1032.72 330.053 1032.87 331.511H1024.88ZM1043.08 351.341C1041.69 351.341 1040.46 351.114 1039.39 350.659C1038.33 350.195 1037.5 349.494 1036.89 348.557C1036.28 347.619 1035.98 346.426 1035.98 344.977C1035.98 343.784 1036.19 342.766 1036.59 341.923C1037 341.071 1037.57 340.375 1038.3 339.835C1039.03 339.295 1039.87 338.884 1040.84 338.599C1041.81 338.315 1042.87 338.131 1043.99 338.045C1045.21 337.951 1046.19 337.837 1046.93 337.705C1047.68 337.562 1048.22 337.368 1048.55 337.122C1048.88 336.866 1049.05 336.53 1049.05 336.114V336.057C1049.05 335.489 1048.83 335.053 1048.4 334.75C1047.96 334.447 1047.4 334.295 1046.72 334.295C1045.97 334.295 1045.36 334.461 1044.89 334.793C1044.42 335.115 1044.14 335.612 1044.05 336.284H1036.83C1036.93 334.958 1037.35 333.737 1038.1 332.619C1038.86 331.492 1039.96 330.593 1041.41 329.92C1042.86 329.239 1044.67 328.898 1046.83 328.898C1048.4 328.898 1049.8 329.082 1051.04 329.452C1052.28 329.812 1053.33 330.318 1054.21 330.972C1055.08 331.616 1055.74 332.373 1056.19 333.244C1056.66 334.106 1056.89 335.044 1056.89 336.057V351H1049.56V347.932H1049.39C1048.96 348.746 1048.42 349.404 1047.8 349.906C1047.18 350.408 1046.48 350.773 1045.68 351C1044.9 351.227 1044.03 351.341 1043.08 351.341ZM1045.64 346.398C1046.24 346.398 1046.8 346.275 1047.32 346.028C1047.85 345.782 1048.28 345.427 1048.61 344.963C1048.94 344.499 1049.11 343.936 1049.11 343.273V341.455C1048.9 341.54 1048.68 341.62 1048.44 341.696C1048.21 341.772 1047.97 341.843 1047.7 341.909C1047.44 341.975 1047.17 342.037 1046.88 342.094C1046.59 342.151 1046.29 342.203 1045.98 342.25C1045.38 342.345 1044.88 342.501 1044.49 342.719C1044.11 342.927 1043.83 343.188 1043.64 343.5C1043.46 343.803 1043.37 344.144 1043.37 344.523C1043.37 345.129 1043.58 345.593 1044.01 345.915C1044.43 346.237 1044.98 346.398 1045.64 346.398ZM1060.64 351V329.182H1068.08V333.33H1068.31C1068.76 331.966 1069.54 330.886 1070.64 330.091C1071.74 329.295 1073.04 328.898 1074.56 328.898C1076.09 328.898 1077.41 329.305 1078.52 330.119C1079.63 330.924 1080.3 331.994 1080.52 333.33H1080.75C1081.12 331.994 1081.91 330.924 1083.11 330.119C1084.31 329.305 1085.72 328.898 1087.34 328.898C1089.43 328.898 1091.13 329.57 1092.43 330.915C1093.73 332.259 1094.39 334.049 1094.39 336.284V351H1086.55V338.273C1086.55 337.316 1086.3 336.568 1085.82 336.028C1085.34 335.479 1084.69 335.205 1083.88 335.205C1083.07 335.205 1082.43 335.479 1081.96 336.028C1081.49 336.568 1081.26 337.316 1081.26 338.273V351H1073.76V338.273C1073.76 337.316 1073.52 336.568 1073.04 336.028C1072.55 335.479 1071.91 335.205 1071.09 335.205C1070.55 335.205 1070.09 335.328 1069.7 335.574C1069.31 335.82 1069.01 336.175 1068.79 336.639C1068.58 337.094 1068.48 337.638 1068.48 338.273V351H1060.64ZM1098.25 351V329.182H1106.1V351H1098.25ZM1102.17 326.909C1101.11 326.909 1100.21 326.559 1099.45 325.858C1098.69 325.157 1098.31 324.314 1098.31 323.33C1098.31 322.345 1098.69 321.502 1099.45 320.801C1100.21 320.1 1101.11 319.75 1102.17 319.75C1103.24 319.75 1104.15 320.1 1104.9 320.801C1105.66 321.502 1106.04 322.345 1106.04 323.33C1106.04 324.314 1105.66 325.157 1104.9 325.858C1104.15 326.559 1103.24 326.909 1102.17 326.909ZM1117.93 338.727V351H1110.09V329.182H1117.53V333.33H1117.76C1118.23 331.947 1119.07 330.863 1120.26 330.077C1121.46 329.291 1122.86 328.898 1124.47 328.898C1126.01 328.898 1127.35 329.253 1128.49 329.963C1129.63 330.664 1130.52 331.63 1131.14 332.861C1131.78 334.092 1132.09 335.498 1132.08 337.08V351H1124.24V338.727C1124.25 337.648 1123.97 336.8 1123.41 336.185C1122.86 335.569 1122.1 335.261 1121.11 335.261C1120.47 335.261 1119.91 335.403 1119.42 335.688C1118.95 335.962 1118.58 336.36 1118.33 336.881C1118.07 337.392 1117.94 338.008 1117.93 338.727ZM1146.46 359.636C1144.27 359.636 1142.4 359.324 1140.84 358.699C1139.28 358.083 1138.08 357.231 1137.21 356.142C1136.36 355.063 1135.88 353.822 1135.78 352.42H1143.34C1143.41 352.884 1143.6 353.259 1143.9 353.543C1144.21 353.827 1144.6 354.03 1145.07 354.153C1145.55 354.286 1146.09 354.352 1146.69 354.352C1147.7 354.352 1148.54 354.106 1149.2 353.614C1149.87 353.121 1150.21 352.231 1150.21 350.943V347.25H1149.98C1149.7 347.989 1149.26 348.618 1148.68 349.139C1148.09 349.651 1147.38 350.044 1146.56 350.318C1145.74 350.583 1144.83 350.716 1143.85 350.716C1142.29 350.716 1140.86 350.356 1139.56 349.636C1138.26 348.917 1137.22 347.776 1136.43 346.213C1135.66 344.651 1135.27 342.61 1135.27 340.091C1135.27 337.458 1135.67 335.318 1136.49 333.67C1137.31 332.023 1138.37 330.815 1139.67 330.048C1140.98 329.281 1142.35 328.898 1143.79 328.898C1144.87 328.898 1145.82 329.087 1146.63 329.466C1147.45 329.835 1148.13 330.332 1148.68 330.957C1149.23 331.573 1149.64 332.25 1149.93 332.989H1150.1V329.182H1157.94V350.943C1157.94 352.79 1157.46 354.357 1156.5 355.645C1155.56 356.942 1154.22 357.932 1152.5 358.614C1150.77 359.295 1148.76 359.636 1146.46 359.636ZM1146.75 345.148C1147.46 345.148 1148.08 344.949 1148.59 344.551C1149.11 344.144 1149.51 343.566 1149.78 342.818C1150.07 342.061 1150.21 341.152 1150.21 340.091C1150.21 339.011 1150.07 338.088 1149.78 337.321C1149.51 336.545 1149.11 335.953 1148.59 335.545C1148.08 335.129 1147.46 334.92 1146.75 334.92C1146.03 334.92 1145.41 335.129 1144.9 335.545C1144.4 335.953 1144.01 336.545 1143.73 337.321C1143.47 338.088 1143.34 339.011 1143.34 340.091C1143.34 341.17 1143.47 342.089 1143.73 342.847C1144.01 343.595 1144.4 344.168 1144.9 344.565C1145.41 344.954 1146.03 345.148 1146.75 345.148Z" fill="#86092C"/>
<path d="M41.875 254V224.909H49.7727V247.636H61.5341V254H41.875ZM64.8402 254V232.182H72.6811V254H64.8402ZM68.7607 229.909C67.7 229.909 66.791 229.559 66.0334 228.858C65.2758 228.157 64.897 227.314 64.897 226.33C64.897 225.345 65.2758 224.502 66.0334 223.801C66.791 223.1 67.7 222.75 68.7607 222.75C69.8307 222.75 70.7398 223.1 71.4879 223.801C72.2455 224.502 72.6243 225.345 72.6243 226.33C72.6243 227.314 72.2455 228.157 71.4879 228.858C70.7398 229.559 69.8307 229.909 68.7607 229.909ZM84.517 241.727V254H76.6761V232.182H84.1193V236.33H84.3466C84.8201 234.947 85.6534 233.863 86.8466 233.077C88.0492 232.291 89.4508 231.898 91.0511 231.898C92.5947 231.898 93.9347 232.253 95.071 232.963C96.2169 233.664 97.1023 234.63 97.7273 235.861C98.3617 237.092 98.6742 238.498 98.6648 240.08V254H90.8239V241.727C90.8333 240.648 90.5587 239.8 90 239.185C89.4508 238.569 88.6837 238.261 87.6989 238.261C87.0549 238.261 86.4915 238.403 86.0085 238.688C85.535 238.962 85.1705 239.36 84.9148 239.881C84.6591 240.392 84.5265 241.008 84.517 241.727ZM109.581 248.83L109.638 239.511H110.661L115.945 232.182H124.751L115.888 243.602H113.672L109.581 248.83ZM102.536 254V224.909H110.376V254H102.536ZM116.001 254L111.001 245.364L116.115 239.795L124.979 254H116.001ZM136.349 254.398C134.02 254.398 132.012 253.953 130.327 253.062C128.651 252.163 127.358 250.875 126.449 249.199C125.549 247.513 125.099 245.496 125.099 243.148C125.099 240.894 125.554 238.924 126.463 237.239C127.372 235.553 128.655 234.241 130.312 233.304C131.97 232.366 133.925 231.898 136.179 231.898C137.827 231.898 139.318 232.153 140.653 232.665C141.989 233.176 143.13 233.92 144.077 234.895C145.024 235.861 145.753 237.035 146.264 238.418C146.776 239.8 147.031 241.358 147.031 243.091V244.909H127.543V240.591H139.815C139.806 239.966 139.645 239.417 139.332 238.943C139.029 238.46 138.617 238.086 138.097 237.821C137.585 237.546 137.003 237.409 136.349 237.409C135.715 237.409 135.133 237.546 134.602 237.821C134.072 238.086 133.646 238.455 133.324 238.929C133.011 239.402 132.846 239.956 132.827 240.591V245.25C132.827 245.951 132.973 246.576 133.267 247.125C133.561 247.674 133.982 248.105 134.531 248.418C135.08 248.73 135.743 248.886 136.52 248.886C137.06 248.886 137.552 248.811 137.997 248.659C138.452 248.508 138.84 248.29 139.162 248.006C139.484 247.712 139.721 247.362 139.872 246.955H147.031C146.785 248.47 146.203 249.786 145.284 250.903C144.366 252.011 143.149 252.873 141.634 253.489C140.128 254.095 138.366 254.398 136.349 254.398ZM158.129 254.284C156.576 254.284 155.146 253.877 153.839 253.062C152.541 252.248 151.5 251.012 150.714 249.355C149.937 247.698 149.549 245.61 149.549 243.091C149.549 240.458 149.956 238.318 150.771 236.67C151.594 235.023 152.655 233.815 153.952 233.048C155.259 232.281 156.632 231.898 158.072 231.898C159.151 231.898 160.098 232.087 160.913 232.466C161.727 232.835 162.409 233.332 162.958 233.957C163.507 234.573 163.924 235.25 164.208 235.989H164.322V224.909H172.163V254H164.379V250.42H164.208C163.905 251.159 163.469 251.822 162.901 252.409C162.343 252.987 161.661 253.446 160.856 253.787C160.06 254.118 159.151 254.284 158.129 254.284ZM161.026 248.261C161.746 248.261 162.362 248.053 162.873 247.636C163.394 247.21 163.791 246.614 164.066 245.847C164.35 245.07 164.492 244.152 164.492 243.091C164.492 242.011 164.35 241.088 164.066 240.321C163.791 239.545 163.394 238.953 162.873 238.545C162.362 238.129 161.746 237.92 161.026 237.92C160.307 237.92 159.691 238.129 159.18 238.545C158.678 238.953 158.29 239.545 158.015 240.321C157.75 241.088 157.617 242.011 157.617 243.091C157.617 244.17 157.75 245.098 158.015 245.875C158.29 246.642 158.678 247.234 159.18 247.651C159.691 248.058 160.307 248.261 161.026 248.261ZM176.012 254V232.182H183.853V254H176.012ZM179.933 229.909C178.872 229.909 177.963 229.559 177.205 228.858C176.448 228.157 176.069 227.314 176.069 226.33C176.069 225.345 176.448 224.502 177.205 223.801C177.963 223.1 178.872 222.75 179.933 222.75C181.003 222.75 181.912 223.1 182.66 223.801C183.417 224.502 183.796 225.345 183.796 226.33C183.796 227.314 183.417 228.157 182.66 228.858C181.912 229.559 181.003 229.909 179.933 229.909ZM195.689 241.727V254H187.848V232.182H195.291V236.33H195.518C195.992 234.947 196.825 233.863 198.018 233.077C199.221 232.291 200.623 231.898 202.223 231.898C203.767 231.898 205.107 232.253 206.243 232.963C207.389 233.664 208.274 234.63 208.899 235.861C209.534 237.092 209.846 238.498 209.837 240.08V254H201.996V241.727C202.005 240.648 201.731 239.8 201.172 239.185C200.623 238.569 199.856 238.261 198.871 238.261C198.227 238.261 197.663 238.403 197.18 238.688C196.707 238.962 196.342 239.36 196.087 239.881C195.831 240.392 195.698 241.008 195.689 241.727Z" fill="#86092C"/>
<path d="M1029.06 239.455C1029.06 242.693 1028.43 245.425 1027.17 247.651C1025.91 249.866 1024.21 251.547 1022.07 252.693C1019.93 253.83 1017.54 254.398 1014.91 254.398C1012.26 254.398 1009.86 253.825 1007.72 252.679C1005.59 251.524 1003.9 249.838 1002.64 247.622C1001.39 245.397 1000.76 242.674 1000.76 239.455C1000.76 236.216 1001.39 233.489 1002.64 231.273C1003.9 229.047 1005.59 227.366 1007.72 226.23C1009.86 225.084 1012.26 224.511 1014.91 224.511C1017.54 224.511 1019.93 225.084 1022.07 226.23C1024.21 227.366 1025.91 229.047 1027.17 231.273C1028.43 233.489 1029.06 236.216 1029.06 239.455ZM1020.93 239.455C1020.93 237.712 1020.7 236.244 1020.24 235.051C1019.78 233.848 1019.1 232.939 1018.2 232.324C1017.31 231.699 1016.22 231.386 1014.91 231.386C1013.6 231.386 1012.5 231.699 1011.6 232.324C1010.71 232.939 1010.03 233.848 1009.57 235.051C1009.11 236.244 1008.89 237.712 1008.89 239.455C1008.89 241.197 1009.11 242.67 1009.57 243.872C1010.03 245.065 1010.71 245.974 1011.6 246.599C1012.5 247.215 1013.6 247.523 1014.91 247.523C1016.22 247.523 1017.31 247.215 1018.2 246.599C1019.1 245.974 1019.78 245.065 1020.24 243.872C1020.7 242.67 1020.93 241.197 1020.93 239.455ZM1043.34 254.398C1040.97 254.398 1038.94 253.929 1037.26 252.991C1035.57 252.045 1034.28 250.728 1033.38 249.043C1032.48 247.348 1032.03 245.383 1032.03 243.148C1032.03 240.913 1032.48 238.953 1033.38 237.267C1034.28 235.572 1035.57 234.256 1037.26 233.318C1038.94 232.371 1040.97 231.898 1043.34 231.898C1045.48 231.898 1047.33 232.286 1048.89 233.062C1050.46 233.83 1051.68 234.919 1052.54 236.33C1053.4 237.731 1053.84 239.379 1053.85 241.273H1046.57C1046.47 240.127 1046.14 239.256 1045.58 238.659C1045.03 238.053 1044.32 237.75 1043.45 237.75C1042.77 237.75 1042.17 237.949 1041.66 238.347C1041.15 238.735 1040.75 239.327 1040.47 240.122C1040.18 240.908 1040.04 241.898 1040.04 243.091C1040.04 244.284 1040.18 245.278 1040.47 246.074C1040.75 246.86 1041.15 247.452 1041.66 247.849C1042.17 248.238 1042.77 248.432 1043.45 248.432C1044.03 248.432 1044.54 248.299 1044.98 248.034C1045.43 247.759 1045.79 247.362 1046.06 246.841C1046.35 246.311 1046.52 245.667 1046.57 244.909H1053.85C1053.82 246.831 1053.38 248.508 1052.53 249.938C1051.67 251.358 1050.47 252.456 1048.9 253.233C1047.35 254.009 1045.5 254.398 1043.34 254.398ZM1070.09 232.182V237.864H1055.72V232.182H1070.09ZM1058.5 226.955H1066.34V246.983C1066.34 247.286 1066.4 247.542 1066.5 247.75C1066.6 247.949 1066.77 248.1 1066.98 248.205C1067.2 248.299 1067.48 248.347 1067.82 248.347C1068.06 248.347 1068.33 248.318 1068.64 248.261C1068.97 248.205 1069.2 248.157 1069.36 248.119L1070.49 253.631C1070.14 253.735 1069.64 253.863 1068.99 254.014C1068.34 254.166 1067.57 254.265 1066.68 254.312C1064.89 254.407 1063.38 254.223 1062.15 253.759C1060.93 253.285 1060.01 252.542 1059.4 251.528C1058.78 250.515 1058.48 249.246 1058.5 247.722V226.955ZM1083.51 254.398C1081.18 254.398 1079.18 253.953 1077.49 253.062C1075.81 252.163 1074.52 250.875 1073.61 249.199C1072.71 247.513 1072.26 245.496 1072.26 243.148C1072.26 240.894 1072.72 238.924 1073.63 237.239C1074.54 235.553 1075.82 234.241 1077.48 233.304C1079.13 232.366 1081.09 231.898 1083.34 231.898C1084.99 231.898 1086.48 232.153 1087.82 232.665C1089.15 233.176 1090.29 233.92 1091.24 234.895C1092.19 235.861 1092.92 237.035 1093.43 238.418C1093.94 239.8 1094.2 241.358 1094.2 243.091V244.909H1074.71V240.591H1086.98C1086.97 239.966 1086.81 239.417 1086.5 238.943C1086.19 238.46 1085.78 238.086 1085.26 237.821C1084.75 237.546 1084.17 237.409 1083.51 237.409C1082.88 237.409 1082.3 237.546 1081.77 237.821C1081.24 238.086 1080.81 238.455 1080.49 238.929C1080.18 239.402 1080.01 239.956 1079.99 240.591V245.25C1079.99 245.951 1080.14 246.576 1080.43 247.125C1080.72 247.674 1081.15 248.105 1081.7 248.418C1082.24 248.73 1082.91 248.886 1083.68 248.886C1084.22 248.886 1084.72 248.811 1085.16 248.659C1085.62 248.508 1086 248.29 1086.33 248.006C1086.65 247.712 1086.88 247.362 1087.04 246.955H1094.2C1093.95 248.47 1093.37 249.786 1092.45 250.903C1091.53 252.011 1090.31 252.873 1088.8 253.489C1087.29 254.095 1085.53 254.398 1083.51 254.398ZM1105.24 241.727V254H1097.39V232.182H1104.84V236.33H1105.07C1105.54 234.947 1106.37 233.863 1107.57 233.077C1108.77 232.291 1110.17 231.898 1111.77 231.898C1113.31 231.898 1114.65 232.253 1115.79 232.963C1116.94 233.664 1117.82 234.63 1118.45 235.861C1119.08 237.092 1119.39 238.498 1119.38 240.08V254H1111.54V241.727C1111.55 240.648 1111.28 239.8 1110.72 239.185C1110.17 238.569 1109.4 238.261 1108.42 238.261C1107.77 238.261 1107.21 238.403 1106.73 238.688C1106.25 238.962 1105.89 239.36 1105.63 239.881C1105.38 240.392 1105.25 241.008 1105.24 241.727ZM1139.58 224.909L1144.35 233.375H1144.58L1149.4 224.909H1158.21L1149.52 239.455L1158.55 254H1149.52L1144.58 245.364H1144.35L1139.4 254H1130.43L1139.35 239.455L1130.71 224.909H1139.58Z" fill="#86092C"/>
</svg>
