<svg width="1080" height="290" viewBox="0 0 1080 290" fill="none" xmlns="http://www.w3.org/2000/svg">
<rect width="1080" height="290" rx="8" fill="#F5E1C0"/>
<g filter="url(#filter0_d_7_12)">
<g clip-path="url(#clip0_7_12)">
<rect x="42" y="20" width="454" height="68" rx="8" fill="black" fill-opacity="0.05" shape-rendering="crispEdges"/>
<path d="M347.76 61.04C347.76 63.088 347.355 64.8373 346.544 66.288C345.733 67.7387 344.603 68.848 343.152 69.616C341.723 70.4053 340.059 70.832 338.16 70.896V66.384C339.611 66.2987 340.795 65.8507 341.712 65.04C342.629 64.2293 343.088 62.864 343.088 60.944V42.448H347.76V61.04ZM366.429 48.144C365.533 47.6533 364.615 47.248 363.677 46.928C362.759 46.608 361.895 46.448 361.085 46.448C360.082 46.448 359.293 46.6507 358.717 47.056C358.141 47.4613 357.853 48.0693 357.853 48.88C357.853 49.4347 358.066 49.936 358.493 50.384C358.941 50.8107 359.506 51.1947 360.189 51.536C360.893 51.8773 361.618 52.1867 362.365 52.464C363.047 52.72 363.719 53.0293 364.381 53.392C365.063 53.7333 365.671 54.1707 366.205 54.704C366.738 55.216 367.165 55.8667 367.485 56.656C367.805 57.424 367.965 58.3733 367.965 59.504C367.965 60.6987 367.655 61.808 367.037 62.832C366.418 63.856 365.511 64.688 364.317 65.328C363.122 65.9467 361.65 66.256 359.901 66.256C359.005 66.256 358.087 66.1707 357.149 66C356.231 65.808 355.325 65.5307 354.429 65.168C353.533 64.784 352.669 64.304 351.837 63.728L353.885 60.112C354.439 60.5173 355.037 60.88 355.677 61.2C356.338 61.4987 356.999 61.7333 357.661 61.904C358.322 62.0747 358.93 62.16 359.485 62.16C360.039 62.16 360.594 62.0853 361.149 61.936C361.725 61.7653 362.194 61.488 362.557 61.104C362.941 60.72 363.133 60.1867 363.133 59.504C363.133 59.0347 362.973 58.608 362.653 58.224C362.354 57.84 361.938 57.488 361.405 57.168C360.893 56.848 360.327 56.5707 359.709 56.336C358.983 56.0587 358.237 55.7387 357.469 55.376C356.701 55.0133 355.975 54.576 355.293 54.064C354.631 53.5307 354.087 52.88 353.661 52.112C353.255 51.3227 353.053 50.3627 353.053 49.232C353.053 47.8667 353.351 46.6827 353.949 45.68C354.567 44.6773 355.431 43.888 356.541 43.312C357.65 42.7147 358.93 42.384 360.381 42.32C362.279 42.32 363.815 42.544 364.989 42.992C366.183 43.44 367.25 43.9733 368.189 44.592L366.429 48.144ZM382.691 43.152H386.723V73.584H382.691V43.152ZM401.503 42.448H417.375V46.928H411.647V66H407.007V46.928H401.503V42.448ZM434.429 48.144C433.533 47.6533 432.615 47.248 431.677 46.928C430.759 46.608 429.895 46.448 429.085 46.448C428.082 46.448 427.293 46.6507 426.717 47.056C426.141 47.4613 425.853 48.0693 425.853 48.88C425.853 49.4347 426.066 49.936 426.493 50.384C426.941 50.8107 427.506 51.1947 428.189 51.536C428.893 51.8773 429.618 52.1867 430.365 52.464C431.047 52.72 431.719 53.0293 432.381 53.392C433.063 53.7333 433.671 54.1707 434.205 54.704C434.738 55.216 435.165 55.8667 435.485 56.656C435.805 57.424 435.965 58.3733 435.965 59.504C435.965 60.6987 435.655 61.808 435.037 62.832C434.418 63.856 433.511 64.688 432.317 65.328C431.122 65.9467 429.65 66.256 427.901 66.256C427.005 66.256 426.087 66.1707 425.149 66C424.231 65.808 423.325 65.5307 422.429 65.168C421.533 64.784 420.669 64.304 419.837 63.728L421.885 60.112C422.439 60.5173 423.037 60.88 423.677 61.2C424.338 61.4987 424.999 61.7333 425.661 61.904C426.322 62.0747 426.93 62.16 427.485 62.16C428.039 62.16 428.594 62.0853 429.149 61.936C429.725 61.7653 430.194 61.488 430.557 61.104C430.941 60.72 431.133 60.1867 431.133 59.504C431.133 59.0347 430.973 58.608 430.653 58.224C430.354 57.84 429.938 57.488 429.405 57.168C428.893 56.848 428.327 56.5707 427.709 56.336C426.983 56.0587 426.237 55.7387 425.469 55.376C424.701 55.0133 423.975 54.576 423.293 54.064C422.631 53.5307 422.087 52.88 421.661 52.112C421.255 51.3227 421.053 50.3627 421.053 49.232C421.053 47.8667 421.351 46.6827 421.949 45.68C422.567 44.6773 423.431 43.888 424.541 43.312C425.65 42.7147 426.93 42.384 428.381 42.32C430.279 42.32 431.815 42.544 432.989 42.992C434.183 43.44 435.25 43.9733 436.189 44.592L434.429 48.144Z" fill="#86092C"/>
<line x1="294" y1="24" x2="294" y2="92" stroke="#86092C" stroke-width="2"/>
<path d="M71.5 66V42.7273H77.8182V60.9091H87.2273V66H71.5ZM94.7358 66.2727C93.6222 66.2727 92.6373 66.0909 91.7812 65.7273C90.9328 65.3561 90.2661 64.7955 89.7812 64.0455C89.2964 63.2955 89.054 62.3409 89.054 61.1818C89.054 60.2273 89.2169 59.4129 89.5426 58.7386C89.8684 58.0568 90.3229 57.5 90.9062 57.0682C91.4896 56.6364 92.1676 56.3068 92.9403 56.0795C93.7206 55.8523 94.5616 55.7045 95.4631 55.6364C96.4403 55.5606 97.2244 55.4697 97.8153 55.3636C98.4138 55.25 98.8456 55.0947 99.1108 54.8977C99.3759 54.6932 99.5085 54.4242 99.5085 54.0909V54.0455C99.5085 53.5909 99.3343 53.2424 98.9858 53C98.6373 52.7576 98.1903 52.6364 97.6449 52.6364C97.0464 52.6364 96.5578 52.7689 96.179 53.0341C95.8078 53.2917 95.5843 53.6894 95.5085 54.2273H89.7358C89.8116 53.1667 90.1487 52.1894 90.7472 51.2955C91.3532 50.3939 92.2358 49.6742 93.3949 49.1364C94.554 48.5909 96.0009 48.3182 97.7358 48.3182C98.9858 48.3182 100.107 48.4659 101.099 48.7614C102.092 49.0492 102.937 49.4545 103.634 49.9773C104.33 50.4924 104.861 51.0985 105.224 51.7955C105.596 52.4848 105.781 53.2348 105.781 54.0455V66H99.9176V63.5455H99.7812C99.4328 64.197 99.0085 64.7235 98.5085 65.125C98.0161 65.5265 97.4517 65.8182 96.8153 66C96.1866 66.1818 95.4934 66.2727 94.7358 66.2727ZM96.7812 62.3182C97.2585 62.3182 97.7055 62.2197 98.1222 62.0227C98.5464 61.8258 98.8911 61.5417 99.1562 61.1705C99.4214 60.7992 99.554 60.3485 99.554 59.8182V58.3636C99.3873 58.4318 99.2093 58.4962 99.0199 58.5568C98.8381 58.6174 98.6411 58.6742 98.429 58.7273C98.2244 58.7803 98.0047 58.8295 97.7699 58.875C97.5426 58.9205 97.304 58.9621 97.054 59C96.5691 59.0758 96.1714 59.2008 95.8608 59.375C95.5578 59.5417 95.3305 59.75 95.179 60C95.035 60.2424 94.9631 60.5152 94.9631 60.8182C94.9631 61.303 95.1335 61.6742 95.4744 61.9318C95.8153 62.1894 96.2509 62.3182 96.7812 62.3182ZM115.051 56.1818V66H108.778V48.5455H114.733V51.8636H114.915C115.294 50.7576 115.96 49.8902 116.915 49.2614C117.877 48.6326 118.998 48.3182 120.278 48.3182C121.513 48.3182 122.585 48.6023 123.494 49.1705C124.411 49.7311 125.119 50.5038 125.619 51.4886C126.127 52.4735 126.377 53.5985 126.369 54.8636V66H120.097V56.1818C120.104 55.3182 119.884 54.6402 119.438 54.1477C118.998 53.6553 118.384 53.4091 117.597 53.4091C117.081 53.4091 116.631 53.5227 116.244 53.75C115.866 53.9697 115.574 54.2879 115.369 54.7045C115.165 55.1136 115.059 55.6061 115.051 56.1818ZM137.875 72.9091C136.125 72.9091 134.625 72.6591 133.375 72.1591C132.133 71.6667 131.167 70.9848 130.477 70.1136C129.795 69.25 129.413 68.2576 129.33 67.1364H135.375C135.436 67.5076 135.587 67.8068 135.83 68.0341C136.072 68.2614 136.383 68.4242 136.761 68.5227C137.148 68.6288 137.58 68.6818 138.057 68.6818C138.867 68.6818 139.538 68.4848 140.068 68.0909C140.606 67.697 140.875 66.9848 140.875 65.9545V63H140.693C140.466 63.5909 140.117 64.0947 139.648 64.5114C139.178 64.9205 138.614 65.2348 137.955 65.4545C137.295 65.6667 136.572 65.7727 135.784 65.7727C134.542 65.7727 133.398 65.4848 132.352 64.9091C131.314 64.3333 130.481 63.4205 129.852 62.1705C129.231 60.9205 128.92 59.2879 128.92 57.2727C128.92 55.1667 129.246 53.4545 129.898 52.1364C130.557 50.8182 131.405 49.8523 132.443 49.2386C133.489 48.625 134.587 48.3182 135.739 48.3182C136.602 48.3182 137.36 48.4697 138.011 48.7727C138.663 49.0682 139.208 49.4659 139.648 49.9659C140.087 50.4583 140.42 51 140.648 51.5909H140.784V48.5455H147.057V65.9545C147.057 67.4318 146.674 68.6856 145.909 69.7159C145.152 70.7538 144.083 71.5455 142.705 72.0909C141.326 72.6364 139.716 72.9091 137.875 72.9091ZM138.102 61.3182C138.678 61.3182 139.17 61.1591 139.58 60.8409C139.996 60.5152 140.314 60.053 140.534 59.4545C140.761 58.8485 140.875 58.1212 140.875 57.2727C140.875 56.4091 140.761 55.6705 140.534 55.0568C140.314 54.4356 139.996 53.9621 139.58 53.6364C139.17 53.303 138.678 53.1364 138.102 53.1364C137.527 53.1364 137.034 53.303 136.625 53.6364C136.223 53.9621 135.913 54.4356 135.693 55.0568C135.481 55.6705 135.375 56.4091 135.375 57.2727C135.375 58.1364 135.481 58.8712 135.693 59.4773C135.913 60.0758 136.223 60.5341 136.625 60.8523C137.034 61.1629 137.527 61.3182 138.102 61.3182ZM161.565 58.3636V48.5455H167.838V66H161.884V62.6818H161.702C161.323 63.7955 160.66 64.6667 159.713 65.2955C158.766 65.9167 157.641 66.2273 156.338 66.2273C155.118 66.2273 154.05 65.947 153.134 65.3864C152.224 64.8258 151.516 64.053 151.009 63.0682C150.509 62.0833 150.255 60.9545 150.247 59.6818V48.5455H156.52V58.3636C156.527 59.2273 156.747 59.9053 157.179 60.3977C157.618 60.8902 158.232 61.1364 159.02 61.1364C159.543 61.1364 159.993 61.0265 160.372 60.8068C160.759 60.5795 161.054 60.2614 161.259 59.8523C161.471 59.4356 161.573 58.9394 161.565 58.3636ZM175.892 66.2727C174.778 66.2727 173.794 66.0909 172.938 65.7273C172.089 65.3561 171.422 64.7955 170.938 64.0455C170.453 63.2955 170.21 62.3409 170.21 61.1818C170.21 60.2273 170.373 59.4129 170.699 58.7386C171.025 58.0568 171.479 57.5 172.062 57.0682C172.646 56.6364 173.324 56.3068 174.097 56.0795C174.877 55.8523 175.718 55.7045 176.619 55.6364C177.597 55.5606 178.381 55.4697 178.972 55.3636C179.57 55.25 180.002 55.0947 180.267 54.8977C180.532 54.6932 180.665 54.4242 180.665 54.0909V54.0455C180.665 53.5909 180.491 53.2424 180.142 53C179.794 52.7576 179.347 52.6364 178.801 52.6364C178.203 52.6364 177.714 52.7689 177.335 53.0341C176.964 53.2917 176.741 53.6894 176.665 54.2273H170.892C170.968 53.1667 171.305 52.1894 171.903 51.2955C172.509 50.3939 173.392 49.6742 174.551 49.1364C175.71 48.5909 177.157 48.3182 178.892 48.3182C180.142 48.3182 181.263 48.4659 182.256 48.7614C183.248 49.0492 184.093 49.4545 184.79 49.9773C185.487 50.4924 186.017 51.0985 186.381 51.7955C186.752 52.4848 186.938 53.2348 186.938 54.0455V66H181.074V63.5455H180.938C180.589 64.197 180.165 64.7235 179.665 65.125C179.172 65.5265 178.608 65.8182 177.972 66C177.343 66.1818 176.65 66.2727 175.892 66.2727ZM177.938 62.3182C178.415 62.3182 178.862 62.2197 179.278 62.0227C179.703 61.8258 180.047 61.5417 180.312 61.1705C180.578 60.7992 180.71 60.3485 180.71 59.8182V58.3636C180.544 58.4318 180.366 58.4962 180.176 58.5568C179.994 58.6174 179.797 58.6742 179.585 58.7273C179.381 58.7803 179.161 58.8295 178.926 58.875C178.699 58.9205 178.46 58.9621 178.21 59C177.725 59.0758 177.328 59.2008 177.017 59.375C176.714 59.5417 176.487 59.75 176.335 60C176.191 60.2424 176.119 60.5152 176.119 60.8182C176.119 61.303 176.29 61.6742 176.631 61.9318C176.972 62.1894 177.407 62.3182 177.938 62.3182ZM198.344 72.9091C196.594 72.9091 195.094 72.6591 193.844 72.1591C192.601 71.6667 191.635 70.9848 190.946 70.1136C190.264 69.25 189.882 68.2576 189.798 67.1364H195.844C195.904 67.5076 196.056 67.8068 196.298 68.0341C196.541 68.2614 196.851 68.4242 197.23 68.5227C197.616 68.6288 198.048 68.6818 198.526 68.6818C199.336 68.6818 200.007 68.4848 200.537 68.0909C201.075 67.697 201.344 66.9848 201.344 65.9545V63H201.162C200.935 63.5909 200.586 64.0947 200.116 64.5114C199.647 64.9205 199.082 65.2348 198.423 65.4545C197.764 65.6667 197.041 65.7727 196.253 65.7727C195.01 65.7727 193.866 65.4848 192.821 64.9091C191.783 64.3333 190.95 63.4205 190.321 62.1705C189.7 60.9205 189.389 59.2879 189.389 57.2727C189.389 55.1667 189.715 53.4545 190.366 52.1364C191.026 50.8182 191.874 49.8523 192.912 49.2386C193.957 48.625 195.056 48.3182 196.207 48.3182C197.071 48.3182 197.829 48.4697 198.48 48.7727C199.132 49.0682 199.677 49.4659 200.116 49.9659C200.556 50.4583 200.889 51 201.116 51.5909H201.253V48.5455H207.526V65.9545C207.526 67.4318 207.143 68.6856 206.378 69.7159C205.62 70.7538 204.552 71.5455 203.173 72.0909C201.795 72.6364 200.185 72.9091 198.344 72.9091ZM198.571 61.3182C199.147 61.3182 199.639 61.1591 200.048 60.8409C200.465 60.5152 200.783 60.053 201.003 59.4545C201.23 58.8485 201.344 58.1212 201.344 57.2727C201.344 56.4091 201.23 55.6705 201.003 55.0568C200.783 54.4356 200.465 53.9621 200.048 53.6364C199.639 53.303 199.147 53.1364 198.571 53.1364C197.995 53.1364 197.503 53.303 197.094 53.6364C196.692 53.9621 196.382 54.4356 196.162 55.0568C195.95 55.6705 195.844 56.4091 195.844 57.2727C195.844 58.1364 195.95 58.8712 196.162 59.4773C196.382 60.0758 196.692 60.5341 197.094 60.8523C197.503 61.1629 197.995 61.3182 198.571 61.3182ZM219.08 66.3182C217.216 66.3182 215.61 65.9621 214.261 65.25C212.92 64.5303 211.886 63.5 211.159 62.1591C210.439 60.8106 210.08 59.197 210.08 57.3182C210.08 55.5152 210.443 53.9394 211.17 52.5909C211.898 51.2424 212.924 50.1932 214.25 49.4432C215.576 48.6932 217.14 48.3182 218.943 48.3182C220.261 48.3182 221.455 48.5227 222.523 48.9318C223.591 49.3409 224.504 49.9356 225.261 50.7159C226.019 51.4886 226.602 52.428 227.011 53.5341C227.42 54.6402 227.625 55.8864 227.625 57.2727V58.7273H212.034V55.2727H221.852C221.845 54.7727 221.716 54.3333 221.466 53.9545C221.223 53.5682 220.894 53.2689 220.477 53.0568C220.068 52.8371 219.602 52.7273 219.08 52.7273C218.572 52.7273 218.106 52.8371 217.682 53.0568C217.258 53.2689 216.917 53.5644 216.659 53.9432C216.409 54.322 216.277 54.7652 216.261 55.2727V59C216.261 59.5606 216.379 60.0606 216.614 60.5C216.848 60.9394 217.186 61.2841 217.625 61.5341C218.064 61.7841 218.595 61.9091 219.216 61.9091C219.648 61.9091 220.042 61.8485 220.398 61.7273C220.761 61.6061 221.072 61.4318 221.33 61.2045C221.587 60.9697 221.777 60.6894 221.898 60.3636H227.625C227.428 61.5758 226.962 62.6288 226.227 63.5227C225.492 64.4091 224.519 65.0985 223.307 65.5909C222.102 66.0758 220.693 66.3182 219.08 66.3182ZM246.139 54.2273H240.366C240.336 53.8712 240.211 53.5644 239.991 53.3068C239.772 53.0492 239.488 52.8523 239.139 52.7159C238.798 52.572 238.42 52.5 238.003 52.5C237.465 52.5 237.003 52.5985 236.616 52.7955C236.23 52.9924 236.041 53.2727 236.048 53.6364C236.041 53.8939 236.151 54.1326 236.378 54.3523C236.613 54.572 237.063 54.7424 237.73 54.8636L241.276 55.5C243.063 55.8258 244.393 56.375 245.264 57.1477C246.143 57.9129 246.586 58.9394 246.594 60.2273C246.586 61.4697 246.215 62.5492 245.48 63.4659C244.753 64.375 243.757 65.0795 242.491 65.5795C241.234 66.072 239.798 66.3182 238.185 66.3182C235.518 66.3182 233.431 65.7727 231.923 64.6818C230.423 63.5909 229.586 62.1515 229.412 60.3636H235.639C235.723 60.9167 235.995 61.3447 236.457 61.6477C236.927 61.9432 237.518 62.0909 238.23 62.0909C238.806 62.0909 239.279 61.9924 239.651 61.7955C240.029 61.5985 240.223 61.3182 240.23 60.9545C240.223 60.6212 240.056 60.3561 239.73 60.1591C239.412 59.9621 238.912 59.803 238.23 59.6818L235.139 59.1364C233.359 58.8258 232.026 58.2348 231.139 57.3636C230.253 56.4924 229.813 55.3712 229.821 54C229.813 52.7879 230.132 51.7614 230.776 50.9205C231.427 50.072 232.355 49.428 233.56 48.9886C234.772 48.5417 236.207 48.3182 237.866 48.3182C240.389 48.3182 242.378 48.8409 243.832 49.8864C245.295 50.9318 246.063 52.3788 246.139 54.2273Z" fill="#86092C"/>
</g>
</g>
<g filter="url(#filter1_d_7_12)">
<rect x="583" y="106" width="454" height="68" rx="8" fill="black" fill-opacity="0.05" shape-rendering="crispEdges"/>
<path d="M813.04 152V128.448H820.08C822.448 128.448 824.464 128.8 826.128 129.504C827.792 130.208 829.125 131.147 830.128 132.32C831.152 133.493 831.899 134.805 832.368 136.256C832.837 137.707 833.072 139.168 833.072 140.64C833.072 142.389 832.752 143.968 832.112 145.376C831.493 146.763 830.64 147.957 829.552 148.96C828.464 149.941 827.205 150.699 825.776 151.232C824.347 151.744 822.832 152 821.232 152H813.04ZM817.68 147.52H820.432C821.605 147.52 822.672 147.371 823.632 147.072C824.592 146.752 825.413 146.293 826.096 145.696C826.8 145.099 827.333 144.352 827.696 143.456C828.08 142.539 828.272 141.493 828.272 140.32C828.272 138.784 828.016 137.536 827.504 136.576C827.013 135.595 826.395 134.837 825.648 134.304C824.923 133.771 824.176 133.408 823.408 133.216C822.64 133.003 821.989 132.896 821.456 132.896H817.68V147.52ZM841.024 138.016L841.44 141.856L841.344 141.28C841.749 140.448 842.304 139.744 843.008 139.168C843.712 138.571 844.405 138.112 845.088 137.792C845.792 137.472 846.325 137.312 846.688 137.312L846.464 141.792C845.418 141.664 844.522 141.835 843.776 142.304C843.029 142.773 842.453 143.392 842.048 144.16C841.642 144.928 841.44 145.717 841.44 146.528V152H836.992V138.016H841.024ZM855.536 152.384C854.234 152.384 853.05 152.128 851.984 151.616C850.938 151.083 850.106 150.272 849.488 149.184C848.869 148.096 848.56 146.709 848.56 145.024C848.56 143.445 848.88 142.08 849.52 140.928C850.16 139.776 851.002 138.891 852.048 138.272C853.093 137.632 854.202 137.312 855.376 137.312C856.762 137.312 857.808 137.547 858.512 138.016C859.237 138.464 859.834 138.965 860.304 139.52L860.112 140.064L860.528 138.016H864.688V152H860.208V148.96L860.56 149.92C860.517 149.92 860.389 150.048 860.176 150.304C859.962 150.539 859.642 150.827 859.216 151.168C858.81 151.488 858.298 151.765 857.68 152C857.082 152.256 856.368 152.384 855.536 152.384ZM856.816 148.736C857.349 148.736 857.829 148.661 858.256 148.512C858.682 148.341 859.056 148.107 859.376 147.808C859.696 147.488 859.973 147.093 860.208 146.624V143.2C860.037 142.731 859.781 142.336 859.44 142.016C859.098 141.675 858.693 141.419 858.224 141.248C857.754 141.056 857.232 140.96 856.656 140.96C856.016 140.96 855.418 141.131 854.864 141.472C854.33 141.792 853.904 142.24 853.584 142.816C853.264 143.392 853.104 144.053 853.104 144.8C853.104 145.547 853.274 146.219 853.616 146.816C853.957 147.413 854.405 147.883 854.96 148.224C855.536 148.565 856.154 148.736 856.816 148.736ZM879.288 138.016L882.36 145.216L881.528 145.28L884.216 138.016H888.568L882.264 152.832L877.784 143.552L873.688 152.832L867.32 138.016H871.672L875.064 145.792L873.528 145.568L876.216 139.616L875.48 138.016H879.288ZM902.097 129.152H906.129V159.584H902.097V129.152ZM941.613 149.632C941.335 149.931 940.898 150.24 940.301 150.56C939.703 150.859 939.01 151.136 938.221 151.392C937.453 151.648 936.663 151.851 935.853 152C935.042 152.171 934.274 152.256 933.549 152.256C931.629 152.256 929.901 151.979 928.365 151.424C926.829 150.848 925.517 150.059 924.429 149.056C923.341 148.032 922.509 146.827 921.933 145.44C921.357 144.053 921.069 142.539 921.069 140.896C921.069 138.741 921.389 136.875 922.029 135.296C922.69 133.696 923.575 132.373 924.685 131.328C925.815 130.261 927.106 129.472 928.557 128.96C930.029 128.448 931.565 128.192 933.165 128.192C934.679 128.192 936.066 128.363 937.325 128.704C938.583 129.024 939.65 129.429 940.525 129.92L939.021 134.24C938.637 134.027 938.125 133.813 937.485 133.6C936.845 133.387 936.194 133.216 935.533 133.088C934.871 132.939 934.285 132.864 933.773 132.864C932.493 132.864 931.362 133.024 930.381 133.344C929.399 133.664 928.567 134.144 927.885 134.784C927.223 135.424 926.722 136.224 926.381 137.184C926.039 138.123 925.869 139.221 925.869 140.48C925.869 141.589 926.061 142.592 926.445 143.488C926.829 144.363 927.362 145.109 928.045 145.728C928.749 146.347 929.57 146.816 930.509 147.136C931.469 147.456 932.525 147.616 933.677 147.616C934.338 147.616 934.946 147.573 935.501 147.488C936.055 147.381 936.525 147.221 936.909 147.008V144.16H932.845V139.68H941.613V149.632ZM952.036 152.384C950.734 152.384 949.55 152.128 948.484 151.616C947.438 151.083 946.606 150.272 945.988 149.184C945.369 148.096 945.06 146.709 945.06 145.024C945.06 143.445 945.38 142.08 946.02 140.928C946.66 139.776 947.502 138.891 948.548 138.272C949.593 137.632 950.702 137.312 951.876 137.312C953.262 137.312 954.308 137.547 955.012 138.016C955.737 138.464 956.334 138.965 956.804 139.52L956.612 140.064L957.028 138.016H961.188V152H956.708V148.96L957.06 149.92C957.017 149.92 956.889 150.048 956.676 150.304C956.462 150.539 956.142 150.827 955.716 151.168C955.31 151.488 954.798 151.765 954.18 152C953.582 152.256 952.868 152.384 952.036 152.384ZM953.316 148.736C953.849 148.736 954.329 148.661 954.756 148.512C955.182 148.341 955.556 148.107 955.876 147.808C956.196 147.488 956.473 147.093 956.708 146.624V143.2C956.537 142.731 956.281 142.336 955.94 142.016C955.598 141.675 955.193 141.419 954.724 141.248C954.254 141.056 953.732 140.96 953.156 140.96C952.516 140.96 951.918 141.131 951.364 141.472C950.83 141.792 950.404 142.24 950.084 142.816C949.764 143.392 949.604 144.053 949.604 144.8C949.604 145.547 949.774 146.219 950.116 146.816C950.457 147.413 950.905 147.883 951.46 148.224C952.036 148.565 952.654 148.736 953.316 148.736ZM969.868 138.016L970.22 140.48L970.156 140.288C970.711 139.349 971.404 138.624 972.236 138.112C973.068 137.579 974.071 137.312 975.244 137.312C976.012 137.312 976.684 137.419 977.26 137.632C977.857 137.845 978.359 138.165 978.764 138.592C979.169 138.997 979.447 139.531 979.596 140.192L979.436 140.224C980.033 139.349 980.748 138.645 981.58 138.112C982.433 137.579 983.319 137.312 984.236 137.312C985.623 137.312 986.721 137.707 987.532 138.496C988.364 139.264 988.791 140.267 988.812 141.504V152H984.364V143.36C984.343 142.741 984.247 142.24 984.076 141.856C983.905 141.451 983.511 141.227 982.892 141.184C982.167 141.184 981.548 141.44 981.036 141.952C980.545 142.443 980.172 143.083 979.916 143.872C979.681 144.64 979.564 145.44 979.564 146.272V152H975.084V143.36C975.063 142.741 974.945 142.24 974.732 141.856C974.54 141.451 974.135 141.227 973.516 141.184C972.812 141.184 972.215 141.44 971.724 141.952C971.255 142.443 970.892 143.072 970.636 143.84C970.401 144.608 970.284 145.397 970.284 146.208V152H965.804V138.016H969.868ZM1000.31 152.384C998.602 152.384 997.152 152.064 995.957 151.424C994.784 150.784 993.888 149.899 993.269 148.768C992.65 147.637 992.341 146.336 992.341 144.864C992.341 143.456 992.704 142.187 993.429 141.056C994.154 139.925 995.125 139.029 996.341 138.368C997.557 137.685 998.912 137.344 1000.41 137.344C1002.41 137.344 1004.05 137.931 1005.33 139.104C1006.63 140.256 1007.48 141.931 1007.86 144.128L996.981 147.584L995.989 145.152L1003.86 142.496L1002.93 142.912C1002.76 142.357 1002.45 141.877 1002.01 141.472C1001.58 141.045 1000.93 140.832 1000.05 140.832C999.392 140.832 998.805 140.992 998.293 141.312C997.802 141.611 997.418 142.048 997.141 142.624C996.885 143.179 996.757 143.84 996.757 144.608C996.757 145.483 996.917 146.219 997.237 146.816C997.557 147.392 997.994 147.829 998.549 148.128C999.104 148.427 999.722 148.576 1000.41 148.576C1000.9 148.576 1001.37 148.491 1001.81 148.32C1002.28 148.149 1002.74 147.925 1003.19 147.648L1005.17 150.976C1004.43 151.403 1003.62 151.744 1002.74 152C1001.89 152.256 1001.08 152.384 1000.31 152.384ZM1015.66 152.288C1014.51 152.288 1013.43 152.085 1012.43 151.68C1011.45 151.275 1010.62 150.709 1009.93 149.984L1011.79 147.52C1012.47 148.139 1013.1 148.587 1013.68 148.864C1014.27 149.12 1014.81 149.248 1015.28 149.248C1015.64 149.248 1015.96 149.216 1016.24 149.152C1016.54 149.067 1016.77 148.949 1016.94 148.8C1017.11 148.629 1017.2 148.416 1017.2 148.16C1017.2 147.797 1017.05 147.509 1016.75 147.296C1016.47 147.083 1016.11 146.912 1015.66 146.784C1015.21 146.635 1014.73 146.485 1014.22 146.336C1012.94 145.931 1012.01 145.344 1011.44 144.576C1010.88 143.787 1010.6 142.933 1010.6 142.016C1010.6 141.312 1010.79 140.608 1011.15 139.904C1011.53 139.179 1012.13 138.581 1012.94 138.112C1013.77 137.621 1014.84 137.376 1016.14 137.376C1017.31 137.376 1018.31 137.493 1019.12 137.728C1019.93 137.963 1020.7 138.347 1021.42 138.88L1019.72 141.504C1019.32 141.184 1018.86 140.917 1018.35 140.704C1017.86 140.469 1017.4 140.341 1016.97 140.32C1016.59 140.299 1016.26 140.341 1015.98 140.448C1015.72 140.555 1015.52 140.693 1015.37 140.864C1015.22 141.035 1015.15 141.216 1015.15 141.408C1015.13 141.813 1015.28 142.133 1015.6 142.368C1015.94 142.603 1016.36 142.784 1016.88 142.912C1017.39 143.04 1017.89 143.189 1018.38 143.36C1019.06 143.573 1019.65 143.861 1020.14 144.224C1020.63 144.587 1021 145.024 1021.26 145.536C1021.54 146.027 1021.68 146.624 1021.68 147.328C1021.68 148.181 1021.45 148.992 1021 149.76C1020.58 150.507 1019.92 151.115 1019.02 151.584C1018.15 152.053 1017.03 152.288 1015.66 152.288Z" fill="#86092C"/>
<line x1="781" y1="106" x2="781" y2="174" stroke="#86092C" stroke-width="2"/>
<path d="M618.5 152V128.727H624.818V137.818H633.182V128.727H639.5V152H633.182V142.909H624.818V152H618.5ZM651 152.318C649.106 152.318 647.485 151.943 646.136 151.193C644.788 150.436 643.754 149.383 643.034 148.034C642.314 146.678 641.955 145.106 641.955 143.318C641.955 141.53 642.314 139.962 643.034 138.614C643.754 137.258 644.788 136.205 646.136 135.455C647.485 134.697 649.106 134.318 651 134.318C652.894 134.318 654.515 134.697 655.864 135.455C657.212 136.205 658.246 137.258 658.966 138.614C659.686 139.962 660.045 141.53 660.045 143.318C660.045 145.106 659.686 146.678 658.966 148.034C658.246 149.383 657.212 150.436 655.864 151.193C654.515 151.943 652.894 152.318 651 152.318ZM651.045 147.682C651.576 147.682 652.034 147.504 652.42 147.148C652.807 146.792 653.106 146.284 653.318 145.625C653.53 144.966 653.636 144.182 653.636 143.273C653.636 142.356 653.53 141.572 653.318 140.92C653.106 140.261 652.807 139.754 652.42 139.398C652.034 139.042 651.576 138.864 651.045 138.864C650.485 138.864 650.004 139.042 649.602 139.398C649.201 139.754 648.894 140.261 648.682 140.92C648.47 141.572 648.364 142.356 648.364 143.273C648.364 144.182 648.47 144.966 648.682 145.625C648.894 146.284 649.201 146.792 649.602 147.148C650.004 147.504 650.485 147.682 651.045 147.682ZM662.5 152V128.727H668.773V137.591H668.864C669.091 137 669.424 136.458 669.864 135.966C670.303 135.466 670.848 135.068 671.5 134.773C672.152 134.47 672.909 134.318 673.773 134.318C674.924 134.318 676.019 134.625 677.057 135.239C678.102 135.852 678.951 136.818 679.602 138.136C680.261 139.455 680.591 141.167 680.591 143.273C680.591 145.288 680.277 146.958 679.648 148.284C679.027 149.61 678.193 150.598 677.148 151.25C676.11 151.902 674.97 152.227 673.727 152.227C672.909 152.227 672.178 152.095 671.534 151.83C670.898 151.557 670.352 151.189 669.898 150.727C669.451 150.258 669.106 149.727 668.864 149.136H668.727V152H662.5ZM668.636 143.273C668.636 144.121 668.746 144.856 668.966 145.477C669.193 146.091 669.511 146.568 669.92 146.909C670.337 147.242 670.833 147.409 671.409 147.409C671.985 147.409 672.473 147.246 672.875 146.92C673.284 146.587 673.595 146.114 673.807 145.5C674.027 144.879 674.136 144.136 674.136 143.273C674.136 142.409 674.027 141.67 673.807 141.057C673.595 140.436 673.284 139.962 672.875 139.636C672.473 139.303 671.985 139.136 671.409 139.136C670.833 139.136 670.337 139.303 669.92 139.636C669.511 139.962 669.193 140.436 668.966 141.057C668.746 141.67 668.636 142.409 668.636 143.273ZM683.125 152V128.727H689.398V137.591H689.489C689.716 137 690.049 136.458 690.489 135.966C690.928 135.466 691.473 135.068 692.125 134.773C692.777 134.47 693.534 134.318 694.398 134.318C695.549 134.318 696.644 134.625 697.682 135.239C698.727 135.852 699.576 136.818 700.227 138.136C700.886 139.455 701.216 141.167 701.216 143.273C701.216 145.288 700.902 146.958 700.273 148.284C699.652 149.61 698.818 150.598 697.773 151.25C696.735 151.902 695.595 152.227 694.352 152.227C693.534 152.227 692.803 152.095 692.159 151.83C691.523 151.557 690.977 151.189 690.523 150.727C690.076 150.258 689.731 149.727 689.489 149.136H689.352V152H683.125ZM689.261 143.273C689.261 144.121 689.371 144.856 689.591 145.477C689.818 146.091 690.136 146.568 690.545 146.909C690.962 147.242 691.458 147.409 692.034 147.409C692.61 147.409 693.098 147.246 693.5 146.92C693.909 146.587 694.22 146.114 694.432 145.5C694.652 144.879 694.761 144.136 694.761 143.273C694.761 142.409 694.652 141.67 694.432 141.057C694.22 140.436 693.909 139.962 693.5 139.636C693.098 139.303 692.61 139.136 692.034 139.136C691.458 139.136 690.962 139.303 690.545 139.636C690.136 139.962 689.818 140.436 689.591 141.057C689.371 141.67 689.261 142.409 689.261 143.273ZM703.841 152V134.545H710.114V152H703.841ZM706.977 132.727C706.129 132.727 705.402 132.447 704.795 131.886C704.189 131.326 703.886 130.652 703.886 129.864C703.886 129.076 704.189 128.402 704.795 127.841C705.402 127.28 706.129 127 706.977 127C707.833 127 708.561 127.28 709.159 127.841C709.765 128.402 710.068 129.076 710.068 129.864C710.068 130.652 709.765 131.326 709.159 131.886C708.561 132.447 707.833 132.727 706.977 132.727ZM721.673 152.318C719.81 152.318 718.204 151.962 716.855 151.25C715.514 150.53 714.48 149.5 713.753 148.159C713.033 146.811 712.673 145.197 712.673 143.318C712.673 141.515 713.037 139.939 713.764 138.591C714.491 137.242 715.518 136.193 716.844 135.443C718.17 134.693 719.734 134.318 721.537 134.318C722.855 134.318 724.048 134.523 725.116 134.932C726.185 135.341 727.098 135.936 727.855 136.716C728.613 137.489 729.196 138.428 729.605 139.534C730.014 140.64 730.219 141.886 730.219 143.273V144.727H714.628V141.273H724.446C724.438 140.773 724.31 140.333 724.06 139.955C723.817 139.568 723.488 139.269 723.071 139.057C722.662 138.837 722.196 138.727 721.673 138.727C721.166 138.727 720.7 138.837 720.276 139.057C719.851 139.269 719.51 139.564 719.253 139.943C719.003 140.322 718.87 140.765 718.855 141.273V145C718.855 145.561 718.973 146.061 719.207 146.5C719.442 146.939 719.779 147.284 720.219 147.534C720.658 147.784 721.188 147.909 721.81 147.909C722.241 147.909 722.635 147.848 722.991 147.727C723.355 147.606 723.666 147.432 723.923 147.205C724.181 146.97 724.37 146.689 724.491 146.364H730.219C730.022 147.576 729.556 148.629 728.821 149.523C728.086 150.409 727.113 151.098 725.901 151.591C724.696 152.076 723.287 152.318 721.673 152.318ZM748.733 140.227H742.96C742.93 139.871 742.805 139.564 742.585 139.307C742.366 139.049 742.081 138.852 741.733 138.716C741.392 138.572 741.013 138.5 740.597 138.5C740.059 138.5 739.597 138.598 739.21 138.795C738.824 138.992 738.634 139.273 738.642 139.636C738.634 139.894 738.744 140.133 738.972 140.352C739.206 140.572 739.657 140.742 740.324 140.864L743.869 141.5C745.657 141.826 746.987 142.375 747.858 143.148C748.737 143.913 749.18 144.939 749.188 146.227C749.18 147.47 748.809 148.549 748.074 149.466C747.347 150.375 746.35 151.08 745.085 151.58C743.828 152.072 742.392 152.318 740.778 152.318C738.112 152.318 736.025 151.773 734.517 150.682C733.017 149.591 732.18 148.152 732.006 146.364H738.233C738.316 146.917 738.589 147.345 739.051 147.648C739.521 147.943 740.112 148.091 740.824 148.091C741.4 148.091 741.873 147.992 742.244 147.795C742.623 147.598 742.816 147.318 742.824 146.955C742.816 146.621 742.65 146.356 742.324 146.159C742.006 145.962 741.506 145.803 740.824 145.682L737.733 145.136C735.953 144.826 734.619 144.235 733.733 143.364C732.847 142.492 732.407 141.371 732.415 140C732.407 138.788 732.725 137.761 733.369 136.92C734.021 136.072 734.949 135.428 736.153 134.989C737.366 134.542 738.801 134.318 740.46 134.318C742.983 134.318 744.972 134.841 746.426 135.886C747.888 136.932 748.657 138.379 748.733 140.227Z" fill="#86092C"/>
</g>
<g filter="url(#filter2_d_7_12)">
<g clip-path="url(#clip1_7_12)">
<rect x="583" y="20" width="454" height="68" rx="8" fill="black" fill-opacity="0.05" shape-rendering="crispEdges"/>
<path d="M858.6 54.256C858.6 52.6347 858.909 51.0987 859.528 49.648C860.147 48.1973 861 46.9173 862.088 45.808C863.197 44.6773 864.477 43.792 865.928 43.152C867.379 42.512 868.936 42.192 870.6 42.192C872.243 42.192 873.789 42.512 875.24 43.152C876.691 43.792 877.971 44.6773 879.08 45.808C880.211 46.9173 881.085 48.1973 881.704 49.648C882.344 51.0987 882.664 52.6347 882.664 54.256C882.664 55.92 882.344 57.4773 881.704 58.928C881.085 60.3787 880.211 61.6587 879.08 62.768C877.971 63.856 876.691 64.7093 875.24 65.328C873.789 65.9467 872.243 66.256 870.6 66.256C868.936 66.256 867.379 65.9467 865.928 65.328C864.477 64.7093 863.197 63.856 862.088 62.768C861 61.6587 860.147 60.3787 859.528 58.928C858.909 57.4773 858.6 55.92 858.6 54.256ZM863.4 54.256C863.4 55.3013 863.581 56.2827 863.944 57.2C864.328 58.096 864.851 58.896 865.512 59.6C866.195 60.2827 866.973 60.816 867.848 61.2C868.744 61.584 869.715 61.776 870.76 61.776C871.763 61.776 872.691 61.584 873.544 61.2C874.419 60.816 875.176 60.2827 875.816 59.6C876.456 58.896 876.957 58.096 877.32 57.2C877.683 56.2827 877.864 55.3013 877.864 54.256C877.864 53.1893 877.672 52.1973 877.288 51.28C876.925 50.3627 876.413 49.5627 875.752 48.88C875.112 48.176 874.355 47.632 873.48 47.248C872.605 46.864 871.656 46.672 870.632 46.672C869.608 46.672 868.659 46.864 867.784 47.248C866.909 47.632 866.141 48.176 865.48 48.88C864.819 49.5627 864.307 50.3627 863.944 51.28C863.581 52.1973 863.4 53.1893 863.4 54.256ZM898.426 64.752C897.807 65.2427 897.029 65.6373 896.09 65.936C895.173 66.2347 894.266 66.384 893.37 66.384C891.77 66.384 890.373 66.096 889.178 65.52C888.005 64.9227 887.087 64.08 886.426 62.992C885.786 61.8827 885.466 60.5493 885.466 58.992C885.466 57.4347 885.818 56.112 886.522 55.024C887.226 53.9147 888.143 53.072 889.274 52.496C890.426 51.92 891.631 51.632 892.89 51.632C894.149 51.632 895.237 51.8027 896.154 52.144C897.093 52.4853 897.893 52.9333 898.554 53.488L896.378 56.368C896.079 56.1333 895.663 55.8987 895.13 55.664C894.618 55.408 894.01 55.28 893.306 55.28C892.687 55.28 892.122 55.44 891.61 55.76C891.098 56.08 890.693 56.5173 890.394 57.072C890.095 57.6267 889.946 58.2667 889.946 58.992C889.946 59.6747 890.106 60.304 890.426 60.88C890.746 61.456 891.183 61.9147 891.738 62.256C892.314 62.576 892.986 62.736 893.754 62.736C894.245 62.736 894.693 62.672 895.098 62.544C895.525 62.3947 895.887 62.192 896.186 61.936L898.426 64.752ZM903.179 45.872H907.659V51.952H911.051V55.44H907.659V66H903.179V55.44H901.003V51.952H903.179V45.872ZM921.34 66.384C919.634 66.384 918.183 66.064 916.988 65.424C915.815 64.784 914.919 63.8987 914.3 62.768C913.682 61.6373 913.372 60.336 913.372 58.864C913.372 57.456 913.735 56.1867 914.46 55.056C915.186 53.9253 916.156 53.0293 917.372 52.368C918.588 51.6853 919.943 51.344 921.436 51.344C923.442 51.344 925.084 51.9307 926.364 53.104C927.666 54.256 928.508 55.9307 928.892 58.128L918.012 61.584L917.02 59.152L924.892 56.496L923.964 56.912C923.794 56.3573 923.484 55.8773 923.036 55.472C922.61 55.0453 921.959 54.832 921.084 54.832C920.423 54.832 919.836 54.992 919.324 55.312C918.834 55.6107 918.45 56.048 918.172 56.624C917.916 57.1787 917.788 57.84 917.788 58.608C917.788 59.4827 917.948 60.2187 918.268 60.816C918.588 61.392 919.026 61.8293 919.58 62.128C920.135 62.4267 920.754 62.576 921.436 62.576C921.927 62.576 922.396 62.4907 922.844 62.32C923.314 62.1493 923.772 61.9253 924.22 61.648L926.204 64.976C925.458 65.4027 924.647 65.744 923.772 66C922.919 66.256 922.108 66.384 921.34 66.384ZM936.212 52.016L936.564 54.512L936.5 54.288C936.99 53.4133 937.684 52.7093 938.58 52.176C939.476 51.6213 940.574 51.344 941.876 51.344C943.198 51.344 944.297 51.7387 945.172 52.528C946.068 53.296 946.526 54.2987 946.548 55.536V66H942.068V57.2C942.046 56.5813 941.876 56.0907 941.556 55.728C941.257 55.344 940.745 55.152 940.02 55.152C939.337 55.152 938.74 55.376 938.228 55.824C937.716 56.272 937.321 56.88 937.044 57.648C936.766 58.416 936.628 59.3013 936.628 60.304V66H932.148V52.016H936.212ZM949.964 42.448H955.884L971.244 66H965.26L949.964 42.448ZM949.644 66L958.028 52.816L960.204 57.488L955.404 66H949.644ZM960.524 51.088L965.388 42.448H971.02L962.924 55.088L960.524 51.088Z" fill="#86092C"/>
<line x1="811" y1="23" x2="811" y2="91" stroke="#86092C" stroke-width="2"/>
<path d="M626.5 66V42.7273H632.818V60.9091H642.227V66H626.5ZM644.872 66V48.5455H651.145V66H644.872ZM648.009 46.7273C647.16 46.7273 646.433 46.447 645.827 45.8864C645.221 45.3258 644.918 44.6515 644.918 43.8636C644.918 43.0758 645.221 42.4015 645.827 41.8409C646.433 41.2803 647.16 41 648.009 41C648.865 41 649.592 41.2803 650.19 41.8409C650.796 42.4015 651.099 43.0758 651.099 43.8636C651.099 44.6515 650.796 45.3258 650.19 45.8864C649.592 46.447 648.865 46.7273 648.009 46.7273ZM660.614 56.1818V66H654.341V48.5455H660.295V51.8636H660.477C660.856 50.7576 661.523 49.8902 662.477 49.2614C663.439 48.6326 664.561 48.3182 665.841 48.3182C667.076 48.3182 668.148 48.6023 669.057 49.1705C669.973 49.7311 670.682 50.5038 671.182 51.4886C671.689 52.4735 671.939 53.5985 671.932 54.8636V66H665.659V56.1818C665.667 55.3182 665.447 54.6402 665 54.1477C664.561 53.6553 663.947 53.4091 663.159 53.4091C662.644 53.4091 662.193 53.5227 661.807 53.75C661.428 53.9697 661.136 54.2879 660.932 54.7045C660.727 55.1136 660.621 55.6061 660.614 56.1818ZM680.665 61.8636L680.71 54.4091H681.528L685.756 48.5455H692.801L685.71 57.6818H683.938L680.665 61.8636ZM675.028 66V42.7273H681.301V66H675.028ZM685.801 66L681.801 59.0909L685.892 54.6364L692.983 66H685.801ZM702.08 66.3182C700.216 66.3182 698.61 65.9621 697.261 65.25C695.92 64.5303 694.886 63.5 694.159 62.1591C693.439 60.8106 693.08 59.197 693.08 57.3182C693.08 55.5152 693.443 53.9394 694.17 52.5909C694.898 51.2424 695.924 50.1932 697.25 49.4432C698.576 48.6932 700.14 48.3182 701.943 48.3182C703.261 48.3182 704.455 48.5227 705.523 48.9318C706.591 49.3409 707.504 49.9356 708.261 50.7159C709.019 51.4886 709.602 52.428 710.011 53.5341C710.42 54.6402 710.625 55.8864 710.625 57.2727V58.7273H695.034V55.2727H704.852C704.845 54.7727 704.716 54.3333 704.466 53.9545C704.223 53.5682 703.894 53.2689 703.477 53.0568C703.068 52.8371 702.602 52.7273 702.08 52.7273C701.572 52.7273 701.106 52.8371 700.682 53.0568C700.258 53.2689 699.917 53.5644 699.659 53.9432C699.409 54.322 699.277 54.7652 699.261 55.2727V59C699.261 59.5606 699.379 60.0606 699.614 60.5C699.848 60.9394 700.186 61.2841 700.625 61.5341C701.064 61.7841 701.595 61.9091 702.216 61.9091C702.648 61.9091 703.042 61.8485 703.398 61.7273C703.761 61.6061 704.072 61.4318 704.33 61.2045C704.587 60.9697 704.777 60.6894 704.898 60.3636H710.625C710.428 61.5758 709.962 62.6288 709.227 63.5227C708.492 64.4091 707.519 65.0985 706.307 65.5909C705.102 66.0758 703.693 66.3182 702.08 66.3182ZM719.503 66.2273C718.26 66.2273 717.116 65.9015 716.071 65.25C715.033 64.5985 714.2 63.6098 713.571 62.2841C712.95 60.9583 712.639 59.2879 712.639 57.2727C712.639 55.1667 712.965 53.4545 713.616 52.1364C714.276 50.8182 715.124 49.8523 716.162 49.2386C717.207 48.625 718.306 48.3182 719.457 48.3182C720.321 48.3182 721.079 48.4697 721.73 48.7727C722.382 49.0682 722.927 49.4659 723.366 49.9659C723.806 50.4583 724.139 51 724.366 51.5909H724.457V42.7273H730.73V66H724.503V63.1364H724.366C724.124 63.7273 723.776 64.2576 723.321 64.7273C722.874 65.1894 722.329 65.5568 721.685 65.8295C721.048 66.0947 720.321 66.2273 719.503 66.2273ZM721.821 61.4091C722.397 61.4091 722.889 61.2424 723.298 60.9091C723.715 60.5682 724.033 60.0909 724.253 59.4773C724.48 58.8561 724.594 58.1212 724.594 57.2727C724.594 56.4091 724.48 55.6705 724.253 55.0568C724.033 54.4356 723.715 53.9621 723.298 53.6364C722.889 53.303 722.397 53.1364 721.821 53.1364C721.245 53.1364 720.753 53.303 720.344 53.6364C719.942 53.9621 719.632 54.4356 719.412 55.0568C719.2 55.6705 719.094 56.4091 719.094 57.2727C719.094 58.1364 719.2 58.8788 719.412 59.5C719.632 60.1136 719.942 60.5871 720.344 60.9205C720.753 61.2462 721.245 61.4091 721.821 61.4091ZM733.81 66V48.5455H740.082V66H733.81ZM736.946 46.7273C736.098 46.7273 735.37 46.447 734.764 45.8864C734.158 45.3258 733.855 44.6515 733.855 43.8636C733.855 43.0758 734.158 42.4015 734.764 41.8409C735.37 41.2803 736.098 41 736.946 41C737.802 41 738.529 41.2803 739.128 41.8409C739.734 42.4015 740.037 43.0758 740.037 43.8636C740.037 44.6515 739.734 45.3258 739.128 45.8864C738.529 46.447 737.802 46.7273 736.946 46.7273ZM749.551 56.1818V66H743.278V48.5455H749.233V51.8636H749.415C749.794 50.7576 750.46 49.8902 751.415 49.2614C752.377 48.6326 753.498 48.3182 754.778 48.3182C756.013 48.3182 757.085 48.6023 757.994 49.1705C758.911 49.7311 759.619 50.5038 760.119 51.4886C760.627 52.4735 760.877 53.5985 760.869 54.8636V66H754.597V56.1818C754.604 55.3182 754.384 54.6402 753.938 54.1477C753.498 53.6553 752.884 53.4091 752.097 53.4091C751.581 53.4091 751.131 53.5227 750.744 53.75C750.366 53.9697 750.074 54.2879 749.869 54.7045C749.665 55.1136 749.559 55.6061 749.551 56.1818Z" fill="#86092C"/>
</g>
</g>
<g filter="url(#filter3_d_7_12)">
<rect x="42" y="198" width="454" height="68" rx="8" fill="black" fill-opacity="0.05" shape-rendering="crispEdges"/>
<path d="M265.76 239.04C265.76 241.088 265.355 242.837 264.544 244.288C263.733 245.739 262.603 246.848 261.152 247.616C259.723 248.405 258.059 248.832 256.16 248.896V244.384C257.611 244.299 258.795 243.851 259.712 243.04C260.629 242.229 261.088 240.864 261.088 238.944V220.448H265.76V239.04ZM277.005 244.384C275.703 244.384 274.519 244.128 273.453 243.616C272.407 243.083 271.575 242.272 270.957 241.184C270.338 240.096 270.029 238.709 270.029 237.024C270.029 235.445 270.349 234.08 270.989 232.928C271.629 231.776 272.471 230.891 273.516 230.272C274.562 229.632 275.671 229.312 276.845 229.312C278.231 229.312 279.277 229.547 279.981 230.016C280.706 230.464 281.303 230.965 281.773 231.52L281.581 232.064L281.997 230.016H286.157V244H281.677V240.96L282.029 241.92C281.986 241.92 281.858 242.048 281.645 242.304C281.431 242.539 281.111 242.827 280.685 243.168C280.279 243.488 279.767 243.765 279.149 244C278.551 244.256 277.837 244.384 277.005 244.384ZM278.285 240.736C278.818 240.736 279.298 240.661 279.725 240.512C280.151 240.341 280.525 240.107 280.845 239.808C281.165 239.488 281.442 239.093 281.677 238.624V235.2C281.506 234.731 281.25 234.336 280.909 234.016C280.567 233.675 280.162 233.419 279.693 233.248C279.223 233.056 278.701 232.96 278.125 232.96C277.485 232.96 276.887 233.131 276.333 233.472C275.799 233.792 275.373 234.24 275.053 234.816C274.733 235.392 274.573 236.053 274.573 236.8C274.573 237.547 274.743 238.219 275.085 238.816C275.426 239.413 275.874 239.883 276.429 240.224C277.005 240.565 277.623 240.736 278.285 240.736ZM297.173 244.288L288.789 230.016H294.101L298.869 239.68L296.117 239.584L300.245 230.016H305.237L297.301 244.288H297.173ZM313.13 244.384C311.828 244.384 310.644 244.128 309.578 243.616C308.532 243.083 307.7 242.272 307.082 241.184C306.463 240.096 306.154 238.709 306.154 237.024C306.154 235.445 306.474 234.08 307.114 232.928C307.754 231.776 308.596 230.891 309.641 230.272C310.687 229.632 311.796 229.312 312.97 229.312C314.356 229.312 315.402 229.547 316.106 230.016C316.831 230.464 317.428 230.965 317.898 231.52L317.706 232.064L318.122 230.016H322.282V244H317.802V240.96L318.154 241.92C318.111 241.92 317.983 242.048 317.77 242.304C317.556 242.539 317.236 242.827 316.81 243.168C316.404 243.488 315.892 243.765 315.274 244C314.676 244.256 313.962 244.384 313.13 244.384ZM314.41 240.736C314.943 240.736 315.423 240.661 315.85 240.512C316.276 240.341 316.65 240.107 316.97 239.808C317.29 239.488 317.567 239.093 317.802 238.624V235.2C317.631 234.731 317.375 234.336 317.034 234.016C316.692 233.675 316.287 233.419 315.818 233.248C315.348 233.056 314.826 232.96 314.25 232.96C313.61 232.96 313.012 233.131 312.458 233.472C311.924 233.792 311.498 234.24 311.178 234.816C310.858 235.392 310.698 236.053 310.698 236.8C310.698 237.547 310.868 238.219 311.21 238.816C311.551 239.413 311.999 239.883 312.554 240.224C313.13 240.565 313.748 240.736 314.41 240.736ZM337.816 221.152H341.848V251.584H337.816V221.152ZM355.572 244L366.196 219.52H366.452L377.076 244H371.7L364.916 226.784L368.276 224.48L360.148 244H355.572ZM362.836 235.488H369.908L371.54 239.392H361.396L362.836 235.488ZM383.837 230.016L384.189 232.512L384.125 232.288C384.615 231.413 385.309 230.709 386.205 230.176C387.101 229.621 388.199 229.344 389.501 229.344C390.823 229.344 391.922 229.739 392.797 230.528C393.693 231.296 394.151 232.299 394.173 233.536V244H389.693V235.2C389.671 234.581 389.501 234.091 389.181 233.728C388.882 233.344 388.37 233.152 387.645 233.152C386.962 233.152 386.365 233.376 385.853 233.824C385.341 234.272 384.946 234.88 384.669 235.648C384.391 236.416 384.253 237.301 384.253 238.304V244H379.773V230.016H383.837ZM406.005 251.04C404.746 251.04 403.679 250.891 402.805 250.592C401.951 250.293 401.226 249.931 400.629 249.504C400.031 249.077 399.498 248.672 399.029 248.288L401.653 245.216C402.143 245.664 402.709 246.091 403.349 246.496C404.01 246.923 404.874 247.136 405.941 247.136C406.645 247.136 407.295 247.008 407.893 246.752C408.511 246.517 409.002 246.165 409.365 245.696C409.749 245.227 409.941 244.64 409.941 243.936V240.864L410.101 241.664C409.759 242.389 409.141 243.029 408.245 243.584C407.349 244.117 406.175 244.384 404.725 244.384C403.466 244.384 402.293 244.064 401.205 243.424C400.138 242.763 399.285 241.877 398.645 240.768C398.005 239.637 397.685 238.357 397.685 236.928C397.685 235.456 398.026 234.155 398.709 233.024C399.391 231.872 400.277 230.965 401.365 230.304C402.453 229.643 403.605 229.312 404.821 229.312C406.037 229.312 407.082 229.493 407.957 229.856C408.853 230.197 409.525 230.624 409.973 231.136L409.813 231.552L410.293 230.016H414.421V244C414.421 245.365 414.037 246.571 413.269 247.616C412.501 248.683 411.477 249.515 410.197 250.112C408.938 250.731 407.541 251.04 406.005 251.04ZM402.197 236.8C402.197 237.547 402.367 238.219 402.709 238.816C403.05 239.413 403.509 239.883 404.085 240.224C404.682 240.565 405.343 240.736 406.069 240.736C406.687 240.736 407.231 240.661 407.701 240.512C408.191 240.341 408.618 240.107 408.981 239.808C409.365 239.488 409.685 239.093 409.941 238.624V235.2C409.749 234.731 409.461 234.336 409.077 234.016C408.693 233.675 408.245 233.419 407.733 233.248C407.242 233.056 406.687 232.96 406.069 232.96C405.343 232.96 404.682 233.131 404.085 233.472C403.509 233.792 403.05 234.24 402.709 234.816C402.367 235.392 402.197 236.053 402.197 236.8ZM423.535 244.672C422.276 244.672 421.22 244.288 420.367 243.52C419.513 242.731 419.065 241.717 419.023 240.48V230.016H423.503V238.816C423.545 239.435 423.705 239.936 423.983 240.32C424.26 240.683 424.729 240.864 425.391 240.864C426.052 240.864 426.617 240.64 427.087 240.192C427.577 239.744 427.951 239.136 428.207 238.368C428.484 237.579 428.623 236.693 428.623 235.712V230.016H433.103V244H429.039L428.687 241.44L428.751 241.728C428.431 242.304 428.025 242.816 427.535 243.264C427.044 243.712 426.457 244.053 425.775 244.288C425.113 244.544 424.367 244.672 423.535 244.672ZM437.71 218.752H442.19V244H437.71V218.752ZM452.692 244.384C451.391 244.384 450.207 244.128 449.14 243.616C448.095 243.083 447.263 242.272 446.644 241.184C446.025 240.096 445.716 238.709 445.716 237.024C445.716 235.445 446.036 234.08 446.676 232.928C447.316 231.776 448.159 230.891 449.204 230.272C450.249 229.632 451.359 229.312 452.532 229.312C453.919 229.312 454.964 229.547 455.668 230.016C456.393 230.464 456.991 230.965 457.46 231.52L457.268 232.064L457.684 230.016H461.844V244H457.364V240.96L457.716 241.92C457.673 241.92 457.545 242.048 457.332 242.304C457.119 242.539 456.799 242.827 456.372 243.168C455.967 243.488 455.455 243.765 454.836 244C454.239 244.256 453.524 244.384 452.692 244.384ZM453.972 240.736C454.505 240.736 454.985 240.661 455.412 240.512C455.839 240.341 456.212 240.107 456.532 239.808C456.852 239.488 457.129 239.093 457.364 238.624V235.2C457.193 234.731 456.937 234.336 456.596 234.016C456.255 233.675 455.849 233.419 455.38 233.248C454.911 233.056 454.388 232.96 453.812 232.96C453.172 232.96 452.575 233.131 452.02 233.472C451.487 233.792 451.06 234.24 450.74 234.816C450.42 235.392 450.26 236.053 450.26 236.8C450.26 237.547 450.431 238.219 450.772 238.816C451.113 239.413 451.561 239.883 452.116 240.224C452.692 240.565 453.311 240.736 453.972 240.736ZM470.492 230.016L470.908 233.856L470.812 233.28C471.218 232.448 471.772 231.744 472.476 231.168C473.18 230.571 473.874 230.112 474.556 229.792C475.26 229.472 475.794 229.312 476.156 229.312L475.932 233.792C474.887 233.664 473.991 233.835 473.244 234.304C472.498 234.773 471.922 235.392 471.516 236.16C471.111 236.928 470.908 237.717 470.908 238.528V244H466.46V230.016H470.492Z" fill="#86092C"/>
<line x1="235" y1="198" x2="235" y2="266" stroke="#86092C" stroke-width="2"/>
<path d="M78.0455 228C77.9848 227.242 77.7008 226.652 77.1932 226.227C76.6932 225.803 75.9318 225.591 74.9091 225.591C74.2576 225.591 73.7235 225.67 73.3068 225.83C72.8977 225.981 72.5947 226.189 72.3977 226.455C72.2008 226.72 72.0985 227.023 72.0909 227.364C72.0758 227.644 72.125 227.898 72.2386 228.125C72.3598 228.345 72.5492 228.545 72.8068 228.727C73.0644 228.902 73.3939 229.061 73.7955 229.205C74.197 229.348 74.6742 229.477 75.2273 229.591L77.1364 230C78.4242 230.273 79.5265 230.633 80.4432 231.08C81.3598 231.527 82.1098 232.053 82.6932 232.659C83.2765 233.258 83.7045 233.932 83.9773 234.682C84.2576 235.432 84.4015 236.25 84.4091 237.136C84.4015 238.667 84.0189 239.962 83.2614 241.023C82.5038 242.083 81.4205 242.89 80.0114 243.443C78.6098 243.996 76.9242 244.273 74.9545 244.273C72.9318 244.273 71.1667 243.973 69.6591 243.375C68.1591 242.777 66.9924 241.856 66.1591 240.614C65.3333 239.364 64.9167 237.765 64.9091 235.818H70.9091C70.947 236.53 71.125 237.129 71.4432 237.614C71.7614 238.098 72.2083 238.466 72.7841 238.716C73.3674 238.966 74.0606 239.091 74.8636 239.091C75.5379 239.091 76.1023 239.008 76.5568 238.841C77.0114 238.674 77.3561 238.443 77.5909 238.148C77.8258 237.852 77.947 237.515 77.9545 237.136C77.947 236.78 77.8295 236.47 77.6023 236.205C77.3826 235.932 77.0189 235.689 76.5114 235.477C76.0038 235.258 75.3182 235.053 74.4545 234.864L72.1364 234.364C70.0758 233.917 68.4508 233.17 67.2614 232.125C66.0795 231.072 65.4924 229.636 65.5 227.818C65.4924 226.341 65.8864 225.049 66.6818 223.943C67.4848 222.83 68.5947 221.962 70.0114 221.341C71.4356 220.72 73.0682 220.409 74.9091 220.409C76.7879 220.409 78.4129 220.723 79.7841 221.352C81.1553 221.981 82.2121 222.867 82.9545 224.011C83.7045 225.148 84.0833 226.477 84.0909 228H78.0455ZM97.3125 226.545V231.091H85.8125V226.545H97.3125ZM88.0398 222.364H94.3125V238.386C94.3125 238.629 94.3542 238.833 94.4375 239C94.5208 239.159 94.6496 239.28 94.8239 239.364C94.9981 239.439 95.2216 239.477 95.4943 239.477C95.6837 239.477 95.9034 239.455 96.1534 239.409C96.411 239.364 96.6004 239.326 96.7216 239.295L97.6307 243.705C97.3504 243.788 96.9489 243.89 96.4261 244.011C95.911 244.133 95.2973 244.212 94.5852 244.25C93.1458 244.326 91.9375 244.178 90.9602 243.807C89.983 243.428 89.2481 242.833 88.7557 242.023C88.2633 241.212 88.0246 240.197 88.0398 238.977V222.364ZM111.19 236.364V226.545H117.463V244H111.509V240.682H111.327C110.948 241.795 110.285 242.667 109.338 243.295C108.391 243.917 107.266 244.227 105.963 244.227C104.743 244.227 103.675 243.947 102.759 243.386C101.849 242.826 101.141 242.053 100.634 241.068C100.134 240.083 99.8797 238.955 99.8722 237.682V226.545H106.145V236.364C106.152 237.227 106.372 237.905 106.804 238.398C107.243 238.89 107.857 239.136 108.645 239.136C109.168 239.136 109.618 239.027 109.997 238.807C110.384 238.58 110.679 238.261 110.884 237.852C111.096 237.436 111.198 236.939 111.19 236.364ZM126.972 244.227C125.729 244.227 124.585 243.902 123.54 243.25C122.502 242.598 121.669 241.61 121.04 240.284C120.419 238.958 120.108 237.288 120.108 235.273C120.108 233.167 120.434 231.455 121.085 230.136C121.744 228.818 122.593 227.852 123.631 227.239C124.676 226.625 125.775 226.318 126.926 226.318C127.79 226.318 128.547 226.47 129.199 226.773C129.85 227.068 130.396 227.466 130.835 227.966C131.275 228.458 131.608 229 131.835 229.591H131.926V220.727H138.199V244H131.972V241.136H131.835C131.593 241.727 131.244 242.258 130.79 242.727C130.343 243.189 129.797 243.557 129.153 243.83C128.517 244.095 127.79 244.227 126.972 244.227ZM129.29 239.409C129.866 239.409 130.358 239.242 130.767 238.909C131.184 238.568 131.502 238.091 131.722 237.477C131.949 236.856 132.062 236.121 132.062 235.273C132.062 234.409 131.949 233.67 131.722 233.057C131.502 232.436 131.184 231.962 130.767 231.636C130.358 231.303 129.866 231.136 129.29 231.136C128.714 231.136 128.222 231.303 127.812 231.636C127.411 231.962 127.1 232.436 126.881 233.057C126.669 233.67 126.562 234.409 126.562 235.273C126.562 236.136 126.669 236.879 126.881 237.5C127.1 238.114 127.411 238.587 127.812 238.92C128.222 239.246 128.714 239.409 129.29 239.409ZM145.097 250.545C144.377 250.545 143.691 250.489 143.04 250.375C142.388 250.269 141.816 250.121 141.324 249.932L142.688 245.477C143.203 245.659 143.672 245.777 144.097 245.83C144.528 245.883 144.896 245.852 145.199 245.739C145.509 245.625 145.733 245.409 145.869 245.091L146.006 244.773L139.869 226.545H146.415L149.233 238.636H149.415L152.278 226.545H158.869L152.506 245.455C152.188 246.417 151.725 247.28 151.119 248.045C150.521 248.818 149.733 249.428 148.756 249.875C147.778 250.322 146.559 250.545 145.097 250.545ZM160.653 244V226.545H166.926V244H160.653ZM163.79 224.727C162.941 224.727 162.214 224.447 161.608 223.886C161.002 223.326 160.699 222.652 160.699 221.864C160.699 221.076 161.002 220.402 161.608 219.841C162.214 219.28 162.941 219 163.79 219C164.646 219 165.373 219.28 165.972 219.841C166.578 220.402 166.881 221.076 166.881 221.864C166.881 222.652 166.578 223.326 165.972 223.886C165.373 224.447 164.646 224.727 163.79 224.727ZM176.395 234.182V244H170.122V226.545H176.077V229.864H176.259C176.637 228.758 177.304 227.89 178.259 227.261C179.221 226.633 180.342 226.318 181.622 226.318C182.857 226.318 183.929 226.602 184.838 227.17C185.755 227.731 186.463 228.504 186.963 229.489C187.471 230.473 187.721 231.598 187.713 232.864V244H181.44V234.182C181.448 233.318 181.228 232.64 180.781 232.148C180.342 231.655 179.728 231.409 178.94 231.409C178.425 231.409 177.974 231.523 177.588 231.75C177.209 231.97 176.918 232.288 176.713 232.705C176.509 233.114 176.402 233.606 176.395 234.182ZM199.219 250.909C197.469 250.909 195.969 250.659 194.719 250.159C193.476 249.667 192.51 248.985 191.821 248.114C191.139 247.25 190.757 246.258 190.673 245.136H196.719C196.779 245.508 196.931 245.807 197.173 246.034C197.416 246.261 197.726 246.424 198.105 246.523C198.491 246.629 198.923 246.682 199.401 246.682C200.211 246.682 200.882 246.485 201.412 246.091C201.95 245.697 202.219 244.985 202.219 243.955V241H202.037C201.81 241.591 201.461 242.095 200.991 242.511C200.522 242.92 199.957 243.235 199.298 243.455C198.639 243.667 197.916 243.773 197.128 243.773C195.885 243.773 194.741 243.485 193.696 242.909C192.658 242.333 191.825 241.42 191.196 240.17C190.575 238.92 190.264 237.288 190.264 235.273C190.264 233.167 190.59 231.455 191.241 230.136C191.901 228.818 192.749 227.852 193.787 227.239C194.832 226.625 195.931 226.318 197.082 226.318C197.946 226.318 198.704 226.47 199.355 226.773C200.007 227.068 200.552 227.466 200.991 227.966C201.431 228.458 201.764 229 201.991 229.591H202.128V226.545H208.401V243.955C208.401 245.432 208.018 246.686 207.253 247.716C206.495 248.754 205.427 249.545 204.048 250.091C202.67 250.636 201.06 250.909 199.219 250.909ZM199.446 239.318C200.022 239.318 200.514 239.159 200.923 238.841C201.34 238.515 201.658 238.053 201.878 237.455C202.105 236.848 202.219 236.121 202.219 235.273C202.219 234.409 202.105 233.67 201.878 233.057C201.658 232.436 201.34 231.962 200.923 231.636C200.514 231.303 200.022 231.136 199.446 231.136C198.87 231.136 198.378 231.303 197.969 231.636C197.567 231.962 197.257 232.436 197.037 233.057C196.825 233.67 196.719 234.409 196.719 235.273C196.719 236.136 196.825 236.871 197.037 237.477C197.257 238.076 197.567 238.534 197.969 238.852C198.378 239.163 198.87 239.318 199.446 239.318Z" fill="#86092C"/>
</g>
<g filter="url(#filter4_d_7_12)">
<rect x="42" y="109" width="454" height="68" rx="8" fill="black" fill-opacity="0.05" shape-rendering="crispEdges"/>
<path d="M324.176 131.448C325.648 131.448 326.96 131.64 328.112 132.024C329.264 132.387 330.224 132.92 330.992 133.624C331.781 134.307 332.379 135.139 332.784 136.12C333.189 137.08 333.392 138.168 333.392 139.384C333.392 140.344 333.243 141.304 332.944 142.264C332.667 143.224 332.197 144.099 331.536 144.888C330.896 145.677 330.043 146.317 328.976 146.808C327.909 147.277 326.587 147.512 325.008 147.512H321.68V155H317.04V131.448H324.176ZM324.976 143.032C325.68 143.032 326.267 142.915 326.736 142.68C327.205 142.445 327.568 142.147 327.824 141.784C328.101 141.421 328.293 141.048 328.4 140.664C328.528 140.259 328.592 139.885 328.592 139.544C328.592 139.288 328.549 138.968 328.464 138.584C328.4 138.179 328.251 137.773 328.016 137.368C327.781 136.963 327.419 136.621 326.928 136.344C326.459 136.067 325.819 135.928 325.008 135.928H321.68V143.032H324.976ZM329.328 145.912L335.152 155H329.744L323.792 146.04L329.328 145.912ZM344.497 155.384C342.79 155.384 341.339 155.064 340.145 154.424C338.971 153.784 338.075 152.899 337.457 151.768C336.838 150.637 336.529 149.336 336.529 147.864C336.529 146.456 336.891 145.187 337.617 144.056C338.342 142.925 339.313 142.029 340.529 141.368C341.745 140.685 343.099 140.344 344.593 140.344C346.598 140.344 348.241 140.931 349.521 142.104C350.822 143.256 351.664 144.931 352.049 147.128L341.169 150.584L340.177 148.152L348.049 145.496L347.121 145.912C346.95 145.357 346.641 144.877 346.193 144.472C345.766 144.045 345.115 143.832 344.241 143.832C343.579 143.832 342.993 143.992 342.481 144.312C341.99 144.611 341.606 145.048 341.329 145.624C341.073 146.179 340.945 146.84 340.945 147.608C340.945 148.483 341.105 149.219 341.425 149.816C341.745 150.392 342.182 150.829 342.737 151.128C343.291 151.427 343.91 151.576 344.593 151.576C345.083 151.576 345.553 151.491 346.001 151.32C346.47 151.149 346.929 150.925 347.377 150.648L349.361 153.976C348.614 154.403 347.803 154.744 346.929 155C346.075 155.256 345.265 155.384 344.497 155.384ZM361.192 155.384C359.891 155.384 358.707 155.128 357.64 154.616C356.595 154.083 355.763 153.272 355.144 152.184C354.525 151.096 354.216 149.709 354.216 148.024C354.216 146.445 354.536 145.08 355.176 143.928C355.816 142.776 356.659 141.891 357.704 141.272C358.749 140.632 359.859 140.312 361.032 140.312C362.419 140.312 363.464 140.547 364.168 141.016C364.893 141.464 365.491 141.965 365.96 142.52L365.768 143.064L366.184 141.016H370.344V155H365.864V151.96L366.216 152.92C366.173 152.92 366.045 153.048 365.832 153.304C365.619 153.539 365.299 153.827 364.872 154.168C364.467 154.488 363.955 154.765 363.336 155C362.739 155.256 362.024 155.384 361.192 155.384ZM362.472 151.736C363.005 151.736 363.485 151.661 363.912 151.512C364.339 151.341 364.712 151.107 365.032 150.808C365.352 150.488 365.629 150.093 365.864 149.624V146.2C365.693 145.731 365.437 145.336 365.096 145.016C364.755 144.675 364.349 144.419 363.88 144.248C363.411 144.056 362.888 143.96 362.312 143.96C361.672 143.96 361.075 144.131 360.52 144.472C359.987 144.792 359.56 145.24 359.24 145.816C358.92 146.392 358.76 147.053 358.76 147.8C358.76 148.547 358.931 149.219 359.272 149.816C359.613 150.413 360.061 150.883 360.616 151.224C361.192 151.565 361.811 151.736 362.472 151.736ZM386.832 153.752C386.214 154.243 385.435 154.637 384.496 154.936C383.579 155.235 382.672 155.384 381.776 155.384C380.176 155.384 378.779 155.096 377.584 154.52C376.411 153.923 375.494 153.08 374.832 151.992C374.192 150.883 373.872 149.549 373.872 147.992C373.872 146.435 374.224 145.112 374.928 144.024C375.632 142.915 376.55 142.072 377.68 141.496C378.832 140.92 380.038 140.632 381.296 140.632C382.555 140.632 383.643 140.803 384.56 141.144C385.499 141.485 386.299 141.933 386.96 142.488L384.784 145.368C384.486 145.133 384.07 144.899 383.536 144.664C383.024 144.408 382.416 144.28 381.712 144.28C381.094 144.28 380.528 144.44 380.016 144.76C379.504 145.08 379.099 145.517 378.8 146.072C378.502 146.627 378.352 147.267 378.352 147.992C378.352 148.675 378.512 149.304 378.832 149.88C379.152 150.456 379.59 150.915 380.144 151.256C380.72 151.576 381.392 151.736 382.16 151.736C382.651 151.736 383.099 151.672 383.504 151.544C383.931 151.395 384.294 151.192 384.592 150.936L386.832 153.752ZM391.585 134.872H396.065V140.952H399.457V144.44H396.065V155H391.585V144.44H389.409V140.952H391.585V134.872ZM410.323 150.04C410.323 152.088 409.917 153.837 409.107 155.288C408.296 156.739 407.165 157.848 405.715 158.616C404.285 159.405 402.621 159.832 400.723 159.896V155.384C402.173 155.299 403.357 154.851 404.275 154.04C405.192 153.229 405.651 151.864 405.651 149.944V131.448H410.323V150.04ZM428.991 137.144C428.095 136.653 427.178 136.248 426.239 135.928C425.322 135.608 424.458 135.448 423.647 135.448C422.644 135.448 421.855 135.651 421.279 136.056C420.703 136.461 420.415 137.069 420.415 137.88C420.415 138.435 420.628 138.936 421.055 139.384C421.503 139.811 422.068 140.195 422.751 140.536C423.455 140.877 424.18 141.187 424.927 141.464C425.61 141.72 426.282 142.029 426.943 142.392C427.626 142.733 428.234 143.171 428.767 143.704C429.3 144.216 429.727 144.867 430.047 145.656C430.367 146.424 430.527 147.373 430.527 148.504C430.527 149.699 430.218 150.808 429.599 151.832C428.98 152.856 428.074 153.688 426.879 154.328C425.684 154.947 424.212 155.256 422.463 155.256C421.567 155.256 420.65 155.171 419.711 155C418.794 154.808 417.887 154.531 416.991 154.168C416.095 153.784 415.231 153.304 414.399 152.728L416.447 149.112C417.002 149.517 417.599 149.88 418.239 150.2C418.9 150.499 419.562 150.733 420.223 150.904C420.884 151.075 421.492 151.16 422.047 151.16C422.602 151.16 423.156 151.085 423.711 150.936C424.287 150.765 424.756 150.488 425.119 150.104C425.503 149.72 425.695 149.187 425.695 148.504C425.695 148.035 425.535 147.608 425.215 147.224C424.916 146.84 424.5 146.488 423.967 146.168C423.455 145.848 422.89 145.571 422.271 145.336C421.546 145.059 420.799 144.739 420.031 144.376C419.263 144.013 418.538 143.576 417.855 143.064C417.194 142.531 416.65 141.88 416.223 141.112C415.818 140.323 415.615 139.363 415.615 138.232C415.615 136.867 415.914 135.683 416.511 134.68C417.13 133.677 417.994 132.888 419.103 132.312C420.212 131.715 421.492 131.384 422.943 131.32C424.842 131.32 426.378 131.544 427.551 131.992C428.746 132.44 429.812 132.973 430.751 133.592L428.991 137.144Z" fill="#86092C"/>
<path d="M269 109V177" stroke="#86092C" stroke-width="2"/>
<path d="M83.5 155V131.727H89.8182V149.909H99.2273V155H83.5ZM101.872 155V137.545H108.145V155H101.872ZM105.009 135.727C104.16 135.727 103.433 135.447 102.827 134.886C102.221 134.326 101.918 133.652 101.918 132.864C101.918 132.076 102.221 131.402 102.827 130.841C103.433 130.28 104.16 130 105.009 130C105.865 130 106.592 130.28 107.19 130.841C107.796 131.402 108.099 132.076 108.099 132.864C108.099 133.652 107.796 134.326 107.19 134.886C106.592 135.447 105.865 135.727 105.009 135.727ZM111.25 155V131.727H117.523V140.591H117.614C117.841 140 118.174 139.458 118.614 138.966C119.053 138.466 119.598 138.068 120.25 137.773C120.902 137.47 121.659 137.318 122.523 137.318C123.674 137.318 124.769 137.625 125.807 138.239C126.852 138.852 127.701 139.818 128.352 141.136C129.011 142.455 129.341 144.167 129.341 146.273C129.341 148.288 129.027 149.958 128.398 151.284C127.777 152.61 126.943 153.598 125.898 154.25C124.86 154.902 123.72 155.227 122.477 155.227C121.659 155.227 120.928 155.095 120.284 154.83C119.648 154.557 119.102 154.189 118.648 153.727C118.201 153.258 117.856 152.727 117.614 152.136H117.477V155H111.25ZM117.386 146.273C117.386 147.121 117.496 147.856 117.716 148.477C117.943 149.091 118.261 149.568 118.67 149.909C119.087 150.242 119.583 150.409 120.159 150.409C120.735 150.409 121.223 150.246 121.625 149.92C122.034 149.587 122.345 149.114 122.557 148.5C122.777 147.879 122.886 147.136 122.886 146.273C122.886 145.409 122.777 144.67 122.557 144.057C122.345 143.436 122.034 142.962 121.625 142.636C121.223 142.303 120.735 142.136 120.159 142.136C119.583 142.136 119.087 142.303 118.67 142.636C118.261 142.962 117.943 143.436 117.716 144.057C117.496 144.67 117.386 145.409 117.386 146.273ZM131.966 155V137.545H138.057V140.864H138.239C138.557 139.636 139.061 138.739 139.75 138.17C140.447 137.602 141.261 137.318 142.193 137.318C142.466 137.318 142.735 137.341 143 137.386C143.273 137.424 143.534 137.481 143.784 137.557V142.909C143.473 142.803 143.091 142.723 142.636 142.67C142.182 142.617 141.792 142.591 141.466 142.591C140.852 142.591 140.299 142.731 139.807 143.011C139.322 143.284 138.939 143.67 138.659 144.17C138.379 144.663 138.239 145.242 138.239 145.909V155H131.966ZM149.892 155.273C148.778 155.273 147.794 155.091 146.938 154.727C146.089 154.356 145.422 153.795 144.938 153.045C144.453 152.295 144.21 151.341 144.21 150.182C144.21 149.227 144.373 148.413 144.699 147.739C145.025 147.057 145.479 146.5 146.062 146.068C146.646 145.636 147.324 145.307 148.097 145.08C148.877 144.852 149.718 144.705 150.619 144.636C151.597 144.561 152.381 144.47 152.972 144.364C153.57 144.25 154.002 144.095 154.267 143.898C154.532 143.693 154.665 143.424 154.665 143.091V143.045C154.665 142.591 154.491 142.242 154.142 142C153.794 141.758 153.347 141.636 152.801 141.636C152.203 141.636 151.714 141.769 151.335 142.034C150.964 142.292 150.741 142.689 150.665 143.227H144.892C144.968 142.167 145.305 141.189 145.903 140.295C146.509 139.394 147.392 138.674 148.551 138.136C149.71 137.591 151.157 137.318 152.892 137.318C154.142 137.318 155.263 137.466 156.256 137.761C157.248 138.049 158.093 138.455 158.79 138.977C159.487 139.492 160.017 140.098 160.381 140.795C160.752 141.485 160.938 142.235 160.938 143.045V155H155.074V152.545H154.938C154.589 153.197 154.165 153.723 153.665 154.125C153.172 154.527 152.608 154.818 151.972 155C151.343 155.182 150.65 155.273 149.892 155.273ZM151.938 151.318C152.415 151.318 152.862 151.22 153.278 151.023C153.703 150.826 154.047 150.542 154.312 150.17C154.578 149.799 154.71 149.348 154.71 148.818V147.364C154.544 147.432 154.366 147.496 154.176 147.557C153.994 147.617 153.797 147.674 153.585 147.727C153.381 147.78 153.161 147.83 152.926 147.875C152.699 147.92 152.46 147.962 152.21 148C151.725 148.076 151.328 148.201 151.017 148.375C150.714 148.542 150.487 148.75 150.335 149C150.191 149.242 150.119 149.515 150.119 149.818C150.119 150.303 150.29 150.674 150.631 150.932C150.972 151.189 151.407 151.318 151.938 151.318ZM163.935 155V137.545H170.026V140.864H170.207C170.526 139.636 171.029 138.739 171.719 138.17C172.416 137.602 173.23 137.318 174.162 137.318C174.435 137.318 174.704 137.341 174.969 137.386C175.241 137.424 175.503 137.481 175.753 137.557V142.909C175.442 142.803 175.06 142.723 174.605 142.67C174.151 142.617 173.76 142.591 173.435 142.591C172.821 142.591 172.268 142.731 171.776 143.011C171.291 143.284 170.908 143.67 170.628 144.17C170.348 144.663 170.207 145.242 170.207 145.909V155H163.935ZM177.81 155V137.545H184.082V155H177.81ZM180.946 135.727C180.098 135.727 179.37 135.447 178.764 134.886C178.158 134.326 177.855 133.652 177.855 132.864C177.855 132.076 178.158 131.402 178.764 130.841C179.37 130.28 180.098 130 180.946 130C181.802 130 182.529 130.28 183.128 130.841C183.734 131.402 184.037 132.076 184.037 132.864C184.037 133.652 183.734 134.326 183.128 134.886C182.529 135.447 181.802 135.727 180.946 135.727ZM195.642 155.318C193.778 155.318 192.172 154.962 190.824 154.25C189.483 153.53 188.449 152.5 187.722 151.159C187.002 149.811 186.642 148.197 186.642 146.318C186.642 144.515 187.006 142.939 187.733 141.591C188.46 140.242 189.487 139.193 190.812 138.443C192.138 137.693 193.703 137.318 195.506 137.318C196.824 137.318 198.017 137.523 199.085 137.932C200.153 138.341 201.066 138.936 201.824 139.716C202.581 140.489 203.165 141.428 203.574 142.534C203.983 143.64 204.188 144.886 204.188 146.273V147.727H188.597V144.273H198.415C198.407 143.773 198.278 143.333 198.028 142.955C197.786 142.568 197.456 142.269 197.04 142.057C196.631 141.837 196.165 141.727 195.642 141.727C195.134 141.727 194.669 141.837 194.244 142.057C193.82 142.269 193.479 142.564 193.222 142.943C192.972 143.322 192.839 143.765 192.824 144.273V148C192.824 148.561 192.941 149.061 193.176 149.5C193.411 149.939 193.748 150.284 194.188 150.534C194.627 150.784 195.157 150.909 195.778 150.909C196.21 150.909 196.604 150.848 196.96 150.727C197.324 150.606 197.634 150.432 197.892 150.205C198.15 149.97 198.339 149.689 198.46 149.364H204.188C203.991 150.576 203.525 151.629 202.79 152.523C202.055 153.409 201.081 154.098 199.869 154.591C198.665 155.076 197.256 155.318 195.642 155.318ZM222.702 143.227H216.929C216.899 142.871 216.774 142.564 216.554 142.307C216.334 142.049 216.05 141.852 215.702 141.716C215.361 141.572 214.982 141.5 214.565 141.5C214.027 141.5 213.565 141.598 213.179 141.795C212.793 141.992 212.603 142.273 212.611 142.636C212.603 142.894 212.713 143.133 212.94 143.352C213.175 143.572 213.626 143.742 214.293 143.864L217.838 144.5C219.626 144.826 220.955 145.375 221.827 146.148C222.705 146.913 223.149 147.939 223.156 149.227C223.149 150.47 222.777 151.549 222.043 152.466C221.315 153.375 220.319 154.08 219.054 154.58C217.796 155.072 216.361 155.318 214.747 155.318C212.08 155.318 209.993 154.773 208.486 153.682C206.986 152.591 206.149 151.152 205.974 149.364H212.202C212.285 149.917 212.558 150.345 213.02 150.648C213.49 150.943 214.08 151.091 214.793 151.091C215.368 151.091 215.842 150.992 216.213 150.795C216.592 150.598 216.785 150.318 216.793 149.955C216.785 149.621 216.618 149.356 216.293 149.159C215.974 148.962 215.474 148.803 214.793 148.682L211.702 148.136C209.921 147.826 208.588 147.235 207.702 146.364C206.815 145.492 206.376 144.371 206.384 143C206.376 141.788 206.694 140.761 207.338 139.92C207.99 139.072 208.918 138.428 210.122 137.989C211.334 137.542 212.77 137.318 214.429 137.318C216.952 137.318 218.94 137.841 220.395 138.886C221.857 139.932 222.626 141.379 222.702 143.227Z" fill="#86092C"/>
</g>
<defs>
<filter id="filter0_d_7_12" x="18" y="16" width="478" height="92" filterUnits="userSpaceOnUse" color-interpolation-filters="sRGB">
<feFlood flood-opacity="0" result="BackgroundImageFix"/>
<feColorMatrix in="SourceAlpha" type="matrix" values="0 0 0 0 0 0 0 0 0 0 0 0 0 0 0 0 0 0 127 0" result="hardAlpha"/>
<feOffset dx="-12" dy="8"/>
<feGaussianBlur stdDeviation="6"/>
<feComposite in2="hardAlpha" operator="out"/>
<feColorMatrix type="matrix" values="0 0 0 0 0 0 0 0 0 0 0 0 0 0 0 0 0 0 0.2 0"/>
<feBlend mode="normal" in2="BackgroundImageFix" result="effect1_dropShadow_7_12"/>
<feBlend mode="normal" in="SourceGraphic" in2="effect1_dropShadow_7_12" result="shape"/>
</filter>
<filter id="filter1_d_7_12" x="559" y="102" width="478" height="92" filterUnits="userSpaceOnUse" color-interpolation-filters="sRGB">
<feFlood flood-opacity="0" result="BackgroundImageFix"/>
<feColorMatrix in="SourceAlpha" type="matrix" values="0 0 0 0 0 0 0 0 0 0 0 0 0 0 0 0 0 0 127 0" result="hardAlpha"/>
<feOffset dx="-12" dy="8"/>
<feGaussianBlur stdDeviation="6"/>
<feComposite in2="hardAlpha" operator="out"/>
<feColorMatrix type="matrix" values="0 0 0 0 0 0 0 0 0 0 0 0 0 0 0 0 0 0 0.2 0"/>
<feBlend mode="normal" in2="BackgroundImageFix" result="effect1_dropShadow_7_12"/>
<feBlend mode="normal" in="SourceGraphic" in2="effect1_dropShadow_7_12" result="shape"/>
</filter>
<filter id="filter2_d_7_12" x="559" y="16" width="478" height="92" filterUnits="userSpaceOnUse" color-interpolation-filters="sRGB">
<feFlood flood-opacity="0" result="BackgroundImageFix"/>
<feColorMatrix in="SourceAlpha" type="matrix" values="0 0 0 0 0 0 0 0 0 0 0 0 0 0 0 0 0 0 127 0" result="hardAlpha"/>
<feOffset dx="-12" dy="8"/>
<feGaussianBlur stdDeviation="6"/>
<feComposite in2="hardAlpha" operator="out"/>
<feColorMatrix type="matrix" values="0 0 0 0 0 0 0 0 0 0 0 0 0 0 0 0 0 0 0.2 0"/>
<feBlend mode="normal" in2="BackgroundImageFix" result="effect1_dropShadow_7_12"/>
<feBlend mode="normal" in="SourceGraphic" in2="effect1_dropShadow_7_12" result="shape"/>
</filter>
<filter id="filter3_d_7_12" x="18" y="194" width="478" height="92" filterUnits="userSpaceOnUse" color-interpolation-filters="sRGB">
<feFlood flood-opacity="0" result="BackgroundImageFix"/>
<feColorMatrix in="SourceAlpha" type="matrix" values="0 0 0 0 0 0 0 0 0 0 0 0 0 0 0 0 0 0 127 0" result="hardAlpha"/>
<feOffset dx="-12" dy="8"/>
<feGaussianBlur stdDeviation="6"/>
<feComposite in2="hardAlpha" operator="out"/>
<feColorMatrix type="matrix" values="0 0 0 0 0 0 0 0 0 0 0 0 0 0 0 0 0 0 0.2 0"/>
<feBlend mode="normal" in2="BackgroundImageFix" result="effect1_dropShadow_7_12"/>
<feBlend mode="normal" in="SourceGraphic" in2="effect1_dropShadow_7_12" result="shape"/>
</filter>
<filter id="filter4_d_7_12" x="18" y="105" width="478" height="92" filterUnits="userSpaceOnUse" color-interpolation-filters="sRGB">
<feFlood flood-opacity="0" result="BackgroundImageFix"/>
<feColorMatrix in="SourceAlpha" type="matrix" values="0 0 0 0 0 0 0 0 0 0 0 0 0 0 0 0 0 0 127 0" result="hardAlpha"/>
<feOffset dx="-12" dy="8"/>
<feGaussianBlur stdDeviation="6"/>
<feComposite in2="hardAlpha" operator="out"/>
<feColorMatrix type="matrix" values="0 0 0 0 0 0 0 0 0 0 0 0 0 0 0 0 0 0 0.2 0"/>
<feBlend mode="normal" in2="BackgroundImageFix" result="effect1_dropShadow_7_12"/>
<feBlend mode="normal" in="SourceGraphic" in2="effect1_dropShadow_7_12" result="shape"/>
</filter>
<clipPath id="clip0_7_12">
<rect x="42" y="20" width="454" height="68" rx="8" fill="white"/>
</clipPath>
<clipPath id="clip1_7_12">
<rect x="583" y="20" width="454" height="68" rx="8" fill="white"/>
</clipPath>
</defs>
</svg>
